<svg xmlns="http://www.w3.org/2000/svg" width="512" height="512" viewBox="0 0 512 512" version="1.1"><path d="M 231 0.679 C 229.075 0.876, 222.853 1.737, 217.173 2.593 C 211.493 3.448, 201.593 5.436, 195.173 7.012 C 188.753 8.587, 178.100 11.736, 171.500 14.009 C 164.900 16.283, 153.200 21.181, 145.500 24.893 C 137.800 28.605, 127.225 34.249, 122 37.434 C 116.775 40.620, 107.325 47.107, 101 51.850 C 94.675 56.592, 82.969 67.004, 74.986 74.986 C 66.734 83.239, 56.783 94.461, 51.920 101 C 47.217 107.325, 41.219 115.875, 38.593 120 C 35.966 124.125, 30.270 134.700, 25.935 143.500 C 21.346 152.815, 15.982 165.768, 13.096 174.500 C 10.369 182.750, 6.998 194.675, 5.605 201 C 4.211 207.325, 2.380 218.112, 1.536 224.970 C 0.658 232.098, 0 245.392, 0 256 C 0 266.608, 0.658 279.902, 1.536 287.030 C 2.380 293.888, 4.211 304.675, 5.605 311 C 6.998 317.325, 10.372 329.240, 13.102 337.479 C 15.832 345.717, 21.347 359.217, 25.358 367.479 C 29.368 375.740, 35.041 386.325, 37.963 391 C 40.885 395.675, 47.145 404.675, 51.874 411 C 56.615 417.341, 66.984 429.023, 74.986 437.038 C 83.400 445.466, 94.333 455.161, 101 460.105 C 107.325 464.795, 115.875 470.781, 120 473.408 C 124.125 476.034, 134.700 481.730, 143.500 486.065 C 152.815 490.654, 165.768 496.018, 174.500 498.904 C 182.750 501.631, 194.704 505.012, 201.066 506.419 C 207.427 507.825, 218.449 509.656, 225.559 510.488 C 232.670 511.319, 246.368 512, 256 512 C 265.632 512, 279.330 511.319, 286.441 510.488 C 293.551 509.656, 304.573 507.825, 310.934 506.419 C 317.296 505.012, 329.250 501.631, 337.500 498.904 C 346.232 496.018, 359.185 490.654, 368.500 486.065 C 377.300 481.730, 387.875 476.034, 392 473.407 C 396.125 470.781, 404.675 464.783, 411 460.080 C 417.539 455.217, 428.761 445.266, 437.014 437.014 C 445.266 428.761, 455.217 417.539, 460.080 411 C 464.783 404.675, 470.781 396.125, 473.407 392 C 476.034 387.875, 481.730 377.300, 486.065 368.500 C 490.654 359.185, 496.018 346.232, 498.904 337.500 C 501.631 329.250, 505.047 317.139, 506.496 310.588 C 507.945 304.036, 509.649 293.799, 510.283 287.838 C 510.916 281.877, 511.787 277, 512.217 277 C 512.648 277, 512.964 266.988, 512.921 254.750 C 512.878 242.512, 512.566 233.175, 512.229 234 C 511.891 234.825, 511.041 230.441, 510.338 224.258 C 509.636 218.075, 507.892 207.725, 506.462 201.258 C 505.032 194.791, 501.631 182.750, 498.904 174.500 C 496.018 165.768, 490.654 152.815, 486.065 143.500 C 481.730 134.700, 476.034 124.125, 473.408 120 C 470.781 115.875, 464.795 107.325, 460.105 101 C 455.161 94.333, 445.466 83.400, 437.038 74.986 C 429.042 67.004, 417.325 56.592, 411 51.850 C 404.675 47.107, 395.225 40.620, 390 37.434 C 384.775 34.249, 374.200 28.621, 366.500 24.928 C 358.800 21.235, 348.675 16.837, 344 15.155 C 339.325 13.472, 331.450 10.930, 326.500 9.505 C 321.550 8.081, 312.100 5.834, 305.500 4.512 C 298.900 3.190, 289.130 1.634, 283.789 1.055 C 278.449 0.475, 265.174 0.072, 254.289 0.160 C 243.405 0.248, 232.925 0.482, 231 0.679 M 228 23.491 C 222.225 24.192, 213.675 25.542, 209 26.491 C 204.325 27.440, 195.301 29.723, 188.946 31.565 C 182.592 33.407, 172.473 36.975, 166.460 39.494 C 160.447 42.013, 151.246 46.361, 146.014 49.156 C 140.781 51.952, 132.225 57.075, 127 60.542 C 121.775 64.009, 113.675 69.917, 109 73.670 C 104.325 77.423, 95.549 85.445, 89.497 91.497 C 83.445 97.549, 74.595 107.675, 69.831 114 C 65.066 120.325, 58.716 129.550, 55.719 134.500 C 52.723 139.450, 48.372 147.277, 46.052 151.894 C 43.731 156.511, 40.063 164.830, 37.899 170.382 C 35.736 175.933, 32.635 185.116, 31.009 190.789 C 29.383 196.462, 27.140 205.828, 26.026 211.603 C 24.912 217.377, 24 222.952, 24 223.992 C 24 225.409, 25.064 226.106, 28.250 226.776 C 30.587 227.267, 32.778 227.528, 33.118 227.357 C 33.458 227.185, 34.041 224.353, 34.413 221.063 C 34.786 217.772, 36.391 209.775, 37.980 203.290 C 39.570 196.806, 42.508 186.775, 44.509 181 C 46.511 175.225, 50.773 165.100, 53.981 158.500 C 57.189 151.900, 62.366 142.450, 65.485 137.500 C 68.605 132.550, 73.682 125.139, 76.767 121.032 C 79.852 116.924, 85.982 109.542, 90.388 104.628 C 94.795 99.713, 103.373 91.433, 109.450 86.228 C 115.528 81.023, 125.887 73.192, 132.472 68.826 C 139.056 64.460, 150.306 58.002, 157.472 54.475 C 164.637 50.947, 176.575 46.043, 184 43.576 C 191.425 41.110, 201.581 38.188, 206.569 37.084 C 211.557 35.979, 220.917 34.384, 227.370 33.538 C 233.823 32.692, 243.849 32, 249.651 32 L 260.200 32 263.600 35.400 C 266.027 37.827, 267 39.701, 267 41.950 C 267 43.682, 266.295 46.462, 265.434 48.128 C 264.563 49.813, 262.357 51.789, 260.466 52.579 C 258.592 53.362, 253.794 54.004, 249.782 54.008 C 245.777 54.013, 238.450 54.479, 233.500 55.044 C 228.550 55.609, 220 56.986, 214.500 58.104 C 209 59.223, 199.014 61.922, 192.308 64.103 C 185.603 66.283, 174.353 70.922, 167.308 74.411 C 160.264 77.900, 150.225 83.567, 145 87.004 C 139.775 90.441, 131.900 96.280, 127.500 99.980 C 123.100 103.681, 115.579 110.711, 110.788 115.604 C 105.996 120.497, 99.969 127.200, 97.394 130.500 C 94.819 133.800, 90.016 140.550, 86.722 145.500 C 83.427 150.450, 77.860 160.350, 74.351 167.500 C 70.842 174.650, 66.216 185.900, 64.070 192.500 C 61.924 199.100, 59.261 209, 58.151 214.500 C 57.042 220, 55.897 225.931, 55.606 227.679 C 55.136 230.509, 55.376 230.920, 57.789 231.421 C 59.280 231.731, 69.500 233.102, 80.500 234.467 C 91.500 235.833, 110.625 237.836, 123 238.918 C 135.375 240.001, 149.419 241.176, 154.209 241.530 L 162.919 242.173 163.615 239.336 C 163.998 237.776, 165.738 233.101, 167.480 228.946 C 169.223 224.792, 172.814 218.042, 175.461 213.946 C 178.107 209.851, 183.699 203.091, 187.886 198.924 C 192.074 194.757, 198.200 189.531, 201.500 187.311 C 204.800 185.090, 210.200 181.915, 213.500 180.254 C 216.800 178.594, 223.121 176.093, 227.546 174.698 C 231.971 173.303, 240.184 171.628, 245.796 170.975 C 253.667 170.060, 258.333 170.060, 266.204 170.975 C 271.816 171.628, 280.029 173.303, 284.454 174.698 C 288.879 176.093, 295.200 178.594, 298.500 180.254 C 301.800 181.915, 307.200 185.090, 310.500 187.311 C 313.800 189.531, 319.926 194.757, 324.114 198.924 C 328.301 203.091, 333.893 209.851, 336.539 213.946 C 339.186 218.042, 342.847 224.940, 344.675 229.275 C 346.504 233.611, 348.007 237.685, 348.015 238.329 C 348.024 238.973, 348.401 240.084, 348.854 240.799 C 349.522 241.851, 352.608 241.888, 365.089 240.993 C 373.565 240.386, 391.525 238.783, 405 237.432 C 418.475 236.081, 440.335 233.418, 453.577 231.514 C 466.820 229.610, 479.982 227.554, 482.827 226.944 C 486.814 226.089, 488 225.406, 488 223.968 C 488 222.941, 487.088 217.377, 485.974 211.603 C 484.860 205.828, 482.574 196.311, 480.895 190.453 C 479.216 184.596, 475.915 175.010, 473.560 169.151 C 471.205 163.293, 467.580 155.125, 465.503 151 C 463.426 146.875, 459.276 139.450, 456.280 134.500 C 453.284 129.550, 446.933 120.325, 442.166 114.001 C 437.400 107.676, 428.550 97.538, 422.500 91.472 C 416.450 85.406, 407.675 77.383, 403 73.644 C 398.325 69.905, 390.225 64.009, 385 60.542 C 379.775 57.075, 371.219 51.952, 365.986 49.156 C 360.754 46.361, 351.636 42.048, 345.724 39.571 C 339.813 37.094, 330.369 33.703, 324.738 32.035 C 319.107 30.366, 310.335 28.096, 305.244 26.990 C 300.153 25.885, 290.255 24.309, 283.250 23.490 C 276.244 22.670, 263.309 22.049, 254.506 22.108 C 245.703 22.168, 233.775 22.790, 228 23.491 M 245.854 193.111 C 242.198 193.582, 235.898 195.144, 231.854 196.582 C 227.809 198.019, 222.475 200.355, 220 201.772 C 217.525 203.188, 213.057 206.182, 210.070 208.424 C 207.084 210.666, 202.259 215.385, 199.348 218.911 C 196.437 222.437, 192.246 228.799, 190.036 233.048 C 187.825 237.298, 185.062 244.763, 183.896 249.637 C 182.155 256.915, 181.861 260.557, 182.256 270 C 182.628 278.918, 183.340 283.296, 185.426 289.500 C 186.905 293.900, 189.959 300.650, 192.212 304.500 C 194.552 308.499, 199.778 314.939, 204.404 319.523 C 210.234 325.301, 214.739 328.703, 220.500 331.680 C 224.900 333.954, 231.875 336.862, 236 338.143 C 242.165 340.057, 245.725 340.472, 256 340.472 C 266.275 340.472, 269.835 340.057, 276 338.143 C 280.125 336.862, 287.100 333.954, 291.500 331.680 C 297.261 328.703, 301.766 325.301, 307.596 319.523 C 312.222 314.939, 317.448 308.499, 319.788 304.500 C 322.041 300.650, 325.092 293.900, 326.569 289.500 C 328.599 283.450, 329.377 278.794, 329.760 270.397 C 330.138 262.098, 329.834 257.299, 328.556 251.397 C 327.615 247.053, 324.890 239.450, 322.499 234.500 C 320.109 229.550, 315.725 222.575, 312.756 219 C 309.788 215.425, 304.916 210.666, 301.930 208.424 C 298.943 206.182, 294.475 203.188, 292 201.772 C 289.525 200.355, 284.256 198.043, 280.291 196.634 C 276.326 195.225, 269.363 193.606, 264.817 193.036 C 260.272 192.466, 255.641 192.057, 254.526 192.126 C 253.412 192.196, 249.509 192.639, 245.854 193.111 M 247 213.625 C 245.625 213.891, 242.250 214.814, 239.500 215.675 C 236.750 216.537, 232.060 218.614, 229.078 220.292 C 226.097 221.970, 221.077 225.923, 217.924 229.076 C 214.056 232.944, 210.852 237.522, 208.072 243.154 C 204.944 249.490, 203.682 253.547, 202.829 260 C 201.890 267.112, 201.972 269.806, 203.336 276.500 C 204.232 280.900, 206.435 287.422, 208.232 290.992 C 210.164 294.830, 214.158 300.193, 218 304.109 C 221.894 308.078, 226.905 311.944, 230.500 313.754 C 233.800 315.416, 238.944 317.501, 241.932 318.388 C 245.096 319.327, 250.967 320, 256 320 C 261.033 320, 266.904 319.327, 270.068 318.388 C 273.056 317.501, 277.993 315.517, 281.040 313.979 C 284.087 312.441, 288.884 309.111, 291.701 306.579 C 294.518 304.046, 298.507 299.437, 300.565 296.337 C 302.622 293.236, 305.143 288.497, 306.166 285.806 C 307.188 283.114, 308.514 277.623, 309.112 273.603 C 309.901 268.303, 309.895 264.260, 309.091 258.897 C 308.351 253.954, 306.627 248.731, 303.896 243.154 C 301.127 237.502, 297.976 232.976, 294.134 229.134 C 291.013 226.013, 286.309 222.199, 283.681 220.659 C 281.053 219.119, 276.338 216.961, 273.202 215.864 C 269.685 214.634, 264.051 213.730, 258.500 213.505 C 253.550 213.304, 248.375 213.358, 247 213.625 M 0.428 256 C 0.428 268.375, 0.571 273.438, 0.747 267.250 C 0.922 261.063, 0.922 250.938, 0.747 244.750 C 0.571 238.563, 0.428 243.625, 0.428 256 M 247.500 236.338 C 245.300 237.067, 242.127 238.380, 240.448 239.255 C 238.770 240.130, 235.467 242.939, 233.109 245.498 C 230.751 248.056, 227.910 252.210, 226.795 254.730 C 225.387 257.913, 224.755 261.536, 224.722 266.604 C 224.682 272.849, 225.137 274.835, 227.887 280.423 C 229.951 284.614, 232.672 288.236, 235.494 290.549 C 237.911 292.529, 242.169 295.016, 244.955 296.075 C 247.904 297.195, 252.520 298, 256 298 C 259.480 298, 264.096 297.195, 267.045 296.075 C 269.831 295.016, 274.012 292.593, 276.334 290.689 C 278.657 288.786, 281.785 284.973, 283.285 282.217 C 284.785 279.461, 286.446 274.919, 286.976 272.125 C 287.619 268.736, 287.587 265.131, 286.879 261.303 C 286.295 258.146, 284.996 253.974, 283.991 252.032 C 282.987 250.089, 280.215 246.609, 277.833 244.298 C 275.450 241.987, 271.278 239.116, 268.561 237.918 C 265.845 236.720, 260.895 235.576, 257.561 235.376 C 254.175 235.173, 249.735 235.598, 247.500 236.338 M 22 252.782 L 22 257.698 34.250 259.812 C 40.987 260.975, 54.825 263.054, 65 264.431 C 75.175 265.809, 89.575 267.609, 97 268.430 C 104.425 269.252, 118.825 270.613, 129 271.455 C 139.175 272.296, 150.313 273.226, 153.750 273.520 L 160 274.056 160 269.134 L 160 264.212 150.750 263.544 C 145.662 263.177, 131.600 261.989, 119.500 260.904 C 107.400 259.818, 91.875 258.262, 85 257.446 C 78.125 256.630, 67.550 255.271, 61.500 254.426 C 55.450 253.582, 44.875 251.997, 38 250.904 C 31.125 249.810, 24.712 248.680, 23.750 248.391 C 22.249 247.940, 22 248.566, 22 252.782 M 487.896 248.438 C 487.655 248.679, 476.892 250.460, 463.979 252.396 C 451.065 254.333, 430.150 257.053, 417.500 258.440 C 404.850 259.828, 385.790 261.647, 375.145 262.482 C 364.500 263.317, 354.937 264, 353.895 264 C 352.288 264, 352 264.759, 352 269 C 352 271.750, 352.190 274, 352.421 274 C 352.653 274, 361.316 273.323, 371.671 272.495 C 382.027 271.667, 399.275 270.075, 410 268.958 C 420.725 267.841, 437.600 265.800, 447.500 264.424 C 457.400 263.047, 471.012 260.971, 477.750 259.810 L 490 257.698 490 252.849 C 490 250.182, 489.625 248, 489.167 248 C 488.708 248, 488.136 248.197, 487.896 248.438 M 23.499 285.245 C 23.877 288.135, 25.064 295.130, 26.137 300.788 C 27.209 306.446, 29.214 314.996, 30.591 319.788 C 31.969 324.580, 34.482 332.325, 36.175 337 C 37.869 341.675, 41.396 350.069, 44.013 355.654 C 46.629 361.238, 51.325 370.150, 54.449 375.456 C 57.572 380.763, 64.254 390.594, 69.297 397.303 C 74.341 404.011, 83.424 414.451, 89.484 420.503 C 95.543 426.555, 104.325 434.577, 109 438.330 C 113.675 442.083, 121.775 447.991, 127 451.458 C 132.225 454.925, 140.775 460.039, 146 462.823 C 151.225 465.608, 159.174 469.453, 163.665 471.368 C 168.155 473.284, 176.670 476.454, 182.586 478.414 C 188.503 480.373, 198.358 483.101, 204.487 484.476 C 210.616 485.851, 221.449 487.656, 228.559 488.488 C 235.670 489.319, 248.018 490, 256 490 C 263.982 490, 276.330 489.319, 283.441 488.488 C 290.551 487.656, 301.384 485.851, 307.513 484.476 C 313.642 483.101, 323.497 480.373, 329.414 478.414 C 335.330 476.454, 343.845 473.284, 348.335 471.368 C 352.826 469.453, 360.775 465.608, 366 462.823 C 371.225 460.039, 379.775 454.925, 385 451.458 C 390.225 447.991, 398.325 442.097, 403 438.360 C 407.675 434.623, 416.507 426.527, 422.628 420.369 C 428.748 414.211, 437.757 403.846, 442.647 397.336 C 447.538 390.826, 454.146 381.120, 457.332 375.766 C 460.518 370.412, 465.289 361.412, 467.934 355.766 C 470.580 350.120, 474.131 341.675, 475.825 337 C 477.518 332.325, 480.039 324.552, 481.426 319.727 C 482.813 314.903, 484.832 306.128, 485.911 300.227 C 486.991 294.327, 488.147 287.417, 488.480 284.871 L 489.086 280.242 484.375 281.122 C 481.784 281.606, 479.503 282.163, 479.306 282.360 C 479.109 282.557, 478.266 286.938, 477.432 292.095 C 476.598 297.253, 474.821 305.789, 473.484 311.064 C 472.146 316.340, 469.432 325.346, 467.452 331.078 C 465.472 336.810, 461.227 346.900, 458.019 353.500 C 454.811 360.100, 449.634 369.550, 446.515 374.500 C 443.395 379.450, 438.318 386.861, 435.233 390.968 C 432.148 395.076, 426.102 402.365, 421.798 407.165 C 417.493 411.966, 408.915 420.247, 402.736 425.567 C 396.556 430.888, 386.113 438.812, 379.528 443.176 C 372.944 447.541, 361.694 453.987, 354.528 457.501 C 347.363 461.016, 336.325 465.654, 330 467.809 C 323.675 469.965, 313.550 472.900, 307.500 474.332 C 301.450 475.764, 291.189 477.625, 284.699 478.468 C 278.208 479.311, 268.151 480, 262.349 480 L 251.800 480 248.400 476.600 C 245.973 474.173, 245 472.299, 245 470.050 C 245 468.318, 245.705 465.538, 246.566 463.872 C 247.437 462.187, 249.643 460.211, 251.534 459.421 C 253.445 458.623, 258.213 458, 262.417 458 C 266.531 458, 275.208 457.312, 281.699 456.471 C 288.189 455.630, 298 453.864, 303.500 452.547 C 309 451.230, 318.450 448.382, 324.500 446.218 C 330.550 444.054, 340.450 439.792, 346.500 436.747 C 352.550 433.702, 361.550 428.538, 366.500 425.272 C 371.450 422.005, 378.425 416.997, 382 414.142 C 385.575 411.287, 392.947 404.575, 398.383 399.226 C 403.818 393.877, 411.074 385.900, 414.506 381.500 C 417.938 377.100, 423.314 369.551, 426.452 364.725 C 429.591 359.899, 435.004 349.999, 438.481 342.725 C 441.959 335.451, 446.396 324.531, 448.341 318.458 C 450.286 312.386, 452.825 302.768, 453.983 297.086 C 455.140 291.404, 455.890 286.556, 455.647 286.314 C 455.405 286.071, 447.847 286.793, 438.853 287.917 C 429.859 289.041, 415.750 290.672, 407.500 291.540 C 399.250 292.409, 382.475 293.880, 370.222 294.810 L 347.944 296.500 344.678 304.015 C 342.882 308.148, 339.634 314.448, 337.459 318.015 C 335.284 321.582, 329.228 328.818, 324.002 334.097 C 317.800 340.360, 311.589 345.467, 306.118 348.800 C 301.507 351.609, 293.925 355.285, 289.267 356.971 C 284.610 358.656, 276.682 360.754, 271.650 361.634 C 265.148 362.770, 259.316 363.072, 251.500 362.676 C 245.450 362.370, 237.059 361.223, 232.854 360.127 C 228.648 359.031, 221.921 356.736, 217.905 355.027 C 213.889 353.318, 206.926 349.474, 202.433 346.484 C 197.940 343.494, 190.717 337.298, 186.382 332.713 C 182.047 328.129, 176.720 321.487, 174.544 317.954 C 172.367 314.420, 169.119 308.148, 167.324 304.015 L 164.061 296.500 153.781 295.765 C 148.126 295.361, 132.925 294.091, 120 292.943 C 107.075 291.795, 87.725 289.750, 77 288.397 C 66.275 287.045, 50.300 284.816, 41.500 283.444 C 32.700 282.071, 24.895 280.733, 24.155 280.469 C 23.086 280.088, 22.952 281.064, 23.499 285.245" stroke="none" fill="#ffffff" fill-rule="evenodd"/></svg>