<svg xmlns="http://www.w3.org/2000/svg" width="186" height="215" viewBox="0 0 186 215" version="1.1"><path d="M 83.500 6.897 C 79.100 9.512, 69.200 15.283, 61.500 19.723 C 44.097 29.757, 13.177 47.721, 6.500 51.677 L 1.500 54.640 1.241 107.697 L 0.983 160.753 19.741 171.584 C 30.059 177.541, 43.675 185.404, 50 189.058 C 56.325 192.712, 68.614 199.801, 77.310 204.811 L 93.120 213.920 121.810 197.307 C 161.892 174.097, 175.833 166.040, 180.750 163.245 L 185 160.829 184.983 107.665 L 184.966 54.500 173.733 48.082 C 167.555 44.551, 157.325 38.655, 151 34.977 C 104.771 8.101, 94 2.009, 92.830 2.072 C 92.098 2.111, 87.900 4.283, 83.500 6.897 M 49.500 31.902 L 6.500 56.777 6.241 107.370 L 5.982 157.963 9.741 160.321 C 20.725 167.212, 91.993 208, 93.048 208 C 93.729 208, 113.572 196.865, 137.143 183.255 L 180 158.510 180 107.778 L 180 57.046 177.750 55.646 C 172.030 52.087, 95.326 8.061, 94 7.576 C 93.130 7.257, 74.443 17.473, 49.500 31.902 M 82.446 20.824 C 76.976 24.028, 60.125 33.759, 45 42.449 C 29.875 51.138, 16.488 58.878, 15.250 59.647 L 13 61.046 13 107.854 L 13 154.662 15.711 156.081 C 17.201 156.861, 35.250 167.236, 55.820 179.137 L 93.218 200.773 103.859 194.576 C 109.711 191.168, 123.725 183.049, 135 176.535 C 146.275 170.020, 159.662 162.270, 164.750 159.312 L 174 153.935 174 107.667 L 174 61.399 157.750 52.012 C 148.813 46.850, 130.758 36.410, 117.629 28.813 C 104.499 21.216, 93.450 15, 93.075 15 C 92.700 15, 87.917 17.621, 82.446 20.824 M 98.024 37.250 C 98.037 38.487, 98.462 41.287, 98.969 43.472 C 99.475 45.656, 99.713 47.620, 99.497 47.836 C 99.282 48.052, 97.410 47.181, 95.339 45.901 L 91.573 43.573 93.833 47.230 L 96.093 50.887 92.863 49.961 C 88.710 48.770, 88.139 49.390, 91.413 51.535 C 95.277 54.067, 94.580 54.992, 88.750 55.070 C 80.009 55.187, 78.916 56.307, 85.392 58.508 C 91.328 60.526, 91.706 60.894, 89.800 62.800 C 88.867 63.733, 89.017 64, 90.474 64 C 92.262 64, 92.255 64.104, 90.323 66.250 C 86.811 70.152, 86.457 71.307, 89.026 70.492 C 90.969 69.875, 91.192 70.043, 90.547 71.635 C 88.882 75.747, 88.142 79.199, 87.534 85.696 L 86.898 92.500 88.965 88.500 C 90.103 86.300, 90.842 85.217, 90.608 86.093 C 89.621 89.792, 88.815 99.438, 89.550 98.741 C 89.991 98.324, 91.594 94.396, 93.113 90.013 C 96.948 78.944, 104 69.020, 104 74.691 C 104 76.206, 104.140 76.190, 105.345 74.542 C 106.588 72.843, 106.747 72.961, 107.436 76.101 L 108.182 79.500 109.341 75.622 L 110.500 71.743 113.338 75.622 C 114.926 77.791, 115.941 78.619, 115.642 77.500 C 115.347 76.400, 114.800 73.774, 114.426 71.665 L 113.745 67.829 117.833 69.915 C 123.167 72.636, 123.578 72.549, 120.977 69.250 L 118.810 66.500 121.655 65.973 C 123.930 65.551, 124.149 65.307, 122.750 64.754 C 120.155 63.729, 120.610 62.605, 124.250 61.048 L 127.500 59.658 122.500 59.053 L 117.500 58.449 124 55.242 L 130.500 52.035 123 52.621 L 115.500 53.207 118.750 49.806 C 122.724 45.648, 122.890 44.496, 119.250 46.348 C 117.737 47.117, 115.487 48.059, 114.250 48.441 C 112.167 49.083, 112 48.827, 112 44.991 L 112 40.847 109.411 43.923 C 107.987 45.615, 106.516 47, 106.142 47 C 105.768 47, 103.977 44.300, 102.163 41 C 100.349 37.700, 98.670 35, 98.432 35 C 98.195 35, 98.011 36.013, 98.024 37.250 M 104.018 55.796 C 100.816 56.931, 100.291 58.409, 102.055 61.326 C 103.832 64.263, 104.352 64.417, 107.250 62.866 C 111.069 60.822, 108.108 54.345, 104.018 55.796 M 48.462 63.500 C 46.943 67.075, 45.396 70, 45.024 70 C 44.653 70, 43.292 68.875, 42 67.500 C 38.818 64.113, 38.021 64.354, 38.694 68.500 C 39.349 72.540, 39.545 72.456, 34 70.500 C 28.201 68.454, 28.139 68.516, 32 72.500 L 35.392 76 28.446 76.077 L 21.500 76.153 27.458 78.890 C 32.048 80.998, 33.005 81.784, 31.626 82.313 C 30.642 82.691, 28.973 83, 27.918 83 C 24.878 83, 25.690 84.773, 29.069 85.515 C 32.082 86.177, 32.105 86.227, 30.319 88.252 C 28.541 90.268, 28.551 90.301, 30.750 89.751 C 33.455 89.073, 33.590 90.161, 31.250 93.767 L 29.500 96.463 34.293 93.664 L 39.087 90.865 38.467 96.182 L 37.846 101.500 40.062 98.185 L 42.278 94.870 44.058 98.685 L 45.838 102.500 45.919 98.615 L 46 94.730 48.025 97.304 C 50.221 100.096, 52.563 109.030, 53.557 118.410 C 54.346 125.849, 55.920 124.038, 56.087 115.500 C 56.188 110.334, 56.313 109.959, 56.986 112.801 C 58.201 117.931, 58.777 117.636, 59.544 111.492 C 60.336 105.153, 59.515 95.830, 57.898 92.809 C 56.348 89.913, 57.471 89.489, 61.989 91.264 C 66.721 93.122, 66.959 92.633, 63.250 88.673 C 61.340 86.633, 60.894 85.595, 61.792 85.271 C 62.738 84.930, 62.793 84.455, 61.997 83.496 C 61.150 82.476, 62.186 81.563, 66.705 79.349 L 72.500 76.511 65.250 76.212 C 57.907 75.909, 56.769 75.266, 59.524 72.980 C 61.601 71.257, 60.652 70.580, 58.086 71.954 C 55.487 73.345, 55.232 71.542, 57.557 68.223 C 59.514 65.429, 58.651 65.401, 54.813 68.133 L 51.818 70.266 52.159 63.631 C 52.346 59.982, 52.213 56.997, 51.863 56.998 C 51.512 56.999, 49.982 59.925, 48.462 63.500 M 128.259 82.750 C 128.455 87.838, 128.430 92, 128.202 92 C 127.974 92, 126.036 90.612, 123.894 88.916 C 119.430 85.380, 119.242 85.593, 122.020 91.040 C 124.298 95.504, 124.251 95.550, 119.468 93.551 C 115.379 91.843, 115.026 92.736, 118.500 96 C 122.582 99.835, 121.708 100.313, 112 99.554 C 107.050 99.167, 103 99.103, 103 99.412 C 103 99.722, 106.176 101.574, 110.059 103.530 L 117.117 107.084 114.809 109.009 L 112.500 110.933 115 110.992 C 117.389 111.047, 117.312 111.227, 113.250 115.061 C 110.912 117.267, 109 119.250, 109 119.466 C 109 119.683, 110.460 119.442, 112.243 118.930 C 114.027 118.419, 115.639 118, 115.825 118 C 116.011 118, 115.272 119.463, 114.182 121.250 C 111.829 125.111, 107.989 138.405, 108.026 142.564 C 108.052 145.448, 108.086 145.429, 109.945 141.500 C 112.315 136.492, 112.352 136.805, 110.459 145.877 C 109.613 149.934, 109.163 153.497, 109.460 153.794 C 110.236 154.569, 110.165 154.699, 116.419 140.973 C 119.557 134.083, 123.639 126.658, 125.488 124.473 L 128.850 120.500 130.261 123.813 L 131.672 127.126 133.284 124.813 C 134.863 122.546, 134.898 122.600, 135.015 127.500 C 135.141 132.721, 135.534 132.463, 138.049 125.515 L 139.129 122.531 141.814 127.438 C 144.204 131.804, 144.533 132.072, 144.798 129.864 C 144.962 128.499, 144.650 125.396, 144.104 122.968 C 143.559 120.541, 143.224 118.442, 143.361 118.305 C 143.498 118.168, 145.986 119.656, 148.889 121.611 C 151.792 123.566, 154.343 124.990, 154.557 124.776 C 154.772 124.562, 153.818 122.724, 152.437 120.693 C 149.826 116.850, 149.893 116.688, 154 116.920 L 156.500 117.062 154.229 115.103 C 151.654 112.883, 152.003 112.465, 157.258 111.479 C 162.273 110.539, 161.980 109.374, 156.523 108.556 C 154.061 108.187, 151.805 107.494, 151.510 107.017 C 151.216 106.540, 153.343 105.430, 156.237 104.551 C 159.132 103.672, 162.850 102.325, 164.500 101.557 C 167.323 100.245, 166.938 100.155, 158 100.040 L 148.500 99.918 152.750 96.073 C 155.088 93.958, 157 91.993, 157 91.706 C 157 91.418, 154.300 92.001, 151 93 C 147.700 93.999, 144.958 94.520, 144.907 94.158 C 144.856 93.796, 144.896 91.500, 144.995 89.055 L 145.175 84.609 140.999 88.382 C 138.702 90.458, 136.655 91.988, 136.451 91.784 C 136.247 91.580, 134.239 87.383, 131.990 82.456 L 127.901 73.500 128.259 82.750 M 45.015 76.821 C 44.994 78.694, 42.456 81, 40.416 81 C 38.806 81, 38.802 81.123, 40.347 82.831 C 41.259 83.838, 41.807 84.859, 41.567 85.100 C 41.326 85.341, 42.383 86.257, 43.915 87.136 C 46.472 88.604, 46.877 88.602, 48.862 87.104 C 51.212 85.332, 52.570 81, 50.776 81 C 50.166 81, 49.940 80.727, 50.273 80.393 C 51.121 79.545, 48.692 77.093, 47.638 77.733 C 47.164 78.021, 46.384 77.636, 45.904 76.878 C 45.208 75.780, 45.028 75.768, 45.015 76.821 M 135.116 99.372 C 135.020 100.921, 134.740 101.029, 133.500 100 C 132.271 98.980, 132 99.049, 132 100.378 C 132 102.277, 131.547 102.363, 128.934 100.965 C 126.932 99.893, 126.078 101.312, 128.008 102.505 C 128.562 102.848, 128.817 104.224, 128.574 105.564 C 128.331 106.904, 128.563 108, 129.089 108 C 129.616 108, 129.332 109.090, 128.458 110.423 C 126.960 112.709, 126.979 112.818, 128.786 112.346 C 129.840 112.070, 131.408 112.551, 132.271 113.413 C 133.133 114.276, 133.988 114.564, 134.170 114.053 C 134.351 113.541, 135.625 112.939, 137 112.715 C 141.837 111.926, 143.191 110.936, 141.776 109.221 C 140.767 107.999, 140.760 107.587, 141.742 107.257 C 142.611 106.964, 142.697 106.302, 142.027 105.051 C 141.501 104.067, 141.392 102.907, 141.785 102.472 C 142.178 102.037, 141.662 101.983, 140.639 102.352 C 139.032 102.931, 138.863 102.646, 139.402 100.261 C 139.908 98.028, 139.824 97.835, 138.964 99.250 C 138.379 100.213, 137.506 101, 137.024 101 C 136.541 101, 135.941 100.213, 135.689 99.250 C 135.280 97.683, 135.220 97.696, 135.116 99.372 M 76.500 107.122 C 74.300 107.629, 72.050 108.624, 71.500 109.334 C 70.950 110.043, 69.648 110.944, 68.607 111.336 C 63.948 113.087, 68.575 112.861, 77.856 110.885 C 88.079 108.708, 89.881 107.737, 85.750 106.630 C 82.961 105.883, 81.557 105.958, 76.500 107.122 M 91 111.639 C 89.625 112.573, 88.323 113.475, 88.107 113.644 C 87.892 113.813, 88.274 114.625, 88.957 115.448 C 90.048 116.763, 90.673 116.675, 94.091 114.723 C 96.232 113.500, 97.839 112.050, 97.663 111.500 C 97.116 109.789, 93.616 109.862, 91 111.639 M 78.088 111.840 C 76.234 112.103, 76.003 112.389, 77.088 113.075 C 78.062 113.692, 77.317 113.974, 74.684 113.985 C 72.586 113.993, 69.998 114.466, 68.934 115.035 C 66.540 116.316, 66.217 120.515, 68.582 119.607 C 69.452 119.273, 72.827 119, 76.082 119 C 80.730 119, 82 118.671, 82 117.469 C 82 116.626, 81.287 115.664, 80.416 115.329 C 79.260 114.886, 79.158 114.521, 80.038 113.976 C 81.949 112.796, 80.734 111.466, 78.088 111.840 M 86.473 111.956 C 86.798 112.482, 87.725 112.659, 88.532 112.349 C 90.599 111.556, 90.356 111, 87.941 111 C 86.809 111, 86.148 111.430, 86.473 111.956 M 82.532 112.949 C 82.209 113.470, 83.042 116.170, 84.383 118.949 C 85.723 121.727, 86.410 124, 85.910 124 C 85.409 124, 85 124.697, 85 125.550 C 85 127.754, 82.141 133, 80.939 133 C 80.269 133, 80.277 132.350, 80.965 131.066 C 81.534 130.002, 82 128.224, 82 127.116 C 82 125.370, 81.229 125.051, 76.250 124.739 L 70.500 124.378 76.823 124.189 C 82.250 124.027, 83.100 123.752, 82.815 122.250 C 82.414 120.138, 78.657 119.562, 71.280 120.484 C 66.960 121.024, 66 121.495, 66 123.072 C 66 124.370, 66.735 125.038, 68.250 125.116 C 69.943 125.203, 70.067 125.345, 68.750 125.689 C 66.451 126.290, 66.529 126.843, 69.533 131.263 C 71.826 134.638, 72.436 134.962, 75.977 134.682 C 78.128 134.512, 79.662 134.739, 79.385 135.186 C 79.108 135.634, 77.810 136, 76.500 136 C 75.190 136, 73.870 136.401, 73.567 136.891 C 72.620 138.424, 76.940 146.846, 79.011 147.503 C 81.576 148.318, 83.746 147.088, 81.857 145.890 C 79.691 144.518, 82.872 144.907, 87 146.519 L 90.500 147.886 87.154 147.693 C 84.612 147.546, 83.417 148.077, 82.183 149.898 L 80.559 152.297 85.746 151.798 C 88.599 151.524, 91.664 150.694, 92.557 149.953 C 94.054 148.710, 94.055 148.513, 92.558 147.419 C 91.128 146.373, 91.235 146.158, 93.468 145.597 C 94.861 145.248, 96 144.520, 96 143.981 C 96 142.739, 95.561 142.752, 90.992 144.120 C 88.492 144.869, 86.670 144.915, 85.494 144.257 C 84.099 143.476, 84.538 143.266, 87.618 143.242 C 89.753 143.225, 92.737 142.725, 94.250 142.130 C 96.615 141.201, 97 140.487, 97 137.025 C 97 134.811, 96.550 133, 96 133 C 95.450 133, 95 132.395, 95 131.655 C 95 130.915, 94.100 129.495, 93 128.500 C 91.900 127.505, 91 126.085, 91 125.345 C 91 124.605, 90.438 123.999, 89.750 123.997 C 88.970 123.995, 88.482 122.511, 88.453 120.050 C 88.392 114.922, 84.326 110.045, 82.532 112.949 M 93.263 116.312 C 90.184 118.394, 88.903 121, 90.959 121 C 92.378 121, 101 115.639, 101 114.757 C 101 113.253, 96.430 114.172, 93.263 116.312 M 63.035 118.934 C 61.773 121.293, 61.654 127.332, 62.885 126.571 C 63.371 126.271, 63.983 124.781, 64.243 123.262 C 64.504 121.743, 65.054 119.713, 65.466 118.750 C 66.500 116.331, 64.341 116.495, 63.035 118.934 M 96.230 119.591 C 91.502 122.410, 90.961 124.508, 94.094 127.871 C 95.981 129.896, 96.401 129.978, 98.334 128.694 C 100.772 127.075, 102.598 120.890, 101.314 118.597 C 100.576 117.278, 99.880 117.414, 96.230 119.591 M 63.611 127.542 C 62.203 128.572, 62.062 129.247, 62.921 130.852 C 63.514 131.961, 64 134.383, 64 136.234 C 64 141.065, 65.630 142.332, 69.161 140.246 C 70.723 139.323, 72 138.270, 72 137.906 C 72 137.541, 70.511 134.769, 68.690 131.746 C 65.739 126.845, 65.188 126.389, 63.611 127.542 M 98.848 130.250 C 97.645 131.230, 97.441 132.790, 97.906 137.469 C 98.493 143.370, 98.518 143.410, 100.099 140.969 C 102.151 137.800, 103.232 129, 101.568 129 C 100.916 129, 99.692 129.563, 98.848 130.250 M 81.550 137.895 C 82.073 138.387, 84.075 139.058, 86 139.386 L 89.500 139.982 86 138.567 C 81.816 136.876, 80.210 136.633, 81.550 137.895 M 90.333 138.667 C 90.700 139.033, 91.300 139.033, 91.667 138.667 C 92.033 138.300, 91.733 138, 91 138 C 90.267 138, 89.967 138.300, 90.333 138.667 M 68.224 141.782 C 66.467 143.145, 66.219 143.819, 67.135 144.735 C 68.052 145.652, 68.972 145.539, 71.171 144.240 C 74.092 142.514, 74.434 140.688, 71.917 140.258 C 71.138 140.124, 69.476 140.810, 68.224 141.782 M 81.333 142.667 C 81.700 143.033, 82.300 143.033, 82.667 142.667 C 83.033 142.300, 82.733 142, 82 142 C 81.267 142, 80.967 142.300, 81.333 142.667 M 70.965 145.542 C 70.120 146.561, 70.021 147.421, 70.675 148.075 C 72.131 149.531, 75 148.084, 75 145.893 C 75 143.609, 72.733 143.412, 70.965 145.542 M 91 152.248 C 89.075 153.210, 86.040 153.998, 84.256 153.998 C 81.707 154, 81.084 154.375, 81.346 155.750 C 83.602 167.571, 83.869 168.006, 88.872 167.985 C 93.524 167.966, 97.422 165.994, 97.785 163.475 C 97.941 162.389, 97.266 159.025, 96.285 156 L 94.500 150.500 91 152.248 M 95.500 167.594 C 93.850 168.318, 90.813 168.930, 88.750 168.955 C 86.363 168.984, 85 169.472, 85 170.300 C 85 174.623, 93.613 175.478, 97.545 171.545 C 101.601 167.489, 100.517 165.394, 95.500 167.594 M 100.035 170.409 C 99.485 171.854, 97.874 173.478, 96.453 174.018 C 93.097 175.294, 86.293 175.283, 85.500 174 C 84.364 172.161, 82.857 172.973, 83.180 175.250 C 84.006 181.060, 100.695 179.183, 102.837 173.039 C 103.619 170.794, 103.529 169.854, 102.443 168.953 C 101.309 168.011, 100.838 168.296, 100.035 170.409 M 103.400 174.399 C 102.173 177.598, 95.277 180.195, 88.974 179.833 C 83.880 179.540, 83.296 179.694, 84.068 181.132 C 85.910 184.564, 93.194 185.003, 99.650 182.072 C 102.868 180.610, 103.956 179.477, 104.495 177.022 C 105.250 173.584, 104.449 171.666, 103.400 174.399" stroke="none" fill="#f29504" fill-rule="evenodd"/></svg>