<svg xmlns="http://www.w3.org/2000/svg" width="186" height="215" viewBox="0 0 186 215" version="1.1"><path d="M 70 14.705 C 58.175 21.600, 40.625 31.792, 31 37.354 C 21.375 42.916, 10.800 49.100, 7.500 51.095 L 1.500 54.722 1.241 107.738 L 0.983 160.753 19.741 171.584 C 30.059 177.541, 43.675 185.404, 50 189.058 C 56.325 192.712, 68.618 199.803, 77.317 204.815 L 93.135 213.929 121.817 197.315 C 163.890 172.946, 176.006 165.941, 180.750 163.245 L 185 160.829 184.983 107.665 L 184.966 54.500 173.733 48.082 C 167.555 44.551, 157.325 38.655, 151 34.977 C 104.717 8.070, 94 2.010, 92.830 2.084 C 92.098 2.130, 81.825 7.809, 70 14.705 M 49.500 31.902 L 6.500 56.777 6.241 107.370 L 5.982 157.963 9.741 160.321 C 20.725 167.212, 91.993 208, 93.048 208 C 93.729 208, 113.572 196.865, 137.143 183.255 L 180 158.510 180 107.778 L 180 57.046 177.750 55.646 C 172.030 52.087, 95.326 8.061, 94 7.576 C 93.130 7.257, 74.443 17.473, 49.500 31.902 M 82.446 20.824 C 76.976 24.028, 60.125 33.759, 45 42.449 C 29.875 51.138, 16.488 58.878, 15.250 59.647 L 13 61.046 13 107.854 L 13 154.662 15.711 156.081 C 17.201 156.861, 35.250 167.236, 55.820 179.137 L 93.218 200.773 103.859 194.576 C 109.711 191.168, 123.725 183.049, 135 176.535 C 146.275 170.020, 159.662 162.270, 164.750 159.312 L 174 153.935 174 107.667 L 174 61.399 157.750 52.012 C 148.813 46.850, 130.758 36.410, 117.629 28.813 C 104.499 21.216, 93.450 15, 93.075 15 C 92.700 15, 87.917 17.621, 82.446 20.824 M 96.750 43.729 C 95.787 43.959, 95 44.533, 95 45.006 C 95 46.080, 97.065 46.673, 103.750 47.522 C 107.351 47.978, 109 47.836, 109 47.069 C 109 45.186, 100.433 42.850, 96.750 43.729 M 92.170 48.838 C 91.424 49.331, 90.985 50.969, 91.170 52.569 C 91.572 56.041, 93.651 56.761, 103.683 56.900 C 110.165 56.990, 110.931 56.794, 111.537 54.882 C 112.695 51.235, 109.431 49.283, 101 48.583 C 96.875 48.240, 92.901 48.355, 92.170 48.838 M 74 58.469 L 67.500 60.666 66.751 79.083 C 65.858 101.049, 66.046 103.258, 68.239 96.500 C 70.185 90.500, 70.062 89.545, 70.938 117.500 C 71.543 136.821, 71.709 138.240, 73.017 135.250 C 73.799 133.463, 74.723 132, 75.072 132 C 75.420 132, 76.289 136.741, 77.004 142.535 C 77.719 148.329, 78.646 153.281, 79.063 153.539 C 79.481 153.797, 80.120 152.248, 80.484 150.096 C 80.847 147.945, 81.697 145.429, 82.373 144.505 C 83.388 143.116, 83.982 145.570, 85.800 158.671 C 87.010 167.386, 88 175.498, 88 176.699 C 88 177.900, 88.395 179.126, 88.877 179.424 C 89.360 179.723, 91.021 173.224, 92.569 164.983 C 95.277 150.568, 96.889 146.391, 97.100 153.250 C 97.155 155.037, 97.543 157.625, 97.962 159 C 98.957 162.261, 99.418 160.974, 101.494 149.154 C 103.880 135.568, 104.553 134.328, 105.413 141.931 C 105.807 145.417, 106.482 147.872, 106.912 147.385 C 107.342 146.898, 108.732 141.438, 110.001 135.250 C 111.270 129.063, 112.447 124, 112.616 124 C 112.785 124, 113.420 125.845, 114.027 128.101 C 114.635 130.356, 115.358 131.975, 115.635 131.698 C 115.912 131.421, 117.041 125.642, 118.144 118.856 C 119.246 112.071, 120.309 106.358, 120.505 106.162 C 120.701 105.966, 121.403 108.560, 122.065 111.927 C 122.728 115.294, 123.659 118.289, 124.135 118.583 C 124.613 118.879, 125 108.150, 125 94.618 C 125 79.249, 124.625 69.886, 123.993 69.496 C 122.647 68.664, 122.649 68.653, 119.141 91 C 116.347 108.795, 115.855 110.695, 113.506 112.731 C 111.528 114.446, 110.535 116.877, 109.216 123.231 C 107.688 130.593, 107.465 131.061, 107.183 127.500 C 106.756 122.106, 105.863 121.504, 101.884 123.930 C 100.023 125.064, 97.086 125.994, 95.358 125.996 C 91.778 126.001, 91.562 126.498, 90.454 137.295 C 90.071 141.033, 89.608 143.941, 89.425 143.758 C 89.242 143.576, 88.589 139.168, 87.974 133.963 C 87.203 127.441, 86.352 124.112, 85.237 123.250 C 82.844 121.403, 82 121.713, 82 124.441 C 82 125.784, 81.611 127.122, 81.136 127.416 C 80.660 127.710, 79.959 124.106, 79.578 119.407 C 79.196 114.707, 78.607 110.139, 78.267 109.254 C 77.732 107.860, 77.539 107.902, 76.809 109.573 C 76.343 110.640, 76.206 100.121, 76.502 86 C 77.013 61.563, 77.124 60.426, 79.159 58.725 C 80.328 57.749, 81.107 56.797, 80.892 56.611 C 80.676 56.424, 77.575 57.260, 74 58.469 M 93 58.263 C 93 61.291, 106.777 63.236, 107.726 60.341 C 107.975 59.581, 106.111 59.045, 102.303 58.781 C 99.111 58.560, 95.713 58.021, 94.750 57.583 C 93.514 57.020, 93 57.220, 93 58.263 M 82.271 60.811 C 80.266 62.085, 77.958 104, 79.893 104 C 81.444 104, 81.882 101.460, 83.029 85.785 C 83.645 77.378, 84.535 69.600, 85.006 68.500 C 85.478 67.400, 86.041 65.037, 86.259 63.250 C 86.664 59.918, 85.142 58.988, 82.271 60.811 M 88.200 61.200 C 87.540 61.860, 87 62.914, 87 63.542 C 87 65.159, 93.819 67, 99.809 67 C 103.892 67, 105.186 67.427, 106.413 69.179 L 107.939 71.358 110.226 68.890 C 114.279 64.517, 112.866 63.006, 104.677 62.956 C 100.730 62.932, 95.700 62.264, 93.500 61.471 C 91.300 60.679, 89.478 60.023, 89.450 60.015 C 89.422 60.007, 88.860 60.540, 88.200 61.200 M 114.473 65.914 C 114.942 67.394, 114.700 68, 113.640 68 C 112.818 68, 111.209 69.190, 110.065 70.644 L 107.985 73.289 106.125 71.144 C 104.740 69.547, 103.121 69, 99.782 69 C 97.316 69, 93.840 68.492, 92.057 67.870 C 89.275 66.900, 88.558 67.007, 87.004 68.620 C 85.513 70.167, 84.988 73.474, 84.040 87.287 C 83.407 96.519, 83.171 104.964, 83.517 106.054 C 84.328 108.610, 90.094 111, 95.448 111 C 102.116 111, 103.541 108.673, 104.884 95.581 C 105.501 89.575, 106.291 84.400, 106.641 84.081 C 107.276 83.501, 106.649 92.911, 105.404 102.647 C 104.808 107.308, 104.958 107.907, 106.998 108.999 C 108.942 110.039, 109.558 109.882, 111.500 107.852 C 113.392 105.875, 114.186 102.593, 116.485 87.258 C 117.990 77.226, 118.971 68.368, 118.667 67.574 C 118.362 66.780, 117.145 65.613, 115.962 64.980 C 114.027 63.944, 113.877 64.038, 114.473 65.914 M 88.441 72.095 C 88.058 72.716, 88.318 73.578, 89.020 74.012 C 89.959 74.593, 90.117 76.475, 89.616 81.150 C 89.243 84.643, 88.742 90.425, 88.504 94 C 88.141 99.469, 88.212 99.866, 88.953 96.500 C 90.502 89.466, 91.358 72.339, 90.196 71.621 C 89.614 71.262, 88.824 71.475, 88.441 72.095 M 146 74.389 C 146 75.153, 146.787 76.742, 147.750 77.920 C 149.384 79.920, 149.649 79.956, 151.750 78.474 C 152.988 77.601, 154 76.237, 154 75.443 C 154 73.749, 152.829 73.571, 151.358 75.042 C 150.634 75.766, 149.923 75.612, 149.035 74.542 C 147.443 72.624, 146 72.552, 146 74.389 M 100.345 75.543 C 100.019 76.392, 100.034 77.367, 100.376 77.710 C 100.719 78.053, 101 77.808, 101 77.167 C 101 76.525, 101.391 76, 101.869 76 C 102.347 76, 102.589 77.912, 102.408 80.250 L 102.078 84.500 103.067 80.543 C 103.610 78.366, 103.832 76.004, 103.559 75.293 C 102.880 73.524, 101.066 73.665, 100.345 75.543 M 107.286 78.500 C 107.294 81.250, 107.488 82.256, 107.718 80.736 C 107.947 79.216, 107.941 76.966, 107.704 75.736 C 107.467 74.506, 107.279 75.750, 107.286 78.500 M 87.300 80 C 87.300 83.025, 87.487 84.263, 87.716 82.750 C 87.945 81.237, 87.945 78.763, 87.716 77.250 C 87.487 75.737, 87.300 76.975, 87.300 80 M 135 79 C 135 80.333, 134.333 81, 133 81 C 131.889 81, 131 81.667, 131 82.500 C 131 83.548, 132.056 84, 134.500 84 C 137.833 84, 138 83.833, 138 80.500 C 138 78.056, 137.548 77, 136.500 77 C 135.667 77, 135 77.889, 135 79 M 98.761 83.500 C 98.355 85.700, 98.066 89.300, 98.121 91.500 L 98.219 95.500 99.128 91 C 99.628 88.525, 99.916 84.925, 99.768 83 L 99.500 79.500 98.761 83.500 M 147.200 82.200 C 146.540 82.860, 146 84.210, 146 85.200 C 146 87.391, 144.679 87.524, 143 85.500 C 142.315 84.675, 141.162 84, 140.437 84 C 137.969 84, 137.784 86.142, 140.045 88.548 C 142.204 90.846, 142.219 90.977, 140.400 91.629 C 136.947 92.867, 135.872 94.141, 137.065 95.578 C 137.851 96.526, 138.848 96.628, 140.643 95.946 C 144.034 94.656, 143.944 94.570, 143.306 98.500 C 142.806 101.583, 142.992 102, 144.869 102 C 146.462 102, 147 101.383, 147 99.559 C 147 96.242, 148.369 95.645, 150.521 98.024 C 151.505 99.111, 152.704 100, 153.186 100 C 155.043 100, 155.156 96.828, 153.371 94.817 C 152.203 93.500, 151.916 92.561, 152.608 92.318 C 157.780 90.498, 158.034 86.394, 152.905 87.521 C 150.121 88.132, 150 88.010, 150 84.579 C 150 80.841, 149.221 80.179, 147.200 82.200 M 160.050 83.906 C 158.408 86.974, 158.795 88.586, 161.464 89.802 C 164.307 91.097, 166.366 89.344, 163.733 87.871 C 162.842 87.372, 162.396 86.203, 162.680 85.115 C 163.372 82.470, 161.323 81.528, 160.050 83.906 M 86.310 91.500 C 86.315 94.800, 86.502 96.029, 86.725 94.232 C 86.947 92.435, 86.943 89.735, 86.715 88.232 C 86.486 86.729, 86.304 88.200, 86.310 91.500 M 100.500 94 C 100.105 98.463, 99.996 102.330, 100.259 102.592 C 100.521 102.854, 101.055 99.413, 101.444 94.944 C 101.834 90.476, 101.943 86.609, 101.686 86.352 C 101.429 86.095, 100.895 89.537, 100.500 94 M 128.521 93.966 C 128.165 94.543, 128.610 95.297, 129.511 95.643 C 130.656 96.082, 130.970 96.982, 130.555 98.636 C 130.150 100.252, 130.391 101, 131.320 101 C 132.959 101, 135.425 95.999, 134.298 94.960 C 132.765 93.547, 129.163 92.927, 128.521 93.966 M 97.286 100.500 C 97.294 103.250, 97.488 104.256, 97.718 102.736 C 97.947 101.216, 97.941 98.966, 97.704 97.736 C 97.467 96.506, 97.279 97.750, 97.286 100.500 M 85.150 102.333 C 84.982 106.629, 87.325 107.163, 87.733 102.922 C 87.943 100.737, 87.881 100.696, 87.101 102.500 C 86.329 104.286, 86.186 104.178, 85.768 101.500 C 85.345 98.793, 85.285 98.874, 85.150 102.333 M 42.390 101.743 C 41.436 103.256, 41.068 103.301, 39.603 102.085 C 38.281 100.989, 37.653 100.948, 36.708 101.896 C 35.763 102.844, 36.045 103.528, 38 105.032 C 39.375 106.090, 41.037 106.966, 41.693 106.978 C 43.083 107.004, 46 103.143, 46 101.277 C 46 99.415, 43.669 99.715, 42.390 101.743 M 156 103.583 C 156 107.533, 158.256 108.003, 158.820 104.172 C 159.021 102.803, 159.853 102, 161.070 102 C 162.131 102, 163 101.550, 163 101 C 163 100.450, 161.425 100, 159.500 100 C 156.151 100, 156 100.155, 156 103.583 M 99.079 104.750 C 99.036 105.438, 98.235 106, 97.300 106 C 95.978 106, 95.867 106.267, 96.800 107.200 C 98.286 108.686, 100.504 106.874, 99.691 104.838 C 99.302 103.862, 99.137 103.838, 99.079 104.750 M 141.223 105.557 C 138.357 107.563, 138.343 109.405, 141.198 108.658 C 142.407 108.342, 143.993 108.579, 144.722 109.184 C 146.690 110.818, 147.485 109.361, 146.184 106.504 C 144.851 103.579, 144.219 103.458, 141.223 105.557 M 55.625 108.125 C 54.668 112.911, 54.730 113, 59 113 C 61.889 113, 63 112.583, 63 111.500 C 63 110.667, 62.111 110, 61 110 C 59.533 110, 59 109.333, 59 107.500 C 59 103.894, 56.374 104.380, 55.625 108.125 M 82.353 110.905 C 83.151 115.029, 84.402 116.639, 88.426 118.720 C 92.552 120.854, 98.486 120.482, 102.341 117.849 C 105.624 115.605, 108 113.118, 108 111.926 C 108 110.418, 103.419 110.150, 101.308 111.534 C 97.121 114.277, 88.505 113.072, 83.597 109.057 C 81.780 107.570, 81.724 107.652, 82.353 110.905 M 41.688 109.646 C 41.309 110.024, 41 112.049, 41 114.145 C 41 117.822, 40.913 117.918, 38.564 116.847 C 37.224 116.237, 35.424 116.007, 34.564 116.337 C 32.039 117.306, 32.764 119.659, 36 121 C 39.529 122.462, 39.694 123.085, 37 124.768 C 34.540 126.304, 34.318 130, 36.686 130 C 37.613 130, 39.358 129.073, 40.563 127.941 L 42.755 125.881 43.405 129.344 C 44.528 135.333, 48.770 134.779, 48.135 128.726 C 47.850 126.009, 47.929 125.965, 51.922 126.604 C 55.568 127.186, 56 127.040, 56 125.226 C 56 123.844, 54.985 122.842, 52.822 122.088 L 49.645 120.980 52.432 118.071 C 56.704 113.612, 53.721 110.974, 48.861 114.913 L 46.500 116.827 45.490 113.244 C 44.493 109.702, 43.022 108.311, 41.688 109.646 M 26.401 112.460 C 26.860 114.289, 26.512 115.191, 25.046 115.975 C 23.949 116.563, 23.314 117.654, 23.614 118.436 C 24.036 119.537, 24.789 119.621, 27.079 118.823 C 30.934 117.479, 31.434 116.463, 29.975 112.940 C 28.445 109.246, 25.495 108.850, 26.401 112.460 M 61.250 124.660 C 59.462 125.400, 58 126.162, 58 126.354 C 58 126.545, 58.494 128.119, 59.098 129.851 C 60.426 133.660, 63.299 134.194, 62.822 130.543 C 62.630 129.077, 63.198 127.565, 64.231 126.793 C 67.122 124.634, 64.993 123.110, 61.250 124.660 M 26 131.500 C 26 132.333, 26.889 133, 28 133 C 29.467 133, 30 133.667, 30 135.500 C 30 138.800, 32.761 138.802, 33.589 135.502 C 34.585 131.532, 33.455 130, 29.531 130 C 27.059 130, 26 130.450, 26 131.500 M 44.615 138.465 C 43.727 139.820, 43 141.395, 43 141.965 C 43 143.589, 45.150 143.177, 46.532 141.288 C 47.604 139.820, 48.020 139.771, 49.434 140.945 C 50.727 142.018, 51.347 142.052, 52.292 141.104 C 53.237 140.156, 52.955 139.472, 51 137.968 C 47.695 135.425, 46.548 135.514, 44.615 138.465" stroke="none" fill="#f29504" fill-rule="evenodd"/></svg>