<svg xmlns="http://www.w3.org/2000/svg" width="233" height="245" viewBox="0 0 233 245" version="1.1"><path d="M 109 27.938 C 104.325 30.622, 83.850 42.452, 63.500 54.228 L 26.500 75.638 26.241 128.245 L 25.982 180.851 28.741 182.773 C 38.005 189.226, 117.318 234.150, 118.774 233.769 C 119.725 233.521, 136.703 223.948, 156.502 212.498 C 176.301 201.048, 196.441 189.419, 201.259 186.657 L 210.017 181.635 209.759 128.637 L 209.500 75.640 204.500 72.690 C 186.101 61.837, 118.506 23.005, 118.054 23.029 C 117.749 23.045, 113.675 25.254, 109 27.938 M 112.500 30.831 C 109.750 32.368, 103.225 36.112, 98 39.151 C 71.504 54.562, 60.203 61.107, 46.500 68.975 L 31.500 77.589 31.241 128.581 L 30.982 179.573 42.241 186.032 C 48.433 189.585, 68.023 200.892, 85.773 211.159 L 118.047 229.827 129.273 223.323 C 135.448 219.746, 142.750 215.549, 145.500 213.997 C 148.250 212.445, 162.875 203.988, 178 195.204 L 205.500 179.233 205.759 129.280 C 206.001 82.647, 205.901 79.228, 204.259 77.851 C 202.794 76.622, 184.433 65.718, 172.637 59.071 C 170.911 58.099, 158.169 50.710, 144.319 42.652 C 130.469 34.593, 118.769 28.008, 118.319 28.018 C 117.869 28.028, 115.250 29.294, 112.500 30.831 M 105 43.318 C 98.125 47.340, 83.275 55.961, 72 62.476 C 60.725 68.991, 48.458 76.103, 44.740 78.281 L 37.980 82.240 38.240 128.812 L 38.500 175.385 51.500 183.034 C 84.008 202.161, 117.045 221, 118.081 221 C 118.706 221, 129.406 215.104, 141.858 207.898 C 154.311 200.692, 172.029 190.455, 181.231 185.148 L 197.963 175.500 197.731 128.582 L 197.500 81.664 190.349 77.441 C 186.417 75.118, 180.342 71.641, 176.849 69.714 C 173.357 67.787, 163.121 61.888, 154.102 56.605 C 145.083 51.322, 137.595 47, 137.461 47 C 137.327 47, 133.029 44.525, 127.910 41.500 C 122.791 38.475, 118.355 36.001, 118.051 36.003 C 117.748 36.004, 111.875 39.296, 105 43.318 M 120.510 65.369 C 118.775 66.638, 119.053 66.846, 123.858 67.876 C 130.379 69.275, 134 69.310, 134 67.975 C 134 65.519, 123.167 63.426, 120.510 65.369 M 117.636 69.277 C 116.431 70.158, 115.940 71.569, 116.164 73.510 C 116.573 77.055, 118.601 77.761, 128.781 77.900 C 136.808 78.010, 138.344 76.880, 136.033 72.561 C 135.010 70.650, 133.752 70.168, 128.650 69.731 C 125.267 69.441, 121.812 68.923, 120.971 68.580 C 120.131 68.237, 118.629 68.550, 117.636 69.277 M 99.526 79.087 C 96.240 80.166, 93.251 81.375, 92.883 81.774 C 92.516 82.173, 91.962 91.725, 91.652 103 L 91.089 123.500 92.983 118 L 94.878 112.500 95.069 117 C 95.175 119.475, 95.540 130.050, 95.880 140.500 L 96.500 159.500 98.457 156 L 100.413 152.500 101.860 163.750 C 102.656 169.938, 103.643 175, 104.054 175 C 104.464 175, 105.340 172.750, 106 170 C 106.660 167.250, 107.520 165, 107.912 165 C 108.304 165, 109.683 172.988, 110.976 182.750 C 112.269 192.512, 113.668 200.892, 114.084 201.371 C 114.501 201.849, 115.138 200.049, 115.502 197.371 C 115.865 194.692, 116.543 191.150, 117.010 189.500 C 117.476 187.850, 118.380 183.238, 119.019 179.250 C 119.658 175.262, 120.538 172, 120.975 172 C 121.412 172, 122.084 174.513, 122.467 177.584 C 122.851 180.655, 123.409 182.924, 123.708 182.626 C 124.006 182.327, 125.321 176.812, 126.630 170.370 C 127.939 163.928, 129.233 158.434, 129.505 158.162 C 129.777 157.889, 130.045 159.204, 130.100 161.083 C 130.239 165.856, 131.548 169.952, 132.311 168 C 132.880 166.544, 137 147.616, 137 146.458 C 137 144.598, 138.851 147.487, 139.416 150.229 C 140.385 154.931, 141.507 152.290, 142.909 142 C 145.107 125.880, 145.995 124.687, 147.495 135.843 C 147.927 139.060, 148.576 140.824, 149.125 140.275 C 150.397 139.003, 149.791 90.438, 148.507 90.710 C 147.961 90.826, 146.736 95.776, 145.786 101.710 C 140.905 132.199, 141.117 131.300, 138.144 134.016 C 135.881 136.083, 135.072 138.103, 133.933 144.537 C 132.557 152.309, 132.516 152.386, 132.207 147.750 C 131.868 142.671, 130.874 141.999, 127.349 144.468 C 126.197 145.275, 123.432 146.227, 121.206 146.583 C 116.688 147.306, 116.558 147.557, 115.428 157.784 C 115.046 161.240, 114.556 163.889, 114.338 163.671 C 114.120 163.453, 113.494 159.275, 112.947 154.387 C 112.246 148.125, 111.459 145.131, 110.285 144.250 C 107.942 142.493, 107 142.691, 107 144.941 C 107 146.009, 106.611 147.122, 106.136 147.416 C 105.660 147.710, 104.954 144.043, 104.567 139.268 C 103.797 129.788, 103.105 127.597, 101.816 130.566 C 101.354 131.630, 101.239 121.089, 101.560 107.140 L 102.144 81.780 104.822 79.422 C 108.047 76.581, 107.303 76.534, 99.526 79.087 M 117.698 78.636 C 117.314 79.019, 117 79.636, 117 80.007 C 117 81.056, 127.175 83.230, 130.281 82.845 C 135.252 82.228, 133.649 80.516, 127.500 79.873 C 124.200 79.529, 120.801 78.952, 119.948 78.592 C 119.094 78.232, 118.082 78.252, 117.698 78.636 M 113.676 81.805 C 111.701 83.988, 111.479 86.604, 113.250 86.817 C 113.938 86.899, 118.004 87.260, 122.287 87.617 C 128.544 88.140, 130.356 88.670, 131.507 90.313 C 132.929 92.343, 132.957 92.339, 135.433 89.666 C 139.238 85.561, 137.920 84.001, 130.643 83.994 C 124.233 83.989, 116.911 82.432, 115.926 80.865 C 115.611 80.363, 114.598 80.786, 113.676 81.805 M 106.487 82.021 C 106.140 82.583, 105.444 90.571, 104.941 99.771 C 104.438 108.972, 103.836 117.889, 103.603 119.586 C 103.106 123.205, 104.414 125.986, 105.910 124.490 C 106.457 123.943, 107.343 118.772, 107.880 112.998 L 108.857 102.500 108.333 115.164 L 107.809 127.828 110.526 129.609 C 112.021 130.589, 115.777 131.570, 118.872 131.790 C 127.108 132.376, 128.476 130.551, 129.917 117.068 C 130.530 111.330, 131.308 106.380, 131.646 106.068 C 131.984 105.755, 131.888 108.875, 131.434 113 C 130.091 125.182, 130.273 129.119, 132.239 130.370 C 135.386 132.372, 138.706 127.645, 139.872 119.500 C 140.424 115.650, 141.651 107.216, 142.600 100.758 C 144.257 89.471, 144.254 88.938, 142.507 87.008 C 140.178 84.435, 138.685 84.431, 139.500 87 C 139.942 88.391, 139.680 89, 138.640 89 C 137.818 89, 136.198 90.204, 135.040 91.676 L 132.935 94.352 131.411 92.176 C 130.219 90.475, 128.878 90, 125.264 90 C 122.722 90, 119.164 89.465, 117.357 88.812 C 112.556 87.076, 110.061 89.590, 109.820 96.405 L 109.640 101.500 109.257 96.552 C 109.046 93.830, 109.322 90.680, 109.869 89.552 C 110.416 88.423, 111.041 86.037, 111.259 84.250 C 111.602 81.423, 111.359 81, 109.386 81 C 108.139 81, 106.834 81.460, 106.487 82.021 M 113.405 94.155 C 112.975 94.850, 113.129 95.038, 113.792 94.628 C 114.526 94.175, 115.017 95.708, 115.262 99.224 L 115.630 104.500 115.815 98.750 C 115.989 93.348, 115.031 91.523, 113.405 94.155 M 171 95.277 C 171 95.980, 171.706 97.562, 172.568 98.794 C 174.095 100.974, 174.214 100.987, 177.068 99.301 C 178.681 98.348, 180 97.242, 180 96.843 C 180 95.416, 177.888 94.848, 176.589 95.926 C 175.605 96.743, 174.943 96.636, 174.010 95.512 C 172.477 93.665, 171 93.550, 171 95.277 M 125.688 95.646 C 125.309 96.024, 125.007 97.046, 125.015 97.917 C 125.029 99.305, 125.152 99.315, 126.015 98 C 126.891 96.667, 127.117 96.667, 128.054 98 C 128.935 99.254, 129.058 99.186, 128.804 97.583 C 128.480 95.539, 126.824 94.510, 125.688 95.646 M 132.252 99.500 C 132.263 101.700, 132.468 102.482, 132.707 101.238 C 132.946 99.994, 132.937 98.194, 132.687 97.238 C 132.437 96.282, 132.241 97.300, 132.252 99.500 M 112.252 100.500 C 112.263 102.700, 112.468 103.482, 112.707 102.238 C 112.946 100.994, 112.937 99.194, 112.687 98.238 C 112.437 97.282, 112.241 98.300, 112.252 100.500 M 160 100 C 160 101.333, 159.333 102, 158 102 C 156.889 102, 156 102.667, 156 103.500 C 156 104.548, 157.056 105, 159.500 105 C 162.833 105, 163 104.833, 163 101.500 C 163 99.056, 162.548 98, 161.500 98 C 160.667 98, 160 98.889, 160 100 M 171.350 105 C 170.681 108.345, 169.843 108.721, 168 106.500 C 167.315 105.675, 166.162 105, 165.437 105 C 163.030 105, 162.728 107.173, 164.841 109.285 L 166.924 111.368 163.872 113.224 C 161.425 114.712, 161.052 115.358, 161.988 116.486 C 162.837 117.508, 163.816 117.640, 165.577 116.971 C 167.853 116.105, 168 116.261, 168 119.525 C 168 122.285, 168.395 123, 169.921 123 C 171.253 123, 172.048 122.056, 172.518 119.917 L 173.195 116.835 175.524 119.022 C 177.868 121.225, 180 121.006, 180 118.563 C 180 117.838, 179.325 116.685, 178.500 116 C 176.333 114.202, 176.647 113.127, 179.550 112.398 C 183.478 111.412, 182.318 108.428, 178.138 108.764 C 175.270 108.994, 174.877 108.740, 175.037 106.764 C 175.351 102.906, 175.054 102, 173.475 102 C 172.581 102, 171.702 103.240, 171.350 105 M 184.498 106.004 C 183.017 108.867, 183.053 108.976, 185.941 110.469 C 189.623 112.373, 190 112.373, 190 110.469 C 190 109.626, 189.333 108.681, 188.518 108.369 C 187.430 107.951, 187.292 107.322, 188 106 C 188.707 104.679, 188.571 104.049, 187.490 103.634 C 186.541 103.270, 185.475 104.114, 184.498 106.004 M 113.880 109.500 C 113.284 113.497, 113.499 114.834, 114.566 113.767 C 114.878 113.455, 114.985 111.468, 114.805 109.350 L 114.476 105.500 113.880 109.500 M 123 110.941 C 123 113.173, 123.176 115, 123.391 115 C 124.191 115, 124.581 107.859, 123.806 107.380 C 123.363 107.106, 123 108.709, 123 110.941 M 126.252 110.500 C 126.263 112.700, 126.468 113.482, 126.707 112.238 C 126.946 110.994, 126.937 109.194, 126.687 108.238 C 126.437 107.282, 126.241 108.300, 126.252 110.500 M 111.272 113 C 111.272 115.475, 111.467 116.487, 111.706 115.250 C 111.944 114.013, 111.944 111.987, 111.706 110.750 C 111.467 109.513, 111.272 110.525, 111.272 113 M 153.404 114.155 C 153.014 114.787, 153.479 115.877, 154.438 116.578 C 155.606 117.432, 155.964 118.538, 155.523 119.927 C 154.704 122.507, 156.733 122.720, 158.608 120.250 C 160.644 117.568, 160.271 116.191, 157.057 114.529 C 154.904 113.416, 153.923 113.316, 153.404 114.155 M 125.232 120 C 125.232 121.925, 125.438 122.713, 125.689 121.750 C 125.941 120.787, 125.941 119.213, 125.689 118.250 C 125.438 117.287, 125.232 118.075, 125.232 120 M 122.252 121.500 C 122.263 123.700, 122.468 124.482, 122.707 123.238 C 122.946 121.994, 122.937 120.194, 122.687 119.238 C 122.437 118.282, 122.241 119.300, 122.252 121.500 M 181.713 120.621 C 181.321 121.013, 181 122.833, 181 124.667 C 181 126.963, 181.467 128, 182.500 128 C 183.433 128, 184 127.056, 184 125.500 C 184 123.633, 184.528 123, 186.083 123 C 188.986 123, 187.945 120.572, 184.885 120.204 C 183.532 120.041, 182.104 120.229, 181.713 120.621 M 67.390 122.743 C 66.461 124.216, 66.043 124.280, 64.689 123.157 C 63.113 121.849, 61 122.310, 61 123.961 C 61 124.424, 62.429 125.708, 64.175 126.814 L 67.350 128.824 69.175 126.504 C 71.280 123.828, 71.573 121, 69.745 121 C 69.055 121, 67.995 121.784, 67.390 122.743 M 111.260 124.548 C 110.472 125.403, 110.383 126.119, 111.017 126.511 C 111.565 126.849, 112.292 126.404, 112.631 125.520 C 113.457 123.367, 112.786 122.891, 111.260 124.548 M 165.750 126.392 C 163.108 128.397, 163.529 130.335, 166.447 129.603 C 168.065 129.197, 169.171 129.484, 169.711 130.449 C 170.224 131.366, 171.028 131.601, 171.870 131.080 C 172.965 130.404, 172.896 129.770, 171.490 127.626 C 169.574 124.701, 168.330 124.433, 165.750 126.392 M 80.425 129.547 C 80.059 131.497, 79.926 133.234, 80.130 133.405 C 80.333 133.577, 82.188 133.977, 84.250 134.296 C 87.492 134.796, 88 134.612, 88 132.937 C 88 131.667, 87.312 131, 86 131 C 84.533 131, 84 130.333, 84 128.500 C 84 124.587, 81.202 125.406, 80.425 129.547 M 123 127 C 122.207 127.490, 121.890 128.223, 122.296 128.629 C 122.701 129.035, 123.558 128.842, 124.200 128.200 C 125.711 126.689, 124.868 125.846, 123 127 M 107 130.780 C 107 134.912, 108.848 137.569, 113.250 139.768 C 118.320 142.300, 122.355 142.025, 127.763 138.779 C 130.710 137.011, 133.671 133.338, 132.829 132.496 C 131.448 131.114, 127.181 131.076, 126.053 132.436 C 123.697 135.275, 113.022 133.898, 108.750 130.203 C 107.159 128.827, 107 128.880, 107 130.780 M 66.267 131.133 C 65.612 131.788, 65.360 133.548, 65.686 135.179 C 66.263 138.064, 66.261 138.065, 62.132 137.405 C 58.351 136.801, 58 136.930, 58 138.924 C 58 140.457, 58.909 141.421, 61.062 142.171 L 64.124 143.239 62.062 145.434 C 60.928 146.641, 60 148.339, 60 149.207 C 60 151.658, 62.622 152.075, 64.561 149.933 C 66.752 147.512, 68 147.467, 68 149.809 C 68 152.697, 70.322 155.197, 72.300 154.438 C 73.699 153.901, 73.915 153.064, 73.384 150.231 C 72.751 146.858, 72.831 146.727, 75.110 147.411 C 79.474 148.721, 80.494 148.534, 80.804 146.367 C 81.036 144.738, 80.344 143.967, 77.877 143.107 L 74.645 141.980 77.432 139.071 C 78.964 137.472, 79.918 135.676, 79.550 135.081 C 78.584 133.517, 75.449 133.754, 74 135.500 C 72.185 137.687, 71.526 137.374, 70.457 133.816 C 69.393 130.275, 68.010 129.390, 66.267 131.133 M 50.625 131.798 C 50.354 132.237, 50.540 133.249, 51.040 134.048 C 51.674 135.062, 51.360 135.953, 50 137 C 48.725 137.982, 48.343 138.965, 48.894 139.844 C 49.587 140.953, 50.283 140.905, 52.867 139.569 C 56.341 137.772, 56.518 137.232, 54.839 133.547 C 53.708 131.064, 51.616 130.195, 50.625 131.798 M 85.750 145.572 C 82.667 147.245, 82.509 147.828, 84.161 151.453 C 85.679 154.787, 88.254 154.850, 87.822 151.543 C 87.620 150.003, 88.210 148.567, 89.403 147.695 C 90.451 146.928, 90.986 145.786, 90.594 145.152 C 89.691 143.692, 89.126 143.741, 85.750 145.572 M 51 152.440 C 51 153.333, 51.855 154, 53 154 C 54.482 154, 55 154.667, 55 156.573 C 55 158.486, 55.449 159.060, 56.750 158.810 C 58.018 158.566, 58.500 157.512, 58.500 154.986 C 58.500 151.680, 58.307 151.484, 54.750 151.190 C 51.886 150.953, 51 151.248, 51 152.440 M 69.615 159.465 C 68.727 160.820, 68 162.395, 68 162.965 C 68 164.589, 70.150 164.177, 71.532 162.288 C 72.604 160.820, 73.020 160.771, 74.434 161.945 C 75.727 163.018, 76.347 163.052, 77.292 162.104 C 78.237 161.156, 77.955 160.472, 76 158.968 C 72.695 156.425, 71.548 156.514, 69.615 159.465" stroke="none" fill="#ffffff" fill-rule="evenodd"/></svg>