<svg xmlns="http://www.w3.org/2000/svg" width="186" height="215" viewBox="0 0 186 215" version="1.1"><path d="M 70 14.705 C 58.175 21.600, 40.625 31.792, 31 37.354 C 21.375 42.916, 10.800 49.100, 7.500 51.095 L 1.500 54.722 1.241 107.738 L 0.983 160.753 19.741 171.584 C 30.059 177.541, 43.675 185.404, 50 189.058 C 56.325 192.712, 68.614 199.801, 77.310 204.811 L 93.120 213.920 121.810 197.307 C 161.892 174.097, 175.833 166.040, 180.750 163.245 L 185 160.829 184.983 107.665 L 184.966 54.500 173.733 48.082 C 167.555 44.551, 157.325 38.655, 151 34.977 C 104.717 8.070, 94 2.010, 92.830 2.084 C 92.098 2.130, 81.825 7.809, 70 14.705 M 49.500 31.902 L 6.500 56.777 6.241 107.370 L 5.982 157.963 9.741 160.321 C 20.725 167.212, 91.993 208, 93.048 208 C 93.729 208, 113.572 196.865, 137.143 183.255 L 180 158.510 180 107.778 L 180 57.046 177.750 55.646 C 172.030 52.087, 95.326 8.061, 94 7.576 C 93.130 7.257, 74.443 17.473, 49.500 31.902 M 82.446 20.824 C 76.976 24.028, 60.125 33.759, 45 42.449 C 29.875 51.138, 16.488 58.878, 15.250 59.647 L 13 61.046 13 107.854 L 13 154.662 15.711 156.081 C 17.201 156.861, 35.250 167.236, 55.820 179.137 L 93.218 200.773 103.859 194.576 C 109.711 191.168, 123.725 183.049, 135 176.535 C 146.275 170.020, 159.662 162.270, 164.750 159.312 L 174 153.935 174 107.667 L 174 61.399 157.750 52.012 C 148.813 46.850, 130.758 36.410, 117.629 28.813 C 104.499 21.216, 93.450 15, 93.075 15 C 92.700 15, 87.917 17.621, 82.446 20.824 M 88.422 40.500 C 88.792 44.350, 89.363 50.087, 89.690 53.250 C 90.017 56.413, 89.883 58.989, 89.392 58.976 C 88.902 58.963, 86.513 56.037, 84.085 52.474 C 81.657 48.912, 79.513 46.154, 79.321 46.346 C 79.021 46.646, 82.157 57.639, 83.659 61.554 C 83.985 62.404, 82.342 63.658, 79.043 65.077 C 76.225 66.289, 73.444 68.170, 72.863 69.257 C 71.873 71.107, 71.492 70.925, 66.903 66.404 C 61.526 61.108, 61.149 61.135, 63.750 66.627 C 65.112 69.503, 65.215 70.419, 64.213 70.757 C 63.505 70.996, 61.550 72.349, 59.869 73.764 L 56.812 76.336 50.288 73.119 C 46.700 71.350, 43.597 70.070, 43.393 70.274 C 43.188 70.479, 44.366 71.935, 46.010 73.510 C 47.655 75.085, 49 76.766, 49 77.246 C 49 77.725, 47.580 79.884, 45.845 82.043 C 44.110 84.202, 42.416 87.663, 42.081 89.734 L 41.472 93.500 31.486 94 L 21.500 94.500 26 95.740 C 28.475 96.422, 33.200 97.570, 36.500 98.291 C 42.224 99.541, 42.656 99.495, 45.898 97.301 C 47.767 96.035, 50.242 94.990, 51.398 94.978 C 52.554 94.966, 54.625 94.076, 56 93 C 59.066 90.602, 59.851 90.555, 62.150 92.636 C 63.827 94.154, 64.007 94.146, 64.626 92.533 C 64.993 91.576, 67.140 89.972, 69.397 88.967 L 73.500 87.141 69.642 87.071 C 65.985 87.004, 65.818 86.862, 66.443 84.369 C 68.412 76.524, 78.449 71.494, 85.066 75.035 C 86.588 75.850, 87 75.743, 87 74.535 C 87 73.691, 87.450 73, 88 73 C 88.550 73, 89 72.592, 89 72.094 C 89 71.595, 87.987 71.406, 86.750 71.673 C 84.645 72.128, 84.681 71.993, 87.306 69.580 C 91.236 65.966, 99.459 65.766, 104.236 69.168 C 107.944 71.808, 107.723 72.629, 103.109 73.367 C 100.969 73.709, 98.978 74.614, 98.685 75.379 C 98.254 76.503, 98.675 76.572, 100.885 75.737 C 106.443 73.639, 112.701 76.327, 116.766 82.559 C 117.890 84.281, 117.966 84.134, 117.437 81.250 C 116.782 77.675, 117.095 77.448, 120.316 79.164 C 122.287 80.214, 122.367 80.166, 121.134 78.671 C 120.382 77.760, 118.006 76.540, 115.853 75.961 C 111.411 74.764, 111.593 73, 116.158 73 C 121.417 73, 125.711 75.772, 128.102 80.710 C 130.273 85.195, 130.276 85.282, 128.478 90.867 C 127.480 93.965, 126.781 98.075, 126.924 100 L 127.185 103.500 124.593 101.076 C 123.167 99.742, 122 99.153, 122 99.767 C 122 100.380, 122.405 101.132, 122.900 101.438 C 123.394 101.744, 124.384 104.358, 125.098 107.247 C 125.813 110.139, 126.570 111.688, 126.782 110.695 C 128.007 104.961, 132.665 115.641, 131.545 121.613 C 131.176 123.580, 129.358 126.797, 127.467 128.831 C 124.131 132.418, 124.053 132.444, 124.023 130 C 123.994 127.586, 123.924 127.613, 121.991 130.784 C 120.889 132.590, 119.316 134.325, 118.494 134.641 C 116.235 135.508, 116.703 137.229, 119 136.500 C 120.339 136.075, 121 136.320, 121 137.241 C 121 139.272, 118.782 141.765, 116.500 142.300 C 115.228 142.598, 115.682 142.810, 117.750 142.884 C 121.474 143.017, 121.513 143.107, 119.520 146.961 C 117.629 150.619, 113.336 154.004, 110.615 153.985 C 109.076 153.974, 108.863 153.739, 109.833 153.125 C 110.709 152.569, 109.438 152.050, 106.124 151.611 C 103.351 151.243, 100.812 150.505, 100.482 149.971 C 99.473 148.339, 98.378 148.875, 97.131 151.612 C 96.298 153.441, 96.254 154.601, 96.986 155.483 C 97.654 156.288, 97.795 159.951, 97.377 165.621 C 97.017 170.505, 96.969 174.275, 97.270 174 C 97.571 173.725, 99.019 169.783, 100.487 165.239 C 103.320 156.472, 104.955 155.428, 105.071 162.309 L 105.141 166.500 107.058 162.183 C 108.163 159.695, 109.425 158.145, 110.038 158.523 C 113.661 160.763, 124.967 150.038, 125.015 144.316 C 125.056 139.442, 126.563 139.522, 134.940 144.841 C 139.410 147.678, 143.353 150, 143.704 150 C 144.054 150, 141.504 147.433, 138.036 144.295 C 131.879 138.723, 131.782 138.557, 133.866 137.173 C 135.040 136.394, 136 135.206, 136 134.533 C 136 133.132, 139.424 129.758, 140.130 130.463 C 140.826 131.160, 166.282 140.052, 166.617 139.716 C 166.776 139.557, 160.627 135.864, 152.953 131.509 C 145.279 127.154, 139 123.303, 139 122.950 C 139 122.598, 139.900 121.495, 141 120.500 C 142.100 119.505, 143 117.449, 143 115.933 C 143 112.837, 143.460 112.700, 158.500 111.342 C 164.724 110.780, 165.834 110.466, 163.500 109.928 C 161.850 109.548, 157.523 109.183, 153.885 109.118 C 148.830 109.028, 146.648 108.511, 144.635 106.927 C 142.229 105.035, 141.999 104.231, 141.984 97.677 C 141.970 91.818, 141.515 89.765, 139.504 86.500 C 138.150 84.300, 136.345 81.023, 135.494 79.218 L 133.947 75.937 139.773 67.718 C 142.978 63.198, 146.001 58.825, 146.492 58 C 147.499 56.307, 148.145 55.869, 137.993 63.750 C 134.414 66.528, 130.814 68.931, 129.993 69.090 C 128.284 69.421, 119.763 67.621, 115.665 66.063 C 114.036 65.443, 112.344 63.677, 111.539 61.756 C 110.789 59.965, 109.010 57.409, 107.587 56.076 C 105.302 53.935, 104.988 52.824, 104.895 46.576 L 104.790 39.500 103.472 43.500 C 102.747 45.700, 102.119 48.685, 102.077 50.133 C 102.023 51.986, 101.334 52.941, 99.756 53.354 C 96.733 54.144, 95.788 52.858, 92.516 43.500 C 88.720 32.646, 87.587 31.816, 88.422 40.500 M 86 95 C 86 95.550, 86.450 96, 87 96 C 87.550 96, 88 95.550, 88 95 C 88 94.450, 87.550 94, 87 94 C 86.450 94, 86 94.450, 86 95 M 99.225 97.040 C 97.354 97.792, 97.068 98.446, 97.613 100.727 C 99.158 107.185, 102.831 109.055, 106.345 105.171 C 108.592 102.688, 108.431 101.341, 105.545 98.455 C 102.859 95.768, 102.559 95.701, 99.225 97.040 M 57 99.500 C 55.948 100.768, 56.156 101, 58.346 101 C 60.238 101, 60.782 100.595, 60.362 99.500 C 60.045 98.675, 59.439 98, 59.015 98 C 58.592 98, 57.685 98.675, 57 99.500 M 84.842 101.068 C 83.814 101.644, 83.384 102.754, 83.710 103.998 C 84.314 106.307, 85.871 106.546, 88.375 104.715 C 90.048 103.492, 90.045 103.351, 88.316 101.786 C 87.045 100.635, 86.001 100.420, 84.842 101.068 M 50 102.726 C 49.175 103.038, 46.404 105.034, 43.843 107.162 C 39.367 110.880, 39.227 111.157, 40.244 114.265 C 40.827 116.044, 41.444 118.057, 41.616 118.739 C 41.846 119.651, 42.615 119.717, 44.529 118.989 C 45.960 118.445, 47.663 118.032, 48.315 118.070 C 48.967 118.109, 47.746 118.784, 45.601 119.570 C 42.902 120.559, 41.323 120.683, 40.468 119.974 C 39.593 119.247, 39.067 119.384, 38.660 120.442 C 37.169 124.329, 44.005 122.672, 56 116.238 C 66.178 110.780, 71.961 105, 67.245 105 C 66.280 105, 63.919 106.962, 61.999 109.361 C 58.938 113.183, 51.293 118.626, 50.333 117.666 C 50.143 117.476, 51.566 116.472, 53.494 115.433 C 55.422 114.395, 57 112.898, 57 112.106 C 57 111.314, 57.304 110.971, 57.676 111.342 C 58.514 112.181, 63 108.084, 63 106.481 C 63 105.837, 62.165 104.554, 61.143 103.630 C 59.512 102.153, 59.138 102.129, 58.057 103.431 C 57.381 104.246, 57.161 105.452, 57.568 106.111 C 58.037 106.869, 57.885 107.047, 57.155 106.595 C 56.520 106.203, 56 105.234, 56 104.441 C 56 102.668, 54.814 102.589, 53.141 104.250 C 52.131 105.252, 52.014 105.153, 52.548 103.750 C 53.229 101.960, 52.645 101.725, 50 102.726 M 48.405 105.155 C 47.962 105.870, 48.130 106.038, 48.845 105.595 C 49.480 105.203, 50 104.684, 50 104.441 C 50 103.607, 49.117 104.002, 48.405 105.155 M 67.973 110.528 C 64.635 114.081, 51.587 121.369, 44.783 123.480 C 39.781 125.031, 39.187 125.481, 40.038 127.071 C 40.955 128.784, 41.315 128.799, 46.255 127.336 C 52.291 125.548, 55.198 124.138, 62.358 119.522 C 68.635 115.475, 73.452 110.541, 72.550 109.081 C 71.541 107.449, 70.581 107.752, 67.973 110.528 M 48 111 C 48 111.733, 48.300 112.033, 48.667 111.667 C 49.033 111.300, 49.033 110.700, 48.667 110.333 C 48.300 109.967, 48 110.267, 48 111 M 109 111 C 109 111.550, 109.450 112, 110 112 C 110.550 112, 111 111.550, 111 111 C 111 110.450, 110.550 110, 110 110 C 109.450 110, 109 110.450, 109 111 M 68.665 116.997 C 65.110 120.764, 54.194 126.922, 48.684 128.270 C 43.413 129.559, 42 130.664, 42 133.500 C 42 137.480, 43.933 138.027, 51.033 136.059 C 59.583 133.688, 72.132 125.910, 75.418 120.945 C 77.715 117.473, 77.811 116.954, 76.409 115.552 C 74.091 113.234, 71.815 113.659, 68.665 116.997 M 76.968 122.757 C 73.540 127.766, 59.756 136.464, 52.765 138.028 C 49.683 138.718, 46.653 139.597, 46.031 139.981 C 45.278 140.446, 46.634 143.495, 50.082 149.090 C 52.932 153.715, 55.326 157.583, 55.401 157.685 C 55.476 157.787, 58.775 157.464, 62.733 156.967 C 68.863 156.198, 70.982 155.363, 77.051 151.328 C 82.598 147.639, 84.722 145.508, 86.655 141.695 C 88.020 139.001, 88.714 137.059, 88.198 137.377 C 87.682 137.696, 86.704 139.301, 86.024 140.943 C 84.520 144.573, 76.024 150.284, 72.810 149.825 C 69.984 149.422, 65.571 141.928, 66.477 139.071 C 66.817 138.001, 69.211 135.725, 71.797 134.014 C 76.520 130.888, 80.985 124.963, 80.995 121.809 C 81.004 118.738, 79.471 119.099, 76.968 122.757 M 96.792 122.057 C 94.809 123.212, 95.416 125.617, 98.045 127.024 C 101.790 129.029, 104.783 125.183, 101.800 122.200 C 100.361 120.761, 99.077 120.724, 96.792 122.057 M 80.521 127.555 C 78.845 130.415, 76.018 133.238, 72.926 135.141 C 67.653 138.385, 67.192 139.537, 69.434 143.872 C 72.132 149.090, 73.383 149.446, 78.491 146.452 C 81.978 144.409, 83.785 142.387, 85.939 138.120 L 88.783 132.487 86.372 127.743 C 85.046 125.135, 83.788 123, 83.576 123 C 83.364 123, 81.989 125.050, 80.521 127.555 M 86.569 145.782 C 86.223 146.872, 82.303 150.080, 77.857 152.909 C 71.279 157.096, 68.677 158.169, 63.887 158.670 C 60.649 159.008, 58 159.587, 58 159.956 C 58 160.325, 59.614 161.260, 61.587 162.034 C 63.560 162.808, 64.685 163.605, 64.087 163.804 C 63.489 164.004, 63 164.869, 63 165.728 C 63 167.052, 64.120 167.204, 70.383 166.730 C 81.110 165.919, 86.972 162.102, 90.515 153.618 C 92.700 148.388, 90.830 146.192, 88.447 151.190 C 86.102 156.107, 74.772 163.051, 69.395 162.866 L 65.500 162.733 70.005 162.098 C 76.368 161.201, 85.475 154.707, 87.532 149.601 C 88.526 147.133, 88.753 145.353, 88.151 144.751 C 87.548 144.148, 86.968 144.526, 86.569 145.782" stroke="none" fill="#f29604" fill-rule="evenodd"/></svg>