<svg xmlns="http://www.w3.org/2000/svg" width="256" height="256" viewBox="0 0 256 256" version="1.1"><path d="M 117.415 46.925 C 113.656 66.216, 110.337 81.992, 110.040 81.981 C 109.743 81.971, 106.649 77.884, 103.165 72.900 C 99.680 67.916, 96.607 64.060, 96.334 64.332 C 96.062 64.604, 96.791 69.704, 97.954 75.664 C 99.118 81.624, 100.315 87.621, 100.614 88.991 C 101.057 91.013, 100.491 90.637, 97.610 86.991 C 94.600 83.183, 92.042 81.562, 80.781 76.333 C 73.477 72.941, 67.369 70.298, 67.207 70.459 C 67.046 70.621, 69.830 76.890, 73.394 84.390 C 76.958 91.891, 80.140 98.865, 80.464 99.887 C 81.028 101.663, 80.442 101.639, 67.379 99.354 C 59.858 98.039, 53.511 97.156, 53.275 97.391 C 53.039 97.627, 58.048 101.335, 64.406 105.630 C 71.255 110.257, 75.463 113.696, 74.733 114.068 C 74.055 114.413, 58.762 117.553, 40.750 121.046 C 22.737 124.539, 8 127.668, 8 128 C 8 128.332, 22.738 131.461, 40.750 134.954 C 58.763 138.447, 74.138 141.634, 74.918 142.036 C 75.901 142.543, 72.731 145.167, 64.572 150.602 C 58.102 154.911, 53.325 158.608, 53.956 158.819 C 54.587 159.029, 60.727 158.203, 67.600 156.982 C 74.473 155.762, 80.283 154.950, 80.510 155.177 C 80.738 155.405, 77.777 162.269, 73.932 170.432 C 70.086 178.594, 67.066 185.399, 67.220 185.553 C 67.374 185.706, 72.675 183.447, 79 180.533 C 89.363 175.757, 90.994 174.636, 95.497 169.197 C 98.245 165.877, 100.561 163.237, 100.643 163.330 C 100.724 163.424, 99.712 169.122, 98.393 175.992 C 97.074 182.863, 96.116 188.848, 96.264 189.292 C 96.412 189.736, 99.435 185.981, 102.982 180.947 C 108.833 172.644, 109.499 172.013, 110.164 174.147 C 110.566 175.441, 113.914 191.707, 117.604 210.294 C 121.293 228.881, 124.628 243.731, 125.015 243.294 C 125.402 242.857, 128.812 226.863, 132.591 207.750 C 136.371 188.637, 139.696 173.006, 139.982 173.013 C 140.267 173.021, 142.975 176.605, 146 180.978 C 149.025 185.351, 151.763 188.945, 152.084 188.964 C 152.406 188.984, 151.640 183.712, 150.382 177.250 C 149.125 170.787, 148.074 165.100, 148.048 164.612 C 148.022 164.124, 149.688 165.858, 151.750 168.465 C 154.958 172.521, 157.434 174.131, 168.875 179.603 C 176.231 183.121, 182.400 186, 182.583 186 C 182.766 186, 181.639 183.187, 180.077 179.750 C 178.515 176.313, 175.227 169.202, 172.769 163.949 L 168.300 154.397 181.400 156.689 C 188.605 157.950, 195.374 158.986, 196.443 158.991 C 197.540 158.996, 193.052 155.340, 186.138 150.595 L 173.890 142.189 178.695 141.189 C 181.338 140.638, 198.012 137.587, 215.750 134.407 C 233.488 131.227, 248 128.353, 248 128.020 C 248 127.686, 232.137 124.560, 212.750 121.074 C 193.363 117.587, 176.930 114.434, 176.232 114.067 C 175.441 113.651, 179.296 110.442, 186.482 105.534 C 192.817 101.207, 197.820 97.487, 197.601 97.268 C 197.381 97.048, 190.771 98.013, 182.912 99.412 C 175.052 100.811, 168.547 101.853, 168.455 101.727 C 168.363 101.602, 171.551 94.525, 175.540 86 C 179.528 77.475, 182.680 70.379, 182.544 70.231 C 182.408 70.084, 175.776 73.064, 167.807 76.854 C 156.981 82.003, 152.744 84.550, 151.050 86.930 C 149.802 88.682, 148.615 89.948, 148.411 89.744 C 148.207 89.540, 149.132 83.791, 150.467 76.967 C 151.801 70.143, 152.746 64.413, 152.567 64.234 C 152.388 64.055, 150.082 66.966, 147.442 70.704 C 144.803 74.442, 141.885 78.495, 140.958 79.712 C 139.336 81.840, 139.015 80.628, 132.492 47.712 C 128.762 28.895, 125.383 13.129, 124.981 12.675 C 124.579 12.221, 121.174 27.634, 117.415 46.925 M 123.545 90.123 C 121.968 97.481, 120.368 104.381, 119.990 105.457 C 119.388 107.172, 118.957 106.893, 116.518 103.207 C 114.987 100.893, 113.617 99, 113.473 99 C 113.330 99, 113.630 100.859, 114.141 103.132 C 114.652 105.405, 114.875 107.458, 114.637 107.696 C 114.399 107.934, 111.009 106.519, 107.102 104.552 C 103.196 102.584, 100 101.215, 100 101.509 C 100 101.803, 101.350 105.021, 103 108.660 C 104.650 112.299, 106 115.475, 106 115.718 C 106 115.960, 104.650 115.898, 103 115.579 C 101.350 115.261, 98.537 114.738, 96.750 114.418 C 93.688 113.870, 93.808 114.048, 98.834 117.501 C 101.767 119.517, 104.017 121.308, 103.834 121.481 C 103.650 121.655, 97.425 123.008, 90 124.489 C 82.575 125.969, 76.165 127.497, 75.755 127.885 C 75.346 128.272, 81.527 129.860, 89.491 131.413 C 97.602 132.994, 103.717 134.649, 103.392 135.175 C 103.073 135.691, 100.717 137.463, 98.156 139.112 L 93.500 142.111 98 141.482 C 100.475 141.137, 103.287 140.631, 104.250 140.360 C 105.213 140.088, 106 140.058, 106 140.294 C 106 140.530, 104.650 143.701, 103 147.340 C 101.350 150.979, 100 154.197, 100 154.491 C 100 154.785, 103.196 153.416, 107.102 151.448 C 111.009 149.481, 114.359 148.026, 114.547 148.214 C 114.735 148.402, 114.501 150.344, 114.027 152.528 C 113.174 156.457, 113.183 156.473, 114.832 154.054 C 115.750 152.709, 117.199 150.745, 118.052 149.689 C 119.494 147.906, 119.845 148.886, 123 163.501 L 126.396 179.233 129.692 164.456 C 131.504 156.329, 133.249 149.418, 133.569 149.098 C 133.888 148.778, 134.535 149.188, 135.007 150.008 C 135.478 150.829, 136.579 152.400, 137.454 153.500 C 138.964 155.398, 139.013 155.310, 138.411 151.750 C 138.063 149.688, 138.064 148, 138.414 148 C 138.764 148, 142.189 149.581, 146.025 151.513 C 149.861 153.444, 153 154.836, 153 154.606 C 153 154.375, 151.650 151.178, 150 147.500 C 148.350 143.822, 147 140.600, 147 140.339 C 147 140.079, 147.787 140.088, 148.750 140.360 C 149.713 140.631, 152.525 141.153, 155 141.518 L 159.500 142.181 154.091 138.341 L 148.682 134.500 164.341 131.570 C 172.953 129.958, 180 128.350, 180 127.995 C 180 127.641, 173.250 126.098, 165 124.566 C 156.750 123.034, 150.001 121.493, 150.002 121.140 C 150.003 120.788, 152.048 119.208, 154.548 117.629 C 157.047 116.050, 158.919 114.586, 158.708 114.374 C 158.497 114.163, 155.928 114.445, 153 115 C 150.072 115.555, 147.514 115.847, 147.315 115.649 C 147.117 115.450, 148.315 112.256, 149.977 108.551 C 151.640 104.845, 153 101.625, 153 101.394 C 153 101.164, 149.861 102.556, 146.025 104.487 C 142.189 106.419, 138.756 108, 138.397 108 C 138.038 108, 138.047 106.088, 138.416 103.750 L 139.088 99.500 136.137 103 L 133.185 106.500 132.421 103.500 C 132.001 101.850, 130.477 95.156, 129.035 88.623 L 126.413 76.747 123.545 90.123" stroke="none" fill="#ffffff" fill-rule="evenodd"/></svg>