<svg xmlns="http://www.w3.org/2000/svg" width="211" height="245" viewBox="0 0 211 245" version="1.1"><path d="M 90.500 31.099 C 67.821 44.162, 60.730 48.258, 36.500 62.296 L 13.500 75.621 13.241 128.257 L 12.982 180.893 15.241 182.522 C 16.484 183.418, 24.700 188.310, 33.500 193.393 C 42.300 198.476, 61.681 209.692, 76.568 218.317 C 91.456 226.943, 104.216 234, 104.924 234 C 106.381 234, 110.037 231.954, 150.500 208.497 C 166.450 199.250, 183.441 189.424, 188.259 186.660 L 197.017 181.635 196.759 128.637 L 196.500 75.640 191.500 72.690 C 173.503 62.074, 105.508 23.003, 105.054 23.017 C 104.749 23.027, 98.200 26.663, 90.500 31.099 M 99.500 30.913 C 85.872 38.683, 71.064 47.229, 46 61.790 L 18.500 77.767 18.241 128.648 L 17.982 179.529 42.241 193.468 C 55.583 201.135, 75.162 212.448, 85.749 218.608 L 104.998 229.807 148.749 204.532 L 192.500 179.258 192.759 129.182 L 193.018 79.107 190.759 77.472 C 189.517 76.573, 178.375 69.985, 166 62.831 C 135.236 45.048, 123.900 38.454, 114.394 32.812 C 109.935 30.165, 105.885 28.014, 105.394 28.031 C 104.902 28.048, 102.250 29.345, 99.500 30.913 M 95 41.600 C 89.775 44.673, 83.700 48.200, 81.500 49.436 C 77.313 51.789, 50.110 67.482, 34.240 76.699 L 24.980 82.077 25.240 128.731 L 25.500 175.385 38.500 183.034 C 71.943 202.711, 104.060 221, 105.174 221 C 105.849 221, 113.624 216.790, 122.451 211.645 C 131.278 206.500, 149.188 196.098, 162.250 188.530 L 186 174.770 186 129.040 C 186 86.727, 185.869 83.198, 184.250 81.806 C 182.135 79.988, 108.751 37.591, 105.863 36.518 C 105.113 36.239, 100.225 38.526, 95 41.600 M 101 63.587 C 97.425 64.353, 93.032 65.268, 91.238 65.622 C 89.444 65.976, 83.966 68.793, 79.064 71.883 C 66.685 79.685, 59.116 89.170, 54.404 102.783 C 50.214 114.891, 50.029 118, 53.500 118 C 55.479 118, 56 117.495, 56 115.578 C 56 114.246, 57.303 109.325, 58.896 104.643 C 63.305 91.679, 70.817 82.415, 82.500 75.535 C 93.968 68.781, 106.129 65.947, 115.536 67.836 C 118.725 68.476, 122.520 69, 123.971 69 C 125.421 69, 130.720 71.143, 135.745 73.762 C 147.897 80.096, 156.028 89.127, 161.380 102.236 C 163.371 107.113, 165 111.647, 165 112.311 C 165 113.758, 168.528 116.139, 169.392 115.274 C 170.634 114.033, 169.899 110.920, 165.980 100.806 C 162.426 91.637, 161.109 89.508, 154.626 82.467 C 148.643 75.967, 145.593 73.605, 138.067 69.640 C 130.264 65.530, 127.349 64.568, 119.170 63.409 C 107.959 61.820, 109.316 61.807, 101 63.587 M 98.822 78.475 C 90.703 80.542, 80.443 87.486, 74.740 94.774 C 69.260 101.777, 63.773 116.831, 65.629 119.773 C 67.470 122.693, 69 122.337, 69 118.989 C 69 112.502, 72.913 102.578, 77.902 96.412 C 90.692 80.606, 111.514 76.076, 129.600 85.166 C 137.113 88.942, 145.107 96.986, 148.068 103.750 C 149.096 106.097, 150.616 108, 151.464 108 C 153.367 108, 153.367 107.981, 151.335 102.770 C 150.420 100.422, 147.210 95.662, 144.202 92.194 C 139.978 87.324, 136.933 84.983, 130.830 81.915 C 123.733 78.346, 121.990 77.895, 113.714 77.486 C 107.560 77.181, 102.614 77.510, 98.822 78.475 M 104.089 92.065 C 96.003 93.688, 83.112 103.512, 85.688 106.088 C 86.292 106.692, 87.795 105.773, 89.790 103.580 C 91.522 101.677, 95.059 98.878, 97.649 97.360 C 101.752 94.956, 103.398 94.603, 110.429 94.623 C 119.501 94.649, 125.184 96.845, 130.271 102.290 C 133.771 106.036, 135.876 104.671, 132.538 100.819 C 126.543 93.901, 114.069 90.062, 104.089 92.065 M 79.200 110.200 C 77.854 111.546, 77.713 117.449, 78.954 120.500 C 79.533 121.922, 79.200 123.122, 77.802 124.652 C 76.721 125.835, 75.590 128.636, 75.290 130.875 L 74.744 134.946 71.961 131.105 C 67.372 124.771, 63.466 122.592, 55.936 122.166 C 50.703 121.871, 48.479 122.225, 45.258 123.868 C 35.032 129.085, 30.955 142.131, 36.512 151.852 C 37.880 154.246, 39 156.352, 39 156.533 C 39 156.713, 37.987 157.005, 36.750 157.180 C 35.275 157.390, 34.500 158.187, 34.500 159.496 C 34.500 162.989, 40.745 164.293, 58 164.402 C 72.670 164.495, 73.727 164.370, 77.736 162.074 C 84.333 158.295, 89 150.274, 89 142.716 C 89 141.178, 89.990 138.580, 91.200 136.943 C 93.804 133.421, 94.083 127.860, 91.784 125.300 C 89.671 122.947, 90.508 118.692, 93.328 117.454 C 97.771 115.503, 95.481 108.504, 90.625 109.197 C 89.071 109.419, 88.334 110.440, 87.882 113 C 87.529 114.993, 87.207 115.562, 87.132 114.321 C 86.872 110.028, 81.937 107.463, 79.200 110.200 M 132.583 111.892 C 130.850 112.571, 130.995 112.888, 134.083 115.179 C 140.138 119.673, 163.868 126.436, 166.933 124.542 C 169.674 122.848, 167.373 120.102, 160.848 117.279 C 158.096 116.089, 157.578 116.935, 159.337 119.750 C 160.516 121.636, 159.250 121.250, 157.053 119.053 C 154.607 116.607, 147.524 114.645, 143.816 115.387 C 142.267 115.697, 141 115.564, 141 115.092 C 141 113.392, 145.255 113.176, 150.717 114.598 C 153.779 115.396, 156.466 115.868, 156.687 115.646 C 156.909 115.425, 153.552 114.289, 149.227 113.122 C 141.172 110.948, 135.971 110.564, 132.583 111.892 M 124.099 116.500 C 119.756 118.879, 114.959 123.841, 113.706 127.250 C 113.152 128.757, 113.704 129, 117.685 129 C 121.882 129, 122.821 128.518, 127.903 123.754 C 134.601 117.475, 134.718 117.259, 132.354 115.468 C 129.888 113.600, 129.246 113.680, 124.099 116.500 M 84.684 117.750 C 84.446 118.162, 84.612 119.400, 85.055 120.500 C 85.757 122.246, 85.868 122.151, 85.930 119.750 C 85.999 117.037, 85.531 116.286, 84.684 117.750 M 129.637 123.957 C 127.087 126.684, 125 129.393, 125 129.977 C 125 131.756, 129.983 139.056, 131.629 139.688 C 132.933 140.188, 140.330 139.025, 146.081 137.415 C 147.028 137.150, 148.132 134.939, 148.831 131.910 C 150.701 123.809, 150.659 123.723, 143.563 121.247 C 140.022 120.011, 136.484 119, 135.699 119 C 134.915 119, 132.187 121.231, 129.637 123.957 M 151.633 125.785 C 151.366 126.216, 150.854 129.254, 150.494 132.535 L 149.840 138.500 154.877 143.420 L 159.915 148.341 164.707 145.372 C 168.901 142.774, 169.459 142.034, 169.175 139.451 C 168.996 137.828, 167.814 134.205, 166.548 131.400 C 164.631 127.148, 163.707 126.191, 160.999 125.650 C 156.592 124.768, 152.222 124.831, 151.633 125.785 M 166.518 125.971 C 166.188 126.504, 166.684 128.417, 167.621 130.221 C 168.557 132.024, 169.832 135.482, 170.453 137.905 C 171.136 140.571, 172.521 142.934, 173.959 143.889 L 176.336 145.467 175.690 140.758 C 175.053 136.111, 169.605 125, 167.964 125 C 167.499 125, 166.848 125.437, 166.518 125.971 M 47.898 131.263 C 46.029 132.508, 43.688 135.182, 42.696 137.205 C 41.170 140.315, 41.065 141.527, 42.015 145.056 C 43.612 150.985, 46.949 154, 51.916 154 C 56.231 154, 60 151.145, 60 147.877 C 60 144.621, 58.124 141.174, 55.982 140.494 C 52.788 139.480, 52.374 140.705, 54.976 143.475 C 56.899 145.521, 57.077 146.202, 56.024 147.471 C 53.404 150.628, 47.997 148.821, 46.058 144.141 C 43.858 138.829, 48.386 133, 54.712 133 C 59.478 133, 64.379 137.189, 65.532 142.250 C 66.545 146.696, 68.347 145.573, 67.609 140.956 C 66.733 135.475, 65.175 133.183, 60.790 130.917 C 55.904 128.393, 52.052 128.496, 47.898 131.263 M 110.281 131.205 C 104.323 138.633, 102.991 152.895, 107.531 160.644 C 110.519 165.742, 112.005 166.666, 118.615 167.543 L 123.576 168.201 127.288 163.437 C 130.882 158.823, 130.999 158.415, 130.966 150.586 C 130.932 142.702, 130.825 142.350, 126.679 136.500 C 122.432 130.509, 122.418 130.500, 116.873 130.205 C 113.217 130.011, 110.965 130.352, 110.281 131.205 M 115.612 136.819 C 115.333 137.270, 116.544 137.513, 118.303 137.361 C 120.061 137.208, 120.600 137.330, 119.500 137.631 C 116.692 138.401, 114.032 142.039, 114.112 145 C 114.174 147.258, 114.268 147.198, 115.086 144.376 C 116.253 140.351, 118.365 138.645, 121.451 139.235 C 123.590 139.644, 123.783 139.463, 122.921 137.853 C 121.911 135.965, 116.604 135.214, 115.612 136.819 M 139.004 140.896 C 135.148 141.907, 132.395 143.189, 132.230 144.050 C 132.077 144.847, 132.300 148.584, 132.726 152.353 L 133.500 159.206 138.500 161.102 C 141.250 162.145, 145.075 162.990, 147 162.980 C 150.240 162.963, 150.778 162.485, 154.250 156.548 C 156.313 153.021, 158 149.750, 158 149.280 C 158 147.775, 148.487 138.996, 146.966 139.097 C 146.160 139.150, 142.577 139.960, 139.004 140.896 M 164.788 147.131 C 161.366 149.303, 158.832 152.170, 155.538 157.597 C 151.613 164.061, 151 165.812, 151 170.560 C 151 175.532, 151.242 176.141, 153.565 177.025 C 154.976 177.561, 157.067 178, 158.212 178 C 162.697 178, 174.197 165.745, 172.416 162.864 C 171.979 162.157, 172.123 161.958, 172.776 162.362 C 174.242 163.268, 175.106 161.650, 176.673 155.063 L 177.996 149.500 174.982 146.750 C 171.279 143.371, 170.674 143.394, 164.788 147.131 M 167.224 150.176 C 166.370 151.030, 166.347 151.713, 167.137 152.665 C 170.371 156.562, 162.498 168.711, 157.374 167.731 C 155.599 167.392, 155 167.724, 155 169.045 C 155 171.811, 158.453 170.353, 163.485 165.463 C 165.952 163.065, 168.070 161.690, 168.294 162.339 C 168.515 162.978, 168.643 160.501, 168.580 156.835 C 168.514 152.992, 168.855 150.411, 169.387 150.739 C 169.894 151.053, 169.988 150.789, 169.595 150.155 C 168.715 148.729, 168.670 148.730, 167.224 150.176 M 114 153.059 C 114 153.641, 113.555 153.843, 113.011 153.507 C 112.420 153.142, 112.293 153.600, 112.695 154.648 C 113.139 155.804, 113.509 155.973, 113.785 155.146 C 114.077 154.268, 114.610 154.432, 115.569 155.697 C 117.252 157.916, 117.400 159.365, 115.845 158.405 C 115.146 157.972, 114.962 158.129, 115.378 158.802 C 115.755 159.413, 116.689 159.673, 117.453 159.380 C 118.577 158.948, 118.456 158.193, 116.822 155.423 C 114.723 151.865, 114 151.259, 114 153.059 M 86.535 158.944 C 85.712 160.274, 94.413 165.161, 99.147 166.027 C 102.478 166.636, 103.049 166.496, 102.787 165.132 C 102.616 164.243, 101.356 163.285, 99.988 163.004 C 98.620 162.723, 95.605 161.482, 93.290 160.246 C 88.654 157.773, 87.407 157.532, 86.535 158.944 M 119.528 159.911 C 117.756 160.604, 117.832 160.735, 120.272 161.201 C 121.910 161.514, 123.435 161.181, 124.116 160.360 C 125.001 159.294, 124.840 159.015, 123.372 159.070 C 122.343 159.109, 120.613 159.487, 119.528 159.911 M 128.525 164.671 L 124.959 169.342 128.686 172.421 C 134.610 177.315, 136.615 179.211, 135 178.390 C 134.175 177.971, 131.475 175.970, 129 173.944 C 126.525 171.917, 123.150 170.007, 121.500 169.699 C 119.850 169.392, 117.713 168.835, 116.750 168.463 C 113.900 167.360, 114.723 169.860, 117.838 171.765 C 119.399 172.719, 120.519 173.964, 120.328 174.530 C 120.136 175.097, 122.918 177.010, 126.509 178.780 C 131.659 181.320, 134.301 182, 139.019 182 C 142.340 182, 145 181.555, 145 181 C 145 180.450, 147.025 180, 149.500 180 C 154.398 180, 155.527 178.600, 151.454 177.578 C 148.986 176.958, 148.928 176.758, 149.571 171.074 C 150.304 164.595, 150.538 164.855, 142.792 163.550 C 140.753 163.206, 137.828 162.270, 136.292 161.469 C 134.757 160.668, 133.183 160.010, 132.796 160.006 C 132.409 160.003, 130.487 162.102, 128.525 164.671 M 73.750 166.689 C 72.787 166.941, 72 167.533, 72 168.005 C 72 168.477, 76.383 171.233, 81.740 174.130 C 89.749 178.460, 92.993 179.624, 99.990 180.677 C 108.963 182.026, 117 182.384, 117 181.434 C 117 181.123, 116.534 179.998, 115.965 178.934 C 115.198 177.501, 113.859 177, 110.797 177 C 101.968 177, 93.548 174.824, 85.260 170.399 C 80.727 167.980, 76.677 166.052, 76.260 166.116 C 75.842 166.180, 74.713 166.438, 73.750 166.689 M 140.762 177.707 C 142.006 177.946, 143.806 177.937, 144.762 177.687 C 145.718 177.437, 144.700 177.241, 142.500 177.252 C 140.300 177.263, 139.518 177.468, 140.762 177.707" stroke="none" fill="#ffffff" fill-rule="evenodd"/></svg>