<svg xmlns="http://www.w3.org/2000/svg" width="186" height="215" viewBox="0 0 186 215" version="1.1"><path d="M 50.500 26.095 C 27.950 39.237, 7.700 51.013, 5.500 52.264 L 1.500 54.539 1.241 107.617 L 0.983 160.694 32.241 178.742 C 49.434 188.668, 70.164 200.644, 78.309 205.355 L 93.118 213.921 121.809 197.307 C 161.892 174.097, 175.833 166.040, 180.750 163.245 L 185 160.829 185 108.606 C 185 68.328, 184.714 56.024, 183.750 54.818 C 183.063 53.957, 178.225 50.768, 173 47.730 C 119.431 16.585, 93.812 2.016, 92.760 2.100 C 92.067 2.155, 73.050 12.952, 50.500 26.095 M 49.500 31.902 L 6.500 56.777 6.241 107.370 L 5.982 157.963 9.741 160.321 C 20.538 167.094, 91.984 208, 93.016 208 C 93.680 208, 113.523 196.868, 137.112 183.262 L 180 158.523 180 107.785 L 180 57.046 177.750 55.646 C 172.030 52.087, 95.326 8.061, 94 7.576 C 93.130 7.257, 74.443 17.473, 49.500 31.902 M 82.446 20.824 C 76.976 24.028, 60.125 33.759, 45 42.449 C 29.875 51.138, 16.488 58.878, 15.250 59.647 L 13 61.046 13 107.854 L 13 154.662 15.711 156.081 C 17.201 156.861, 35.250 167.236, 55.820 179.137 L 93.218 200.773 103.859 194.576 C 109.711 191.168, 123.725 183.049, 135 176.535 C 146.275 170.020, 159.662 162.270, 164.750 159.312 L 174 153.935 174 107.667 L 174 61.399 157.750 52.012 C 148.813 46.850, 130.758 36.410, 117.629 28.813 C 104.499 21.216, 93.450 15, 93.075 15 C 92.700 15, 87.917 17.621, 82.446 20.824 M 91.500 42.069 C 89.300 42.547, 85.025 43.471, 82 44.124 C 78.650 44.847, 72.982 47.455, 67.500 50.796 C 60.217 55.235, 57.291 57.794, 52.161 64.209 C 46.870 70.825, 45.257 73.812, 42.411 82.265 C 38.288 94.507, 38.068 97.272, 41.250 96.820 C 42.652 96.620, 43.563 95.747, 43.667 94.500 C 43.758 93.400, 45.140 88.560, 46.739 83.746 C 52.795 65.497, 67.670 52.128, 86.686 47.844 C 94.716 46.035, 96.381 45.970, 105.404 47.111 C 125.900 49.704, 141.781 62.003, 149.493 81.257 C 151.422 86.073, 153 90.577, 153 91.266 C 153 92.916, 156.736 95.236, 157.473 94.044 C 158.345 92.632, 156.630 86.304, 152.988 77.500 C 148.077 65.628, 138.290 55.089, 126.312 48.773 C 118.792 44.809, 115.745 43.813, 107.190 42.529 C 101.593 41.688, 96.673 41.045, 96.257 41.100 C 95.840 41.156, 93.700 41.592, 91.500 42.069 M 86.899 57.459 C 72.663 61.086, 60.351 73.162, 55.405 88.348 C 53.290 94.844, 52.828 97.504, 53.602 98.731 C 55.587 101.878, 57 101.326, 57 97.404 C 57 91.163, 60.856 81.579, 65.873 75.352 C 82.194 55.093, 112.480 54.097, 129.523 73.261 C 132.086 76.142, 135.026 80.412, 136.056 82.750 C 137.088 85.092, 138.618 87, 139.464 87 C 141.369 87, 141.368 86.977, 139.321 81.770 C 138.397 79.422, 135.238 74.739, 132.300 71.365 C 128.169 66.621, 125.093 64.293, 118.729 61.094 C 111.339 57.379, 109.582 56.910, 101.500 56.494 C 95.552 56.189, 90.601 56.516, 86.899 57.459 M 91.407 71.407 C 85.186 72.917, 80.142 75.935, 76.048 80.598 C 71.675 85.579, 73.406 87.149, 77.877 82.258 C 83.744 75.840, 89.099 73.590, 98.500 73.592 C 105.169 73.594, 107.332 74.028, 111.500 76.198 C 114.250 77.630, 117.526 79.989, 118.779 81.442 C 120.033 82.894, 121.534 83.788, 122.116 83.428 C 123.782 82.399, 117.128 76.199, 111.512 73.549 C 105.225 70.580, 97.987 69.809, 91.407 71.407 M 67.200 89.200 C 65.704 90.696, 65.638 96.455, 67.086 99.160 C 67.965 100.803, 67.760 101.627, 66.004 103.496 C 64.811 104.765, 63.590 107.636, 63.290 109.875 L 62.744 113.946 59.961 110.105 C 55.633 104.131, 51.469 101.662, 44.921 101.188 C 37.683 100.664, 32.784 102.282, 28.433 106.634 C 21.585 113.482, 20.039 123.028, 24.512 130.852 C 25.880 133.246, 27 135.334, 27 135.494 C 27 135.653, 25.875 136.066, 24.500 136.411 C 21.478 137.169, 21.272 139.064, 24.026 140.784 C 27.196 142.764, 41.436 144.295, 51.963 143.788 C 59.597 143.420, 62.343 142.858, 65.518 141.013 C 72.435 136.994, 76.856 129.726, 76.956 122.210 C 76.980 120.400, 77.943 117.644, 79.095 116.085 C 81.719 112.536, 81.988 106.749, 79.648 104.164 C 77.662 101.969, 78.303 97, 80.573 97 C 82.461 97, 84.237 93.323, 83.489 90.965 C 82.834 88.901, 78.854 87.354, 77.057 88.465 C 76.476 88.824, 76 90.415, 76 92 C 76 93.585, 75.550 95.160, 75 95.500 C 74.450 95.840, 73.968 97.329, 73.930 98.809 C 73.868 101.182, 73.764 101.264, 73.049 99.500 C 72.524 98.203, 72.724 96.945, 73.619 95.921 C 75.437 93.842, 75.367 91.510, 73.429 89.571 C 71.557 87.700, 68.861 87.539, 67.200 89.200 M 122.348 90.754 C 122.763 91.426, 122.178 91.634, 120.751 91.324 C 118.824 90.905, 118.979 91.248, 121.831 93.707 C 126.798 97.992, 150.111 105.046, 154.164 103.491 C 156.822 102.471, 155.772 99.924, 151.873 97.935 C 147.126 95.513, 146.641 95.520, 147.290 98 C 147.878 100.251, 146.508 100.765, 145.678 98.604 C 144.879 96.521, 135.548 93.721, 132.002 94.500 C 130.139 94.909, 129 94.757, 129 94.099 C 129 92.204, 133.386 91.892, 138.453 93.427 C 141.178 94.252, 143.585 94.749, 143.802 94.531 C 144.562 93.771, 133.449 90.853, 127.597 90.276 C 123.562 89.879, 121.900 90.030, 122.348 90.754 M 125.333 91.667 C 125.700 92.033, 126.300 92.033, 126.667 91.667 C 127.033 91.300, 126.733 91, 126 91 C 125.267 91, 124.967 91.300, 125.333 91.667 M 128.333 91.667 C 128.700 92.033, 129.300 92.033, 129.667 91.667 C 130.033 91.300, 129.733 91, 129 91 C 128.267 91, 127.967 91.300, 128.333 91.667 M 112.359 95.537 C 108.653 97.281, 106.334 99.287, 104.050 102.728 L 100.882 107.500 105.545 107.809 C 109.954 108.101, 110.524 107.828, 115.991 102.809 C 119.172 99.889, 121.825 97.100, 121.887 96.610 C 121.997 95.745, 119.004 93.036, 118 93.091 C 117.725 93.107, 115.187 94.207, 112.359 95.537 M 124.500 94 C 124.840 94.550, 125.343 95, 125.618 95 C 125.893 95, 125.840 94.550, 125.500 94 C 125.160 93.450, 124.657 93, 124.382 93 C 124.107 93, 124.160 93.450, 124.500 94 M 118.067 102.935 C 115.280 105.649, 113 108.381, 113 109.005 C 113 109.629, 114.372 112.133, 116.048 114.570 C 119.481 119.560, 120.224 119.720, 129.355 117.426 L 135.620 115.852 136.949 109.865 C 137.721 106.382, 137.905 103.516, 137.388 103.014 C 136.309 101.967, 125.970 98.001, 124.317 98.001 C 123.666 98, 120.853 100.221, 118.067 102.935 M 140.333 98.667 C 140.700 99.033, 141.300 99.033, 141.667 98.667 C 142.033 98.300, 141.733 98, 141 98 C 140.267 98, 139.967 98.300, 140.333 98.667 M 150.333 99.544 C 150.333 100.345, 150.708 101, 151.167 101 C 151.625 101, 152 100.577, 152 100.059 C 152 99.541, 151.625 98.886, 151.167 98.603 C 150.708 98.320, 150.333 98.743, 150.333 99.544 M 141.333 100.667 C 141.700 101.033, 142.300 101.033, 142.667 100.667 C 143.033 100.300, 142.733 100, 142 100 C 141.267 100, 140.967 100.300, 141.333 100.667 M 139.633 104.785 C 139.366 105.216, 138.854 108.254, 138.494 111.535 L 137.840 117.500 142.845 122.389 L 147.851 127.278 152.425 124.597 C 156.356 122.293, 156.999 121.464, 156.990 118.708 C 156.985 116.944, 155.912 113.205, 154.606 110.400 C 152.481 105.837, 151.823 105.232, 148.365 104.661 C 143.149 103.799, 140.217 103.841, 139.633 104.785 M 155.203 104.875 C 154.223 105.480, 154.510 106.895, 156.457 111.079 C 157.845 114.061, 158.985 117.487, 158.990 118.693 C 158.999 120.705, 162.810 124.524, 163.810 123.523 C 164.047 123.286, 163.945 121.159, 163.584 118.796 C 162.750 113.345, 156.987 103.772, 155.203 104.875 M 38 108.704 C 35.179 109.730, 31.047 114.327, 29.946 117.665 C 28.673 121.520, 29.860 126.281, 33.130 130.438 C 35.805 133.839, 42.915 134.085, 46.113 130.887 C 49.605 127.395, 47.320 119, 42.878 119 C 40.446 119, 40.508 119.848, 43.147 122.656 C 44.923 124.547, 45.075 125.205, 44.024 126.471 C 42.253 128.605, 38.377 128.377, 36 126 C 31.110 121.110, 35.412 112, 42.611 112 C 46.759 112, 52.585 116.833, 53.509 121.042 C 54.311 124.693, 56 124.936, 56 121.401 C 56 112.800, 46.044 105.777, 38 108.704 M 96.100 114.325 C 93.390 119.061, 93 120.688, 93 127.246 C 93 133.461, 93.445 135.544, 95.594 139.389 C 98.626 144.813, 99.929 145.656, 106.663 146.550 L 111.672 147.214 115.336 142.223 C 118.791 137.517, 119 136.800, 119 129.680 C 119 122.420, 118.833 121.884, 114.685 115.814 L 110.369 109.500 104.785 109.203 L 99.200 108.906 96.100 114.325 M 106 114.958 C 104.326 115.388, 103.500 116.297, 103.500 117.710 C 103.500 120.043, 102.018 122.180, 101.970 119.917 C 101.946 118.839, 101.711 118.891, 100.984 120.136 C 99.520 122.642, 100.522 133.340, 102.503 136.364 C 103.461 137.827, 105.428 139.312, 106.873 139.666 C 108.318 140.019, 109.740 140.671, 110.034 141.114 C 110.328 141.557, 111.161 140.972, 111.885 139.813 C 113.149 137.789, 113.060 137.729, 109.623 138.286 C 107.655 138.606, 106.127 138.559, 106.228 138.184 C 106.329 137.808, 105.644 136.060, 104.706 134.300 C 100.911 127.180, 103.786 117.153, 109.319 118.210 C 111.566 118.640, 111.784 118.465, 110.951 116.909 C 109.656 114.489, 108.933 114.204, 106 114.958 M 104 116.861 C 104 117.335, 105.125 117.508, 106.500 117.245 C 107.875 116.982, 109 116.594, 109 116.383 C 109 116.173, 107.875 116, 106.500 116 C 105.125 116, 104 116.388, 104 116.861 M 127.216 119.865 L 120.931 121.500 121.216 129.853 L 121.500 138.206 126.500 140.126 C 129.250 141.183, 133.041 141.924, 134.925 141.773 C 137.917 141.534, 138.823 140.743, 142.104 135.500 C 144.169 132.200, 145.891 129.143, 145.930 128.707 C 146.066 127.169, 136.705 118.002, 135.113 118.115 C 134.226 118.178, 130.672 118.966, 127.216 119.865 M 101.079 122.583 C 101.127 123.748, 101.364 123.985, 101.683 123.188 C 101.972 122.466, 101.936 121.603, 101.604 121.271 C 101.272 120.939, 101.036 121.529, 101.079 122.583 M 114 123 C 114 123.733, 114.300 124.033, 114.667 123.667 C 115.033 123.300, 115.033 122.700, 114.667 122.333 C 114.300 121.967, 114 122.267, 114 123 M 152.500 126.393 C 148.678 128.909, 146.486 131.464, 143.194 137.242 C 139.368 143.958, 138.923 145.396, 139.194 150.150 C 139.495 155.408, 139.564 155.516, 143.207 156.416 C 146.478 157.224, 147.409 156.989, 151.128 154.416 C 156.028 151.026, 161.298 144.219, 160.544 142.253 C 160.257 141.507, 160.437 141.152, 160.942 141.464 C 162.231 142.261, 163.012 140.695, 164.583 134.169 L 165.947 128.500 162.761 125.750 C 161.009 124.237, 159.109 123.023, 158.538 123.051 C 157.967 123.078, 155.250 124.582, 152.500 126.393 M 155.074 129.411 C 154.273 130.376, 154.235 131.027, 154.951 131.470 C 156.550 132.458, 156.209 135.670, 154.058 139.887 C 151.197 145.495, 144.975 149.004, 143.662 145.750 C 143.385 145.063, 143.122 145.984, 143.079 147.798 L 143 151.096 147.430 148.048 C 152.205 144.763, 153.540 144.279, 152.387 146.250 C 151.985 146.938, 152.634 146.643, 153.828 145.595 C 156.077 143.623, 156.751 142.418, 155 143.500 C 154.450 143.840, 154 143.443, 154 142.618 C 154 140.659, 155.704 139.624, 156.262 141.244 C 156.500 141.935, 156.643 139.494, 156.580 135.820 C 156.479 129.987, 156.657 129.290, 157.982 130.320 C 159.308 131.351, 159.326 131.278, 158.128 129.750 C 156.475 127.643, 156.535 127.650, 155.074 129.411 M 101.010 131.500 C 101.012 132.050, 101.907 133.850, 103 135.500 C 105.589 139.410, 105.592 138.020, 103.004 133.774 C 101.906 131.973, 101.009 130.950, 101.010 131.500 M 158.136 134.168 C 158.061 135.086, 157.709 136.661, 157.353 137.668 C 156.853 139.082, 156.987 139.241, 157.937 138.365 C 158.615 137.741, 158.968 136.166, 158.721 134.865 C 158.474 133.564, 158.211 133.251, 158.136 134.168 M 74.535 137.944 C 73.712 139.274, 82.413 144.161, 87.147 145.027 C 90.478 145.636, 91.049 145.496, 90.787 144.132 C 90.616 143.243, 89.356 142.285, 87.988 142.004 C 86.620 141.723, 83.605 140.482, 81.290 139.246 C 76.654 136.773, 75.407 136.532, 74.535 137.944 M 162 138 C 162 138.733, 162.300 139.033, 162.667 138.667 C 163.033 138.300, 163.033 137.700, 162.667 137.333 C 162.300 136.967, 162 137.267, 162 138 M 116.549 143.639 L 112.901 148.417 115.201 150.269 C 116.465 151.288, 119.255 153.444, 121.400 155.061 C 123.545 156.677, 124.841 158, 124.281 158 C 123.720 158, 120.948 156.158, 118.120 153.907 C 115.166 151.554, 110.858 149.254, 107.990 148.497 C 102.429 147.030, 101.481 147.989, 105.907 150.604 C 107.506 151.549, 108.621 152.823, 108.386 153.436 C 108.151 154.049, 110.901 156.001, 114.498 157.775 C 119.768 160.374, 122.248 160.997, 127.269 160.985 C 131.661 160.974, 133.057 160.683, 132 160 C 130.925 159.305, 131.971 159.026, 135.691 159.015 C 141.370 158.999, 143.499 157.593, 139.403 156.565 C 136.983 155.958, 136.841 155.590, 137.144 150.708 C 137.530 144.498, 136.774 143.015, 133.191 142.956 C 130.813 142.917, 127.117 141.813, 121.849 139.566 C 120.633 139.048, 119.234 140.124, 116.549 143.639 M 61.553 146.338 C 59.897 147.549, 60.709 148.201, 70.112 153.217 C 79.710 158.337, 81.305 158.857, 91.089 160.048 C 102.727 161.465, 105.696 161.067, 104.146 158.297 C 103.537 157.208, 101.767 156.493, 99.341 156.356 C 88.673 155.753, 80.295 153.569, 72.418 149.340 C 67.973 146.953, 64.121 145, 63.859 145 C 63.597 145, 62.559 145.602, 61.553 146.338 M 148.405 149.155 C 147.962 149.870, 148.130 150.038, 148.845 149.595 C 149.480 149.203, 150 148.684, 150 148.441 C 150 147.607, 149.117 148.002, 148.405 149.155 M 149.405 153.155 C 148.962 153.870, 149.130 154.038, 149.845 153.595 C 150.480 153.203, 151 152.684, 151 152.441 C 151 151.607, 150.117 152.002, 149.405 153.155 M 127.750 156.706 C 128.988 156.944, 131.012 156.944, 132.250 156.706 C 133.488 156.467, 132.475 156.272, 130 156.272 C 127.525 156.272, 126.513 156.467, 127.750 156.706 M 118.333 157.667 C 118.700 158.033, 119.300 158.033, 119.667 157.667 C 120.033 157.300, 119.733 157, 119 157 C 118.267 157, 117.967 157.300, 118.333 157.667" stroke="none" fill="#ef9404" fill-rule="evenodd"/></svg>