<svg xmlns="http://www.w3.org/2000/svg" width="186" height="215" viewBox="0 0 186 215" version="1.1"><path d="M 77 9.715 C 69.025 14.394, 51.475 24.571, 38 32.331 C 24.525 40.091, 10.800 48.078, 7.500 50.081 L 1.500 53.722 1.241 106.719 L 0.983 159.716 21.741 171.693 C 33.159 178.280, 50.150 188.091, 59.500 193.495 C 68.850 198.899, 80.243 205.478, 84.817 208.116 L 93.134 212.912 121.817 196.286 C 153.510 177.916, 174.266 165.926, 180.750 162.243 L 185 159.829 185 106.983 L 185 54.136 182.250 52.230 C 180.738 51.182, 174.550 47.491, 168.500 44.027 C 150.107 33.498, 133.446 23.890, 113.258 12.171 C 102.675 6.027, 93.450 1.047, 92.758 1.104 C 92.066 1.161, 84.975 5.036, 77 9.715 M 49.500 30.902 L 6.500 55.777 6.241 106.370 L 5.982 156.963 9.741 159.321 C 20.725 166.212, 91.993 207, 93.048 207 C 93.729 207, 113.572 195.865, 137.143 182.255 L 180 157.510 180 106.778 L 180 56.046 177.750 54.646 C 172.030 51.087, 95.326 7.061, 94 6.576 C 93.130 6.257, 74.443 16.473, 49.500 30.902 M 82.446 19.824 C 76.976 23.028, 60.125 32.759, 45 41.449 C 29.875 50.138, 16.488 57.878, 15.250 58.647 L 13 60.046 13 106.838 L 13 153.629 16.750 155.643 C 18.813 156.751, 32.425 164.560, 47 172.996 C 61.575 181.433, 77.944 190.904, 83.375 194.044 L 93.251 199.754 103.875 193.564 C 109.719 190.159, 123.725 182.040, 135 175.522 C 146.275 169.004, 159.662 161.255, 164.750 158.303 L 174 152.935 174 106.675 L 174 60.416 167.750 56.791 C 124.868 31.919, 93.588 14, 93.054 14 C 92.690 14, 87.917 16.621, 82.446 19.824 M 67.500 48.658 C 59.389 49.956, 47.930 55.287, 41.253 60.868 C 37.365 64.118, 28.138 77, 29.698 77 C 30.043 77, 32.276 75.856, 34.662 74.458 C 37.048 73.060, 39 72.144, 39 72.423 C 39 72.702, 37.614 74.508, 35.921 76.437 C 33.126 79.621, 27.415 92.749, 28.398 93.732 C 28.623 93.957, 30.202 92.114, 31.906 89.637 C 37.537 81.453, 45.887 77.679, 55.524 78.964 C 62.512 79.896, 66.636 82.367, 69.029 87.056 C 71.269 91.448, 73 91.463, 73 87.090 C 73 85.555, 73.521 82.805, 74.157 80.980 C 75.231 77.897, 75.115 77.504, 72.524 75.437 C 70.990 74.214, 68.332 72.761, 66.617 72.209 L 63.500 71.204 66.500 71.106 C 68.150 71.052, 70.990 71.916, 72.810 73.026 C 74.631 74.136, 76.465 74.831, 76.886 74.570 C 77.308 74.310, 78.475 72.274, 79.479 70.046 C 81.229 66.165, 81.232 65.913, 79.530 64.034 C 76.338 60.506, 69.829 58.740, 61.561 59.157 C 57.403 59.367, 54 59.429, 54 59.295 C 54 59.161, 55.328 58.365, 56.950 57.526 C 60.793 55.539, 75.993 55.437, 79.800 57.373 C 85.443 60.243, 86.497 60.175, 90.947 56.654 C 93.296 54.795, 95.190 52.902, 95.157 52.447 C 94.998 50.261, 74.785 47.492, 67.500 48.658 M 103 56.097 C 103 57.618, 89.950 71, 88.467 71 C 87.804 71, 87.018 72.499, 86.721 74.332 C 86.424 76.165, 84.418 81.452, 82.265 86.082 C 78.815 93.498, 78.318 95.512, 78.088 103 C 77.945 107.675, 77.394 112.022, 76.865 112.661 C 76.236 113.420, 76.305 114.070, 77.063 114.539 C 77.701 114.934, 78.616 114.636, 79.096 113.878 C 79.744 112.855, 79.973 113.080, 79.985 114.750 C 79.993 115.987, 80.395 117, 80.878 117 C 81.362 117, 82.267 113.513, 82.891 109.250 C 83.529 104.887, 85.807 97.040, 88.104 91.295 C 91.909 81.778, 92.709 80.588, 99.964 73.657 C 104.243 69.569, 108.061 65.710, 108.449 65.082 C 108.837 64.454, 107.976 61.929, 106.535 59.470 C 103.885 54.947, 103 54.103, 103 56.097 M 97.750 71.279 C 92.193 76.457, 89.416 79.915, 87.936 83.500 C 85.572 89.223, 84.800 91.017, 82.437 96.286 C 81.503 98.368, 80.952 100.286, 81.214 100.547 C 81.476 100.809, 82.954 97.981, 84.500 94.262 C 90.079 80.833, 90.979 79.394, 98.185 72.365 C 102.208 68.441, 106.175 64.989, 107 64.694 C 108.333 64.217, 108.333 64.152, 107 64.108 C 106.175 64.080, 102.013 67.307, 97.750 71.279 M 100.657 75.250 C 94.775 80.695, 93.398 82.692, 89.957 90.757 C 86.026 99.972, 82.252 116.652, 83.757 118.157 C 84.185 118.585, 85.511 118.679, 86.704 118.367 C 88.936 117.783, 91 113.512, 91 109.476 C 91 108.251, 92.607 103.724, 94.570 99.415 C 97.477 93.036, 99.627 90.136, 106.141 83.803 C 114.475 75.701, 115.063 74.205, 111.363 70.506 C 108.969 68.112, 107.813 68.624, 100.657 75.250 M 24.053 86.444 C 21.229 89.449, 19.819 96.456, 20.884 102.189 L 21.685 106.500 22.382 102.500 C 22.766 100.300, 23.939 95.364, 24.989 91.532 C 26.038 87.700, 26.772 84.439, 26.619 84.286 C 26.466 84.133, 25.311 85.104, 24.053 86.444 M 109.497 89.004 C 107.646 91.048, 105.388 91.799, 106.500 90 C 107.523 88.345, 103.661 88.918, 101.295 90.772 C 100.082 91.723, 97.720 95.738, 96.045 99.695 C 92.730 107.527, 92.494 108.431, 94 107.500 C 95.517 106.562, 95.232 107.608, 92.500 113 C 89.642 118.639, 89.347 121, 91.500 121 C 93.147 121, 93.108 121.105, 93.444 115.727 C 93.678 111.987, 96.005 109.099, 98.840 109.032 C 100.973 108.981, 103.928 104.708, 103.383 102.461 C 102.632 99.363, 104.607 95.249, 107.193 94.523 C 113.532 92.741, 115.473 90.467, 112.652 88.126 C 111.623 87.272, 110.875 87.480, 109.497 89.004 M 115.667 88.667 C 114.149 90.185, 115.147 92, 117.500 92 C 120.230 92, 120.664 91.064, 118.800 89.200 C 117.441 87.841, 116.631 87.703, 115.667 88.667 M 101.073 95.728 C 99.383 97.778, 98 99.903, 98 100.450 C 98 100.997, 98.745 100.332, 99.656 98.973 C 100.567 97.613, 102.220 95.487, 103.330 94.250 C 104.440 93.013, 105.078 92, 104.747 92 C 104.416 92, 102.763 93.678, 101.073 95.728 M 112.690 93.452 C 111.839 94.304, 110.221 95, 109.094 95 C 106.370 95, 103.611 99.313, 104.379 102.372 C 105.109 105.283, 101.753 110, 98.950 110 C 96.344 110, 93.650 114.321, 94.529 117.091 C 95.101 118.894, 94.065 120.383, 88.658 125.530 C 80.927 132.890, 79.872 135.607, 83.025 140.036 C 84.811 142.543, 85.729 143.034, 87.705 142.538 C 90.690 141.789, 94.754 137.412, 95.632 134 C 95.986 132.625, 96.694 130.968, 97.205 130.317 C 97.821 129.532, 97.431 128.431, 96.044 127.044 C 94.356 125.356, 94.162 124.565, 95.038 122.929 C 95.634 121.815, 97.176 120.504, 98.464 120.014 C 101.341 118.920, 101.919 118.032, 102.391 113.977 C 102.762 110.787, 105.937 105.575, 107.608 105.414 C 111.236 105.062, 113.693 101.619, 113.119 97.690 C 112.973 96.695, 113.401 95.222, 114.070 94.416 C 115.760 92.379, 114.585 91.558, 112.690 93.452 M 115.287 95.250 C 114.710 96.487, 114.180 98.850, 114.110 100.500 C 113.983 103.499, 110.518 107.283, 108.500 106.628 C 106.974 106.132, 104.014 111.152, 104.007 114.250 C 104 117.093, 100.952 121, 98.741 121 C 98.048 121, 96.948 121.853, 96.297 122.896 C 95.321 124.459, 95.460 125.106, 97.088 126.579 C 98.792 128.122, 99.237 128.170, 100.343 126.933 C 107.153 119.311, 114.215 110.797, 116.370 107.610 C 117.816 105.471, 119 104.204, 119 104.795 C 119 105.386, 116.188 109.341, 112.750 113.584 C 103.702 124.754, 102.767 126, 103.433 126 C 104.862 126, 118.269 112.224, 119.491 109.500 C 120.430 107.407, 120.862 107.055, 120.918 108.337 C 120.963 109.347, 118.300 112.985, 115 116.421 C 111.700 119.858, 109 123.194, 109 123.835 C 109 126.350, 111.784 124.650, 118.204 118.217 C 125.311 111.096, 127.838 106, 124.262 106 C 122.346 106, 122.342 105.897, 124.080 100.764 C 125.900 95.389, 125.376 93, 122.378 93 C 120.725 93, 120.595 94.195, 122.085 95.685 C 122.865 96.465, 122.717 97.646, 121.559 99.885 C 120.673 101.598, 119.724 103, 119.449 103 C 119.174 103, 119.668 101.609, 120.547 99.909 C 122.027 97.047, 122.017 96.677, 120.418 94.909 C 118.141 92.394, 116.572 92.498, 115.287 95.250 M 134.690 93.709 C 134.427 94.144, 132.991 98.048, 131.499 102.384 C 129.092 109.382, 128.060 110.947, 122.320 116.317 C 118.764 119.644, 114.996 124.048, 113.947 126.104 C 112.580 128.784, 110.335 130.780, 106.020 133.152 C 102.709 134.972, 100 137.081, 100 137.838 C 100 138.595, 100.563 139.002, 101.250 138.743 C 101.938 138.484, 106.011 137.448, 110.301 136.441 C 117.518 134.747, 118.754 134.053, 126.801 127.174 C 131.586 123.085, 135.836 119.235, 136.246 118.619 C 137.415 116.865, 143 98.930, 143 96.930 C 143 95.927, 142.007 94.849, 140.750 94.488 C 139.512 94.132, 137.750 93.634, 136.834 93.380 C 135.918 93.126, 134.953 93.274, 134.690 93.709 M 142.073 106.719 C 140.277 112.614, 138.288 118.161, 137.654 119.046 C 135.221 122.439, 121.348 134.301, 118.264 135.625 C 116.484 136.390, 112.772 137.499, 110.014 138.090 C 107.256 138.682, 105 139.578, 105 140.083 C 105 140.587, 105.112 141, 105.250 140.999 C 106.468 140.995, 120.601 137.760, 121.427 137.297 C 125.944 134.758, 139.851 123.634, 140.810 121.792 C 143.431 116.758, 147.950 100.648, 147.379 98.373 C 147.051 97.068, 146.458 96, 146.061 96 C 145.664 96, 143.870 100.823, 142.073 106.719 M 150.531 98.146 C 150.264 98.891, 148.410 104.450, 146.410 110.500 C 144.411 116.550, 142.378 122.252, 141.894 123.171 C 140.352 126.098, 123.688 138.290, 119.516 139.543 C 117.307 140.206, 113.228 141.060, 110.452 141.440 C 103.648 142.373, 102.483 143.165, 103.932 145.873 C 104.624 147.166, 106.135 148.053, 107.785 148.136 C 110.143 148.254, 110.204 148.329, 108.250 148.706 C 105.864 149.165, 105.312 150.457, 107.044 151.527 C 107.618 151.882, 108.792 151.588, 109.652 150.873 C 110.638 150.055, 114.784 149.477, 120.859 149.310 C 128.980 149.086, 130.625 148.764, 131.295 147.265 C 132.310 144.989, 150.669 133, 153.138 133 C 154.597 133, 155 132.248, 155 129.520 C 155 125.093, 162.570 106.077, 165.275 103.710 C 167.582 101.691, 166.796 100.348, 163.006 99.836 C 160.652 99.519, 160.219 100.280, 155.312 113.330 C 152.452 120.936, 149.524 127.878, 148.806 128.756 C 146.050 132.125, 127.814 145.998, 126.199 145.955 C 125.044 145.924, 125.324 145.524, 127.070 144.705 C 128.483 144.042, 133.952 139.999, 139.222 135.719 L 148.805 127.938 154.020 113.851 C 159.296 99.598, 159.423 98.069, 155.332 98.015 C 154.689 98.007, 153.456 97.728, 152.590 97.396 C 151.708 97.058, 150.803 97.387, 150.531 98.146 M 105 100 C 105 100.733, 105.300 101.033, 105.667 100.667 C 106.033 100.300, 106.033 99.700, 105.667 99.333 C 105.300 98.967, 105 99.267, 105 100 M 106.813 102.683 C 107.534 102.972, 108.397 102.936, 108.729 102.604 C 109.061 102.272, 108.471 102.036, 107.417 102.079 C 106.252 102.127, 106.015 102.364, 106.813 102.683 M 80.286 107.500 C 80.294 110.250, 80.488 111.256, 80.718 109.736 C 80.947 108.216, 80.941 105.966, 80.704 104.736 C 80.467 103.506, 80.279 104.750, 80.286 107.500 M 83.872 134.750 C 82.680 136.271, 82.697 136.354, 84 135.384 C 84.825 134.771, 86.175 134.019, 87 133.713 C 88.255 133.249, 88.234 133.145, 86.872 133.079 C 85.977 133.036, 84.627 133.787, 83.872 134.750 M 77.241 135.986 C 75.237 139.195, 75.708 144.650, 78.189 146.961 C 80.361 148.985, 88.745 150.014, 87.570 148.113 C 87.268 147.625, 87.804 147.288, 88.760 147.363 C 89.845 147.448, 90.617 146.673, 90.812 145.303 C 91.095 143.317, 90.792 143.159, 87.676 143.665 C 84.649 144.156, 83.937 143.833, 81.863 141.024 C 80.563 139.263, 79.641 136.962, 79.813 135.911 C 80.220 133.422, 78.817 133.463, 77.241 135.986 M 84.750 138.662 C 85.438 138.940, 86.563 138.940, 87.250 138.662 C 87.938 138.385, 87.375 138.158, 86 138.158 C 84.625 138.158, 84.063 138.385, 84.750 138.662 M 74.005 145.382 C 74.002 146.417, 73.068 148.773, 71.928 150.617 C 69.565 154.440, 70.049 157.563, 73.156 158.550 C 74.725 159.047, 75.911 158.351, 78.178 155.601 C 79.810 153.620, 81.900 151.997, 82.823 151.994 C 83.820 151.990, 83.283 151.370, 81.500 150.465 C 79.850 149.627, 77.490 147.718, 76.255 146.221 C 74.352 143.915, 74.009 143.787, 74.005 145.382 M 113.500 147 L 110.500 147.763 114 147.763 C 115.925 147.763, 118.850 147.420, 120.500 147 L 123.500 146.237 120 146.237 C 118.075 146.237, 115.150 146.580, 113.500 147 M 129.439 154.507 C 127.755 155.247, 121.795 156.424, 116.193 157.123 C 106.472 158.336, 105.941 158.305, 104.536 156.447 C 103.726 155.376, 103.049 154.976, 103.032 155.559 C 103.014 156.141, 103.624 157.471, 104.387 158.514 C 105.606 160.182, 106.896 160.375, 115.054 160.117 C 125.314 159.792, 127.115 159.298, 131.500 155.601 C 134.805 152.815, 134.120 152.452, 129.439 154.507 M 65.349 157.394 C 62.107 164.194, 66.814 169.385, 72.894 165.716 C 76.437 163.577, 76.985 160, 73.770 160 C 70.948 160, 69 158.284, 69 155.800 C 69 152.897, 67.098 153.728, 65.349 157.394" stroke="none" fill="#f19504" fill-rule="evenodd"/></svg>