<svg xmlns="http://www.w3.org/2000/svg" width="186" height="215" viewBox="0 0 186 215" version="1.1"><path d="M 83.500 6.873 C 79.100 9.519, 69.875 14.916, 63 18.868 C 56.125 22.819, 39.475 32.453, 26 40.276 L 1.500 54.500 1.241 107.650 L 0.983 160.799 6.241 163.792 C 9.134 165.438, 17.125 170.046, 24 174.033 C 30.875 178.020, 42.125 184.526, 49 188.491 C 55.875 192.456, 68.613 199.816, 77.306 204.847 L 93.111 213.994 121.806 197.343 C 155.404 177.847, 174.821 166.615, 180.750 163.245 L 185 160.829 184.983 107.665 L 184.966 54.500 173.733 48.082 C 167.555 44.551, 157.325 38.655, 151 34.977 C 104.959 8.211, 94 2.004, 92.830 2.031 C 92.098 2.048, 87.900 4.227, 83.500 6.873 M 49.500 31.902 L 6.500 56.777 6.241 107.370 L 5.982 157.963 9.741 160.321 C 20.559 167.108, 91.985 208, 93.020 208 C 93.686 208, 113.527 196.862, 137.110 183.250 L 179.990 158.500 179.995 107.773 L 180 57.046 177.750 55.646 C 172.030 52.087, 95.326 8.061, 94 7.576 C 93.130 7.257, 74.443 17.473, 49.500 31.902 M 55 36.620 C 34.375 48.511, 16.488 58.871, 15.250 59.643 L 13 61.046 13 107.838 L 13 154.629 16.885 156.703 C 19.021 157.843, 28.134 163.057, 37.135 168.288 C 46.136 173.520, 62.432 182.972, 73.350 189.292 L 93.199 200.784 103.850 194.582 C 109.707 191.170, 123.725 183.049, 135 176.535 C 146.275 170.020, 159.662 162.270, 164.750 159.312 L 174 153.935 174 107.708 C 174 64.761, 173.876 61.404, 172.250 60.401 C 170.607 59.386, 153.711 49.620, 111.577 25.332 C 101.719 19.649, 93.394 15, 93.077 15.001 C 92.760 15.001, 75.625 24.730, 55 36.620 M 88.866 33.840 C 81.116 40.923, 69.868 57.990, 69.232 63.632 C 68.959 66.060, 68.344 68.287, 67.867 68.582 C 66.626 69.349, 66.794 58.889, 68.082 55.194 C 68.677 53.487, 69.009 51.285, 68.819 50.301 C 68.566 48.987, 66.995 50.368, 62.901 55.506 C 55.881 64.315, 55.586 64.928, 54.034 73.936 C 52.784 81.188, 52.721 81.299, 51.496 78.436 C 50.328 75.706, 50.179 75.641, 49.377 77.500 C 48.902 78.600, 48.511 83.661, 48.507 88.746 C 48.503 93.832, 48.398 97.994, 48.274 97.996 C 48.149 97.998, 45.499 94.613, 42.383 90.474 C 39.268 86.335, 36.561 83.106, 36.368 83.298 C 35.535 84.132, 42.406 113.967, 44.483 118.531 C 45.742 121.298, 48.687 125.291, 51.027 127.405 C 54.689 130.714, 55.408 131.022, 56.191 129.623 C 56.747 128.629, 56.693 125.789, 56.050 122.315 C 55.473 119.190, 55 115.383, 55 113.855 L 55 111.077 58.975 115.289 L 62.950 119.500 62.975 112.270 C 62.999 105.384, 65.213 97, 67.009 97 C 67.444 97, 68.341 99.251, 69.001 102.003 C 69.661 104.755, 70.527 107.208, 70.926 107.454 C 71.325 107.701, 72.208 103.087, 72.888 97.201 C 73.957 87.957, 74.627 85.615, 77.813 80 L 81.500 73.500 82 82.998 L 82.500 92.495 87.362 86.519 C 92.920 79.686, 93.841 77.664, 94.879 70.012 L 95.627 64.500 97.392 68.500 C 102.691 80.513, 104.737 87.919, 105.415 97.549 C 105.975 105.497, 105.803 108.248, 104.558 111.218 C 102.323 116.552, 102.580 116.799, 106.454 113.045 C 108.353 111.204, 110.220 108.303, 110.601 106.599 L 111.294 103.500 112.571 107 C 114.142 111.307, 114.315 116.042, 113.025 119.435 C 111.978 122.188, 112.807 122.777, 114.876 120.750 C 115.902 119.746, 115.899 120.090, 114.863 122.500 C 114.154 124.150, 112.882 126.625, 112.037 128 C 110.799 130.013, 111.450 129.725, 115.382 126.522 C 121.517 121.521, 123.998 117.576, 127.344 107.497 C 129.595 100.712, 129.992 97.818, 129.945 88.497 L 129.890 77.500 127.108 85.500 C 124.660 92.536, 121.374 100.001, 120.724 100 C 120.601 100, 120.487 91.112, 120.470 80.250 L 120.440 60.500 116.615 51.250 C 114.511 46.163, 112.441 42, 112.014 42 C 111.588 42, 111.034 46.163, 110.783 51.250 C 110.533 56.337, 109.681 62.019, 108.891 63.876 L 107.455 67.252 104.832 62.376 C 102.877 58.742, 101.890 54.761, 100.959 46.750 C 100.271 40.837, 99.436 36, 99.102 36 C 98.768 36, 96.734 38.813, 94.584 42.250 C 92.433 45.688, 90.484 47.938, 90.254 47.252 C 90.023 46.565, 91.043 42.374, 92.521 37.938 C 93.998 33.503, 94.992 29.658, 94.729 29.395 C 94.466 29.133, 91.828 31.133, 88.866 33.840 M 105.667 33.667 C 104.516 34.817, 104.938 36, 106.500 36 C 107.325 36, 108 35.325, 108 34.500 C 108 32.938, 106.817 32.516, 105.667 33.667 M 79 62 C 79 62.550, 79.450 63, 80 63 C 80.550 63, 81 62.550, 81 62 C 81 61.450, 80.550 61, 80 61 C 79.450 61, 79 61.450, 79 62 M 97.639 78.694 C 96.513 79.820, 96.954 81, 98.500 81 C 99.325 81, 100 80.577, 100 80.059 C 100 78.798, 98.438 77.895, 97.639 78.694 M 91.362 98.500 C 90.464 100.839, 91.731 103, 94 103 C 96.544 103, 97.651 100.489, 95.989 98.487 C 94.402 96.574, 92.098 96.580, 91.362 98.500 M 78.192 100.075 C 78.389 100.666, 78.977 101.150, 79.500 101.150 C 80.023 101.150, 80.611 100.666, 80.808 100.075 C 81.005 99.484, 80.417 99, 79.500 99 C 78.583 99, 77.995 99.484, 78.192 100.075 M 49 109 C 49 109.733, 49.300 110.033, 49.667 109.667 C 50.033 109.300, 50.033 108.700, 49.667 108.333 C 49.300 107.967, 49 108.267, 49 109 M 85 112.254 C 68.913 119.452, 65 121.895, 65 124.741 C 65 127.435, 65.132 127.447, 72.068 125.388 C 81.982 122.444, 95 115.022, 95 112.312 C 95 110.686, 88.586 110.649, 85 112.254 M 92.506 116.993 C 89.526 120.286, 79.046 125.490, 69.157 128.588 C 67.716 129.039, 71.804 137.268, 76.738 143.845 C 79.130 147.034, 79.463 147.158, 83.873 146.507 C 90.498 145.529, 99.410 140.534, 101.420 136.672 C 103.024 133.589, 102.975 133.249, 99.648 124.537 C 97.765 119.608, 95.804 115.435, 95.289 115.263 C 94.775 115.092, 93.523 115.870, 92.506 116.993 M 101.590 138.827 C 99.759 142.367, 90.178 147.576, 83.750 148.525 C 76.779 149.555, 77.696 151.390, 84.750 150.527 C 94.231 149.366, 105 142.223, 105 137.096 C 105 135.017, 103.047 136.008, 101.590 138.827 M 94.500 149 C 91.750 150.631, 88.600 151.980, 87.500 151.998 C 84.378 152.049, 87.854 153.966, 91.102 153.985 C 94.272 154.003, 100.362 150.072, 100.816 147.715 C 101.269 145.364, 100.296 145.562, 94.500 149 M 98.102 152.691 C 96.233 153.961, 93.646 155, 92.352 155 C 90.928 155, 90 155.592, 90 156.500 C 90 157.543, 91.049 158, 93.444 158 C 97.346 158, 102.440 154.306, 101.863 151.896 C 101.563 150.646, 100.907 150.785, 98.102 152.691 M 100.687 156.088 C 99.131 157.699, 96.812 159, 95.496 159 C 91.723 159, 91.654 160.609, 95.176 166.498 C 98.919 172.756, 101.200 173.452, 105.589 169.677 C 107.894 167.695, 108.191 166.853, 107.619 163.927 C 107.250 162.042, 106.172 158.852, 105.224 156.838 L 103.500 153.177 100.687 156.088 M 109 168.284 C 109 170.103, 103.715 173, 100.396 173 C 98.411 173, 97.910 173.310, 98.669 174.069 C 100.348 175.748, 103.258 175.859, 106.220 174.358 C 109.916 172.485, 112.734 167, 110 167 C 109.450 167, 109 167.578, 109 168.284 M 111 172.315 C 111 173.828, 104.883 177, 101.966 177 C 99.594 177, 99.445 178.302, 101.571 180.429 C 106.097 184.954, 115.695 178.580, 113.392 172.579 C 112.658 170.667, 111 170.484, 111 172.315" stroke="none" fill="#f39604" fill-rule="evenodd"/></svg>