<svg xmlns="http://www.w3.org/2000/svg" width="64" height="64" viewBox="0 0 64 64" version="1.1"><path d="M 8.726 10.741 C 8.352 14.059, 8.763 16.985, 10.095 20.491 C 11.142 23.246, 11.999 25.613, 11.999 25.750 C 12 25.887, 11.100 26, 10 26 C 8.090 26, 8 26.667, 8 40.800 C 8 50.978, 8.375 55.975, 9.200 56.800 C 10.061 57.661, 16.681 58, 32.665 58 C 53.654 58, 54.989 57.889, 55.965 56.066 C 56.538 54.995, 57 47.849, 57 40.066 C 57 26.514, 56.924 26, 54.933 26 C 53.252 26, 52.994 25.579, 53.552 23.750 C 53.930 22.512, 54.826 20.066, 55.543 18.313 C 56.259 16.560, 56.682 14.310, 56.483 13.313 C 56.284 12.316, 55.860 10.262, 55.541 8.750 L 54.962 6 32.111 6 L 9.260 6 8.726 10.741 M 11.755 10.500 C 11.393 12.394, 11.700 13, 13.022 13 C 14.089 13, 14.952 12.029, 15.245 10.500 C 15.607 8.606, 15.300 8, 13.978 8 C 12.911 8, 12.048 8.971, 11.755 10.500 M 18 10.500 C 18 12.796, 18.367 13, 22.500 13 C 26.633 13, 27 12.796, 27 10.500 C 27 8.204, 26.633 8, 22.500 8 C 18.367 8, 18 8.204, 18 10.500 M 30 11.500 C 30 14.567, 30.310 15, 32.500 15 C 34.690 15, 35 14.567, 35 11.500 C 35 8.433, 34.690 8, 32.500 8 C 30.310 8, 30 8.433, 30 11.500 M 37 10.500 C 37 12.833, 37.333 13, 42 13 C 44.750 13, 47 12.587, 47 12.082 C 47 11.577, 46.727 10.452, 46.393 9.582 C 45.967 8.472, 44.476 8, 41.393 8 C 37.374 8, 37 8.213, 37 10.500 M 49.180 10.240 C 49.356 11.472, 50.288 12.630, 51.250 12.813 C 52.550 13.061, 53 12.485, 53 10.573 C 53 8.638, 52.487 8, 50.930 8 C 49.359 8, 48.938 8.539, 49.180 10.240 M 12 16.980 C 12 17.519, 12.724 19.769, 13.609 21.980 C 14.493 24.191, 15.618 26, 16.109 26 C 16.599 26, 17 25.325, 17 24.500 C 17 23.562, 17.948 23, 19.531 23 C 20.924 23, 22.322 22.325, 22.638 21.500 C 23.012 20.528, 24.562 20, 27.048 20 C 29.157 20, 31.173 20.472, 31.530 21.048 C 31.928 21.693, 33.879 21.841, 36.602 21.432 C 39.306 21.027, 42.161 21.238, 43.942 21.976 C 45.545 22.640, 47.100 23.817, 47.397 24.592 C 47.694 25.366, 48.359 26, 48.875 26 C 49.390 26, 50.529 23.895, 51.406 21.322 C 52.283 18.749, 53 16.499, 53 16.322 C 53 16.145, 49.625 16, 45.500 16 C 41.167 16, 38 16.422, 38 17 C 38 17.550, 35.525 18, 32.500 18 C 29.475 18, 27 17.550, 27 17 C 27 16.422, 23.833 16, 19.500 16 C 15.270 16, 12 16.427, 12 16.980 M 25.750 23.080 C 24.788 23.641, 24 24.527, 24 25.050 C 24 25.593, 28.603 25.987, 34.750 25.970 C 42.972 25.946, 45.061 25.684, 43.632 24.854 C 42.485 24.188, 39.539 24.020, 36.003 24.420 C 31.331 24.949, 30.130 24.782, 29.652 23.536 C 29.328 22.691, 28.711 22.014, 28.281 22.030 C 27.852 22.047, 26.712 22.519, 25.750 23.080 M 11 42 C 11 54.333, 11.103 55, 13 55 C 14.897 55, 15 54.333, 15 42 C 15 29.667, 14.897 29, 13 29 C 11.103 29, 11 29.667, 11 42 M 18 42 L 18 55 32.500 55 L 47 55 47 42 L 47 29 42.548 29 L 38.095 29 37.798 35.250 L 37.500 41.500 32.500 41.500 L 27.500 41.500 27.202 35.250 L 26.905 29 22.452 29 L 18 29 18 42 M 30 34 C 30 38.667, 30.167 39, 32.500 39 C 34.833 39, 35 38.667, 35 34 C 35 29.333, 34.833 29, 32.500 29 C 30.167 29, 30 29.333, 30 34 M 50 42.073 C 50 53.985, 50.155 55.117, 51.750 54.811 C 53.290 54.516, 53.534 52.943, 53.780 41.738 C 54.048 29.512, 53.978 29, 52.030 29 C 50.094 29, 50 29.603, 50 42.073 M 31 32.500 C 31 34.056, 31.567 35, 32.500 35 C 33.433 35, 34 34.056, 34 32.500 C 34 30.944, 33.433 30, 32.500 30 C 31.567 30, 31 30.944, 31 32.500" stroke="none" fill="#ffffff" fill-rule="evenodd"/></svg>