<svg xmlns="http://www.w3.org/2000/svg" width="186" height="215" viewBox="0 0 186 215" version="1.1"><path d="M 77 10.715 C 69.025 15.394, 51.475 25.571, 38 33.331 C 24.525 41.091, 10.800 49.078, 7.500 51.081 L 1.500 54.722 1.241 107.738 L 0.983 160.753 19.741 171.580 C 30.059 177.534, 43.675 185.391, 50 189.038 C 56.325 192.686, 68.614 199.777, 77.310 204.795 L 93.120 213.920 121.810 197.307 C 161.892 174.097, 175.833 166.040, 180.750 163.245 L 185 160.829 184.991 107.665 L 184.982 54.500 170.241 46.037 C 148.638 33.634, 134.833 25.668, 113.258 13.158 C 102.675 7.021, 93.450 2.047, 92.758 2.104 C 92.066 2.161, 84.975 6.036, 77 10.715 M 49.500 31.902 L 6.500 56.777 6.241 107.370 L 5.982 157.963 9.741 160.321 C 20.538 167.094, 91.984 208, 93.016 208 C 93.680 208, 113.523 196.868, 137.112 183.262 L 180 158.523 180 107.785 L 180 57.046 177.750 55.646 C 172.030 52.087, 95.326 8.061, 94 7.576 C 93.130 7.257, 74.443 17.473, 49.500 31.902 M 82.446 20.824 C 76.976 24.028, 60.125 33.759, 45 42.449 C 29.875 51.138, 16.488 58.878, 15.250 59.647 L 13 61.046 13 107.854 L 13 154.662 15.711 156.081 C 17.201 156.861, 35.250 167.236, 55.820 179.137 L 93.218 200.773 103.859 194.576 C 109.711 191.168, 123.725 183.049, 135 176.535 C 146.275 170.020, 159.662 162.270, 164.750 159.312 L 174 153.935 174 107.667 L 174 61.399 157.750 52.012 C 148.813 46.850, 130.758 36.410, 117.629 28.813 C 104.499 21.216, 93.450 15, 93.075 15 C 92.700 15, 87.917 17.621, 82.446 20.824 M 82 44.427 C 75.265 46.294, 68.920 49.417, 65 52.792 C 61.064 56.180, 61.661 58.366, 65.807 55.742 C 82.765 45.009, 97.168 43.593, 112.780 51.125 C 123.714 56.400, 133.890 69.208, 135.589 79.833 C 135.960 82.149, 136.693 84.310, 137.218 84.635 C 139.141 85.823, 139.881 83.415, 138.914 79.112 C 135.302 63.040, 121.261 48.818, 104.632 44.390 C 98.379 42.725, 88.076 42.742, 82 44.427 M 46.196 54.298 C 44.438 56.111, 43 57.873, 43 58.214 C 43 58.554, 44.829 60.280, 47.064 62.050 L 51.127 65.269 54.564 61.938 C 56.454 60.106, 58 58.061, 58 57.393 C 58 55.914, 52.327 51, 50.619 51 C 49.945 51, 47.954 52.484, 46.196 54.298 M 86.223 56.062 C 81.123 57.067, 72 61.833, 72 63.492 C 72 65.927, 73.376 65.805, 78.489 62.919 C 93.370 54.521, 113.111 60.492, 120.338 75.576 C 124.581 84.433, 124.648 84.539, 125.609 84 C 128.523 82.365, 123.960 71.908, 117.526 65.474 C 112.384 60.331, 107.424 57.654, 100.201 56.123 C 94.253 54.862, 92.352 54.854, 86.223 56.062 M 58.592 63.345 C 56.616 65.264, 55 67.173, 55 67.588 C 55 68.003, 56.991 70.251, 59.425 72.583 C 64.107 77.069, 65.058 79.941, 63.837 85.907 C 62.725 91.343, 59.061 94.247, 52.647 94.779 C 47.271 95.225, 47.069 95.144, 42.229 90.617 C 39.514 88.078, 36.889 85.997, 36.396 85.994 C 35.903 85.990, 34.066 87.639, 32.314 89.659 L 29.128 93.330 33.512 98.462 C 39.183 105.101, 45.318 108.194, 52.957 108.266 C 62.135 108.352, 69.657 103.793, 74.845 95 C 77.002 91.345, 77.493 89.280, 77.463 84 C 77.410 74.712, 74.869 70.383, 64.342 61.647 C 62.232 59.897, 62.104 59.934, 58.592 63.345 M 86.398 68.272 C 80.550 70.587, 78.667 72.376, 79.458 74.867 C 80.110 76.921, 80.346 76.997, 81.842 75.643 C 89.624 68.600, 104.489 71.779, 109.210 81.496 C 110.374 83.892, 112.208 86.083, 113.284 86.364 C 115.032 86.821, 115.179 86.490, 114.656 83.265 C 112.954 72.779, 96.743 64.178, 86.398 68.272 M 49.569 73.250 C 48.839 75.037, 47.711 79.608, 47.064 83.406 C 46.112 88.993, 46.137 90.471, 47.194 91.141 C 49.575 92.651, 50 92.044, 50 87.126 C 50 84.445, 50.675 80.338, 51.500 78 C 52.325 75.662, 53 72.905, 53 71.874 C 53 68.902, 51.023 69.694, 49.569 73.250 M 23.209 77.284 C 21.444 79.105, 20.013 81.024, 20.029 81.548 C 20.067 82.775, 25.715 89, 26.790 89 C 27.240 89, 29.129 87.430, 30.988 85.512 L 34.369 82.024 31.376 78.326 C 29.730 76.292, 27.941 74.480, 27.401 74.300 C 26.861 74.120, 24.974 75.463, 23.209 77.284 M 59.627 82.261 C 59.297 83.493, 59.035 85.400, 59.045 86.500 C 59.063 88.473, 59.083 88.474, 60.532 86.559 C 62.173 84.389, 62.463 81.404, 61.114 80.570 C 60.626 80.269, 59.957 81.030, 59.627 82.261 M 87.923 83.923 C 84.447 87.399, 84.082 91.677, 86.967 95.139 L 88.933 97.500 88.967 94.823 C 89.004 91.845, 95.139 86, 98.228 86 C 100.940 86, 100.339 84.227, 97.050 82.526 C 92.858 80.358, 91.240 80.606, 87.923 83.923 M 119.627 89.398 C 117.843 90.829, 117.890 90.927, 120.627 91.466 C 122.207 91.778, 125.279 92.437, 127.452 92.931 C 130.414 93.605, 131.911 93.476, 133.425 92.415 C 134.536 91.637, 137.685 91, 140.423 91 C 143.782 91, 145.071 90.671, 144.387 89.987 C 143.830 89.430, 138.453 88.732, 132.437 88.435 C 123.613 88, 121.138 88.186, 119.627 89.398 M 98 89.706 C 97.175 90.008, 95.487 91.176, 94.250 92.302 C 92.290 94.085, 92 95.338, 92 102.019 C 92 108.420, 92.331 109.990, 94 111.500 C 95.986 113.297, 96 113.247, 96 104.346 C 96 92.472, 96.402 91.989, 106.866 91.272 C 111.890 90.927, 114.622 90.376, 113.820 89.868 C 112.373 88.950, 100.402 88.828, 98 89.706 M 143.227 91.733 C 140.877 91.944, 139.212 92.534, 139.527 93.044 C 139.860 93.582, 138.822 93.714, 137.050 93.360 C 132.640 92.478, 133.281 94.443, 137.900 95.967 C 140.556 96.844, 143.935 97.026, 148.491 96.538 L 155.181 95.821 152.916 93.411 C 151.671 92.085, 149.942 91.079, 149.076 91.175 C 148.209 91.271, 145.577 91.522, 143.227 91.733 M 108.311 93.616 C 108.758 94.078, 111.458 94.776, 114.311 95.167 C 117.880 95.656, 117.002 95.724, 111.500 95.385 C 107.100 95.113, 102.487 94.642, 101.250 94.337 C 100.013 94.033, 99 94.229, 99 94.775 C 99 96.224, 102.421 96.980, 112.089 97.666 C 121.062 98.302, 130 97.484, 130 96.027 C 130 95.075, 126.064 94.393, 115 93.429 C 110.875 93.070, 107.865 93.154, 108.311 93.616 M 146.250 93.689 C 147.213 93.941, 148.787 93.941, 149.750 93.689 C 150.713 93.438, 149.925 93.232, 148 93.232 C 146.075 93.232, 145.287 93.438, 146.250 93.689 M 97.538 97.796 C 96.442 98.891, 97.031 111.658, 98.250 113.240 C 100.267 115.856, 103.447 115.874, 103.817 113.270 C 103.991 112.044, 105.436 110.114, 107.028 108.980 L 109.922 106.919 113.961 108.980 C 116.955 110.507, 118 111.651, 118 113.398 C 118 116.873, 120.230 118.155, 125.672 117.808 L 130.500 117.500 130.789 108.102 L 131.079 98.705 121.289 99.243 C 115.275 99.574, 108.911 99.295, 104.788 98.520 C 101.096 97.826, 97.834 97.500, 97.538 97.796 M 132.607 98.582 C 132.273 99.452, 132 103.222, 132 106.960 C 132 113.652, 132.049 113.778, 135.174 115.072 C 141.912 117.863, 150 115.373, 150 110.507 C 150 108.948, 151.088 107.255, 153 105.842 C 155.219 104.202, 156 102.811, 156 100.503 L 156 97.382 148.750 98.163 C 144.512 98.619, 140.046 98.542, 138 97.977 C 133.430 96.716, 133.318 96.728, 132.607 98.582 M 75.234 99.996 C 74.310 101.477, 74.471 102.329, 76.059 104.347 C 78.199 107.068, 83.161 110.367, 86.750 111.453 C 88.658 112.031, 89 111.761, 89 109.676 C 89 107.880, 88.319 107.046, 86.474 106.583 C 85.085 106.234, 82.246 104.195, 80.166 102.052 C 76.663 98.442, 76.300 98.291, 75.234 99.996 M 153 108.441 C 153 109.298, 152.550 110, 152 110 C 151.450 110, 151 111.111, 151 112.468 C 151 114.089, 150.136 115.389, 148.484 116.255 C 146.243 117.428, 146.118 117.779, 147.339 119.449 C 148.981 121.695, 152.542 120.855, 151.615 118.440 C 151.243 117.471, 151.433 117.149, 152.123 117.576 C 152.728 117.950, 153.616 117.636, 154.096 116.878 C 155.296 114.985, 155.227 108.258, 154 107.500 C 153.450 107.160, 153 107.584, 153 108.441 M 65.451 109.079 C 64.509 110.604, 73.186 118.397, 78.725 121.001 C 84.819 123.865, 94 124.919, 94 122.753 C 94 121.714, 92.582 121.014, 89.553 120.560 C 83.519 119.655, 73.390 114.446, 70.768 110.900 C 68.542 107.889, 66.598 107.223, 65.451 109.079 M 107.250 110.674 C 105.573 111.844, 105 113.232, 105 116.122 C 105 118.255, 105.347 120, 105.771 120 C 106.195 120, 107.638 117.993, 108.978 115.540 C 110.318 113.088, 111.597 111.264, 111.821 111.488 C 112.045 111.712, 111.189 113.577, 109.918 115.632 C 108.424 118.050, 108.011 119.504, 108.748 119.749 C 109.375 119.958, 109.657 120.730, 109.376 121.463 C 108.471 123.822, 111.065 124.275, 115.087 122.461 C 119.046 120.676, 119.819 119.624, 118 118.500 C 117.450 118.160, 117 116.559, 117 114.941 C 117 111.037, 115.641 111.227, 113 115.500 C 110.234 119.975, 109.555 120, 111.678 115.548 C 113.031 112.712, 113.095 111.820, 112.040 110.548 C 110.480 108.669, 110.111 108.679, 107.250 110.674 M 52.577 111.875 C 51.827 113.090, 56.796 119.685, 62.181 124.622 C 68.279 130.212, 78.745 135.076, 86.113 135.744 C 91.118 136.198, 92 136.032, 92 134.639 C 92 133.462, 91.084 132.993, 88.750 132.973 C 79.806 132.901, 65.880 125.015, 58.586 115.894 C 54.654 110.977, 53.577 110.257, 52.577 111.875 M 97.932 116.691 C 97.894 117.136, 97.923 121.257, 97.996 125.849 C 98.082 131.268, 97.773 133.977, 97.114 133.571 C 96.557 133.226, 95.628 133.827, 95.050 134.906 C 93.589 137.636, 93.704 151.304, 95.200 152.800 C 97.063 154.663, 98.185 154.214, 97.035 152.066 C 95.845 149.842, 95.614 140.643, 96.766 141.356 C 97.188 141.616, 98.046 140.743, 98.672 139.415 C 99.574 137.505, 99.535 137, 98.489 137 C 97.762 137, 96.940 137.563, 96.662 138.250 C 96.264 139.236, 96.141 139.238, 96.079 138.258 C 96.036 137.576, 96.900 136.455, 98 135.768 C 99.751 134.674, 100 133.436, 100 125.818 C 100 121.033, 99.550 116.840, 99 116.500 C 98.450 116.160, 97.969 116.246, 97.932 116.691 M 132 117.500 C 132 118.325, 131.550 119, 131 119 C 130.394 119, 130 123.333, 130 130 L 130 141 132.090 138.910 L 134.180 136.820 136.516 139.015 C 138.813 141.173, 138.938 141.181, 143.926 139.525 L 149 137.839 149 130.100 C 149 123.085, 148.765 122.157, 146.492 120.180 C 144.636 118.566, 142.689 118, 138.992 118 C 136.247 118, 134 117.550, 134 117 C 134 116.450, 133.550 116, 133 116 C 132.450 116, 132 116.675, 132 117.500 M 101.199 128.734 L 101.567 140.468 106.034 142.180 C 109.046 143.334, 113.546 143.909, 119.857 143.946 C 127.992 143.993, 129.135 143.793, 128.607 142.418 C 128.273 141.548, 128 136.148, 128 130.418 L 128 120 124.059 120 C 121.891 120, 119.836 120.456, 119.491 121.014 C 119.146 121.572, 117.101 122.928, 114.946 124.028 L 111.027 126.027 109.013 124.013 C 107.906 122.906, 106.539 122, 105.975 122 C 105.412 122, 104.523 120.875, 104 119.500 C 103.477 118.125, 102.550 117, 101.940 117 C 101.169 117, 100.943 120.584, 101.199 128.734 M 151 136.664 C 151 138.174, 149.849 139.168, 146.717 140.364 C 141.325 142.423, 138.584 142.428, 135.465 140.385 C 132.350 138.344, 132.252 139.948, 135.314 142.826 C 138.163 145.502, 142.801 145.580, 149 143.056 C 152.770 141.521, 153.445 140.840, 153.164 138.862 C 152.714 135.706, 151 133.965, 151 136.664 M 99 142.861 C 99 143.335, 101.515 144.685, 104.589 145.861 C 108.788 147.468, 112.394 148, 119.089 148 C 124.363 148, 128 147.592, 128 147 C 128 146.407, 124.235 145.991, 118.750 145.978 C 111.705 145.961, 108.461 145.485, 105.141 143.978 C 100.353 141.805, 99 141.559, 99 142.861 M 133 151.255 C 133 157.477, 133.390 160.079, 134.456 160.964 C 135.257 161.628, 136.382 161.882, 136.956 161.527 C 137.530 161.172, 138 161.617, 138 162.514 C 138 163.530, 138.661 164.020, 139.750 163.812 C 141.219 163.532, 141.547 162.153, 141.790 155.239 C 142.063 147.517, 141.953 147, 140.040 147 C 138.255 147, 138 147.633, 138 152.059 C 138 155.177, 137.616 156.881, 137 156.500 C 136.450 156.160, 136 153.489, 136 150.563 C 136 147.056, 135.489 144.821, 134.500 144 C 133.187 142.910, 133 143.813, 133 151.255 M 148.250 145.237 L 143 147.251 143 154.625 C 143 158.681, 143.240 162, 143.533 162 C 143.827 162, 146.302 160.867, 149.033 159.483 L 154 156.966 154 149.983 C 154 146.142, 153.887 143.050, 153.750 143.112 C 153.613 143.173, 151.137 144.130, 148.250 145.237 M 99 149.875 C 99 157.341, 99.959 159.609, 104.099 161.936 L 108 164.128 108 156.590 C 108 149.253, 107.921 149.010, 105.050 147.526 C 100.209 145.023, 99 145.492, 99 149.875 M 128.607 149.582 C 128.273 150.452, 128 154.332, 128 158.204 C 128 164.349, 128.191 165.087, 129.500 164 C 130.585 163.099, 131 160.715, 131 155.378 C 131 148.448, 129.985 145.990, 128.607 149.582 M 110.015 156.250 C 110.024 160.238, 110.402 164.085, 110.855 164.799 C 111.434 165.712, 113.737 166.010, 118.590 165.799 L 125.500 165.500 125.790 157.887 L 126.079 150.275 122.290 149.648 C 120.205 149.304, 116.588 149.017, 114.250 149.011 L 110 149 110.015 156.250" stroke="none" fill="#f09404" fill-rule="evenodd"/></svg>