<svg xmlns="http://www.w3.org/2000/svg" width="256" height="256" viewBox="0 0 256 256" version="1.1"><path d="M 29 56.937 C 23.225 64.558, 18.500 71.219, 18.500 71.739 C 18.500 72.259, 34.678 105.386, 54.452 145.355 L 90.404 218.025 124.737 217.763 L 159.070 217.500 198.550 144.210 L 238.031 70.921 227.364 56.960 L 216.697 43 128.099 43.040 L 39.500 43.081 29 56.937 M 70.667 82.667 C 70.300 83.033, 70 87.323, 70 92.199 C 70 97.610, 70.555 102.393, 71.425 104.475 C 72.264 106.484, 75.347 109.825, 78.925 112.603 C 82.266 115.198, 85 117.628, 85 118.004 C 85 118.380, 82.329 120.830, 79.064 123.448 C 75.800 126.067, 72.425 129.693, 71.564 131.506 C 70.483 133.785, 70 137.765, 70 144.401 L 70 154 76.500 154 L 83 154 83 145.063 L 83 136.125 89.556 130.564 L 96.111 125.002 103.306 130.321 L 110.500 135.640 110.788 144.820 L 111.075 154 117.538 154 L 124 154 124 144.468 C 124 138.536, 123.468 133.664, 122.593 131.568 C 121.699 129.430, 118.961 126.631, 115.093 123.903 C 111.742 121.540, 109 119.296, 109 118.916 C 109 118.536, 111.405 116.262, 114.344 113.863 C 117.283 111.463, 120.545 108.375, 121.594 107 C 123.202 104.891, 123.500 102.779, 123.500 93.500 L 123.500 82.500 117.500 82.500 L 111.500 82.500 111 91.730 L 110.500 100.960 105.500 105.440 C 102.750 107.904, 99.748 110.182, 98.829 110.502 C 97.766 110.873, 94.584 109.206, 90.079 105.919 L 83 100.754 83 91.377 L 83 82 77.167 82 C 73.958 82, 71.033 82.300, 70.667 82.667 M 143.750 82.580 C 143.338 82.994, 143 99.233, 143 118.667 L 143 154 149.500 154 L 156 154 156 139 L 156 124 169.852 124 C 182.604 124, 183.972 123.819, 187.078 121.726 C 188.934 120.476, 191.511 117.888, 192.804 115.976 C 194.954 112.798, 195.127 111.642, 194.828 102.500 C 194.542 93.780, 194.191 92.089, 192.090 89.288 C 190.765 87.521, 188.065 85.277, 186.090 84.301 C 183.125 82.835, 179.194 82.465, 163.500 82.176 C 153.050 81.984, 144.162 82.166, 143.750 82.580 M 156 103.500 L 156 113 167.277 113 C 175.866 113, 179.085 112.629, 180.777 111.443 C 182.679 110.112, 183 108.966, 183 103.515 C 183 99.055, 182.528 96.671, 181.429 95.571 C 180.176 94.319, 177.439 94, 167.929 94 L 156 94 156 103.500" stroke="none" fill="#000000" fill-rule="evenodd"/><path d="M 17.545 48.420 C 8.769 59.041, 1.434 68.197, 1.244 68.767 C 1.054 69.337, 19.150 106.302, 41.456 150.912 L 82.013 232.021 124.744 231.761 L 167.475 231.500 175.526 216.500 C 179.954 208.250, 193.315 183.500, 205.216 161.500 C 217.118 139.500, 231.402 113.175, 236.958 103 C 242.514 92.825, 248.922 80.837, 251.198 76.360 L 255.336 68.221 239.015 48.610 L 222.695 29 128.097 29.055 L 33.500 29.110 17.545 48.420 M 29 56.937 C 23.225 64.558, 18.500 71.219, 18.500 71.739 C 18.500 72.259, 34.678 105.386, 54.452 145.355 L 90.404 218.025 124.737 217.763 L 159.070 217.500 198.550 144.210 L 238.031 70.921 227.364 56.960 L 216.697 43 128.099 43.040 L 39.500 43.081 29 56.937 M 70.667 82.667 C 70.300 83.033, 70 87.323, 70 92.199 C 70 97.610, 70.555 102.393, 71.425 104.475 C 72.264 106.484, 75.347 109.825, 78.925 112.603 C 82.266 115.198, 85 117.628, 85 118.004 C 85 118.380, 82.329 120.830, 79.064 123.448 C 75.800 126.067, 72.425 129.693, 71.564 131.506 C 70.483 133.785, 70 137.765, 70 144.401 L 70 154 76.500 154 L 83 154 83 145.063 L 83 136.125 89.556 130.564 L 96.111 125.002 103.306 130.321 L 110.500 135.640 110.788 144.820 L 111.075 154 117.538 154 L 124 154 124 144.468 C 124 138.536, 123.468 133.664, 122.593 131.568 C 121.699 129.430, 118.961 126.631, 115.093 123.903 C 111.742 121.540, 109 119.296, 109 118.916 C 109 118.536, 111.405 116.262, 114.344 113.863 C 117.283 111.463, 120.545 108.375, 121.594 107 C 123.202 104.891, 123.500 102.779, 123.500 93.500 L 123.500 82.500 117.500 82.500 L 111.500 82.500 111 91.730 L 110.500 100.960 105.500 105.440 C 102.750 107.904, 99.748 110.182, 98.829 110.502 C 97.766 110.873, 94.584 109.206, 90.079 105.919 L 83 100.754 83 91.377 L 83 82 77.167 82 C 73.958 82, 71.033 82.300, 70.667 82.667 M 143.750 82.580 C 143.338 82.994, 143 99.233, 143 118.667 L 143 154 149.500 154 L 156 154 156 139 L 156 124 169.852 124 C 182.604 124, 183.972 123.819, 187.078 121.726 C 188.934 120.476, 191.511 117.888, 192.804 115.976 C 194.954 112.798, 195.127 111.642, 194.828 102.500 C 194.542 93.780, 194.191 92.089, 192.090 89.288 C 190.765 87.521, 188.065 85.277, 186.090 84.301 C 183.125 82.835, 179.194 82.465, 163.500 82.176 C 153.050 81.984, 144.162 82.166, 143.750 82.580 M 156 103.500 L 156 113 167.277 113 C 175.866 113, 179.085 112.629, 180.777 111.443 C 182.679 110.112, 183 108.966, 183 103.515 C 183 99.055, 182.528 96.671, 181.429 95.571 C 180.176 94.319, 177.439 94, 167.929 94 L 156 94 156 103.500" stroke="none" fill="#ffffff" fill-rule="evenodd"/></svg>