<svg xmlns="http://www.w3.org/2000/svg" width="186" height="215" viewBox="0 0 186 215" version="1.1"><path d="M 83.500 6.873 C 79.100 9.519, 69.875 14.916, 63 18.868 C 56.125 22.819, 39.475 32.453, 26 40.276 L 1.500 54.500 1.241 107.627 L 0.983 160.753 19.741 171.584 C 30.059 177.541, 43.675 185.404, 50 189.058 C 56.325 192.712, 68.618 199.803, 77.317 204.815 L 93.135 213.929 121.817 197.315 C 163.890 172.946, 176.006 165.941, 180.750 163.245 L 185 160.829 184.983 107.665 L 184.966 54.500 173.733 48.082 C 167.555 44.551, 157.325 38.655, 151 34.977 C 104.959 8.211, 94 2.004, 92.830 2.031 C 92.098 2.048, 87.900 4.227, 83.500 6.873 M 49.500 31.902 L 6.500 56.777 6.241 107.370 L 5.982 157.963 9.741 160.321 C 20.538 167.094, 91.984 208, 93.016 208 C 93.680 208, 113.523 196.868, 137.112 183.262 L 180 158.523 180 107.785 L 180 57.046 177.750 55.646 C 172.030 52.087, 95.326 8.061, 94 7.576 C 93.130 7.257, 74.443 17.473, 49.500 31.902 M 82.446 20.824 C 76.976 24.028, 60.125 33.759, 45 42.449 C 29.875 51.138, 16.488 58.878, 15.250 59.647 L 13 61.046 13 107.854 L 13 154.662 15.711 156.081 C 17.201 156.861, 35.250 167.236, 55.820 179.137 L 93.218 200.773 103.859 194.576 C 109.711 191.168, 123.725 183.049, 135 176.535 C 146.275 170.020, 159.662 162.270, 164.750 159.312 L 174 153.935 174 107.667 L 174 61.399 157.750 52.012 C 148.813 46.850, 130.758 36.410, 117.629 28.813 C 104.499 21.216, 93.450 15, 93.075 15 C 92.700 15, 87.917 17.621, 82.446 20.824 M 91.885 35.488 C 89.897 36.791, 88.027 38.790, 87.729 39.929 C 87.401 41.181, 86.370 42, 85.119 42 C 83.841 42, 82.469 43.126, 81.526 44.950 C 79.536 48.797, 79.601 49.284, 81.934 48.035 C 85.211 46.281, 85.492 46.877, 82.742 49.750 C 81.295 51.263, 79.428 54.075, 78.594 56 L 77.078 59.500 77.039 56.193 L 77 52.887 73.959 54.683 C 72.286 55.671, 70.649 57.609, 70.321 58.990 C 69.993 60.370, 69.350 61.980, 68.892 62.566 C 68.435 63.152, 67.770 66.104, 67.415 69.126 C 66.824 74.157, 66.997 74.868, 69.473 77.560 C 71.293 79.540, 71.982 79.898, 71.584 78.657 C 70.037 73.844, 69.846 72, 70.892 72 C 71.501 72, 72 72.520, 72 73.155 C 72 73.795, 72.956 73.461, 74.146 72.405 C 76.275 70.514, 76.283 70.516, 75.146 72.684 C 73.070 76.641, 73.762 81.294, 76.944 84.777 C 80.477 88.645, 79.368 89.022, 75.077 85.411 L 72 82.822 72 86.834 C 72 89.655, 72.742 91.729, 74.500 93.818 C 75.875 95.452, 77 97.040, 77 97.347 C 77 98.342, 69.624 99.988, 65 100.025 C 58.179 100.079, 62.138 101.605, 71.500 102.530 C 75.900 102.965, 81.075 103.291, 83 103.255 C 86.284 103.193, 86.192 103.283, 81.500 104.706 C 78.750 105.541, 75.938 106.678, 75.250 107.234 C 72.129 109.758, 75.576 118.938, 80.484 121.175 C 81.852 121.798, 83.664 123.364, 84.509 124.654 C 86.654 127.928, 87.722 127.578, 87.268 123.750 C 86.904 120.682, 86.999 120.752, 88.973 125 C 90.124 127.475, 92.513 130.790, 94.282 132.367 C 97.328 135.081, 97.348 135.143, 94.663 133.537 C 91.081 131.394, 90.687 131.823, 92.246 136.172 C 95.162 144.303, 109.395 152.088, 116.418 149.393 C 119.562 148.187, 117.896 147, 113.059 147 C 110.341 147, 107.822 146.521, 107.461 145.936 C 107.013 145.211, 108.029 145.097, 110.652 145.577 C 114.423 146.269, 114.465 146.243, 112.750 144.313 C 110.267 141.518, 110.576 140.527, 113.175 142.949 C 115.981 145.563, 121.441 146.576, 124.706 145.088 C 128.433 143.390, 128.736 144.568, 125.060 146.469 C 121.395 148.364, 121.735 149.427, 126.514 151.005 C 130.797 152.418, 136.245 150.916, 138.497 147.701 C 140.339 145.070, 140.420 143.901, 138.714 144.556 C 137.943 144.852, 137.429 144.285, 137.429 143.139 C 137.429 141.593, 138.378 141.115, 142.393 140.640 C 145.335 140.291, 147.882 140.487, 148.644 141.120 C 149.433 141.774, 151.588 141.913, 154.215 141.478 C 159.589 140.587, 162 139.344, 162 137.465 C 162 135.722, 161.895 135.709, 158.442 137.022 C 154.588 138.487, 149.354 137.200, 146.154 134 C 143.515 131.361, 143.264 131.306, 140.497 132.756 C 137.304 134.429, 130.615 134.882, 127.500 133.636 C 125.529 132.848, 125.528 132.860, 127.441 134.418 C 128.509 135.288, 130.309 136.018, 131.441 136.040 C 133.292 136.076, 133.242 136.220, 130.940 137.472 C 128.099 139.017, 125.544 139.386, 119.285 139.156 C 116.167 139.040, 114.180 138.219, 111.653 136 C 109.774 134.350, 107.367 133, 106.305 133 C 104.206 133, 100.009 128.981, 97.955 125.003 C 96.053 121.320, 95.645 124.188, 97.434 128.657 L 98.973 132.500 95.990 129.041 C 93.452 126.099, 91.319 121.607, 89.336 115.028 C 89.001 113.915, 88.707 113.857, 88.131 114.789 C 87.577 115.685, 86.744 115.356, 85.080 113.585 C 82.704 111.056, 82.974 109, 85.681 109 C 86.928 109, 87.003 108.708, 86.052 107.562 C 85.079 106.390, 85.426 105.831, 87.929 104.537 C 92.620 102.111, 91.861 100.321, 84.836 97.236 C 82.270 96.110, 79.682 94.274, 79.084 93.157 C 78.060 91.244, 78.216 91.160, 81.748 91.729 C 85.163 92.278, 85.377 92.183, 84.128 90.666 C 83.284 89.642, 83.174 89, 83.842 89 C 84.489 89, 84.098 87.077, 82.876 84.250 C 80.821 79.497, 80.710 73.149, 82.574 67.094 C 83.100 65.384, 82.980 64.894, 82.158 65.403 C 79.593 66.988, 81.185 60.466, 85.250 52.734 C 88.174 47.173, 90.514 44.051, 92.749 42.728 C 94.535 41.670, 95.758 40.418, 95.467 39.946 C 95.175 39.474, 96.124 38.310, 97.575 37.359 C 100.055 35.734, 100.106 35.550, 98.416 34.315 C 96.152 32.660, 96.216 32.648, 91.885 35.488 M 141.985 58.750 C 141.976 59.712, 141.552 61.160, 141.042 61.966 C 140.298 63.143, 139.911 62.896, 139.082 60.716 C 137.524 56.617, 137.078 57.456, 138.267 62.250 C 140.038 69.392, 139.806 72.500, 137.500 72.500 C 135.426 72.500, 135.435 72.574, 136.549 65 L 137.063 61.500 135.782 65 C 134.036 69.768, 132.609 69.395, 131.952 64 C 131.543 60.635, 131.290 60.131, 130.949 62 C 130.596 63.940, 129.960 64.441, 128.115 64.238 C 126.095 64.016, 125.925 64.205, 126.990 65.488 C 128.059 66.776, 127.819 67.011, 125.372 67.076 L 122.500 67.152 125.940 68.395 C 130.157 69.919, 131.140 72, 127.642 72 C 123.738 72, 123.761 73.477, 127.669 73.684 C 131.727 73.899, 134 75.492, 134 78.122 C 134 80.837, 135.314 80.431, 137.276 77.111 C 139.235 73.793, 142.746 72.573, 146.370 73.950 C 151.437 75.877, 152.607 82.591, 148.447 85.863 L 145.894 87.871 147.947 91.896 C 149.076 94.109, 150 97.037, 150 98.401 C 150 99.766, 150.450 101.160, 151 101.500 C 151.550 101.840, 152 101.586, 152 100.937 C 152 100.103, 152.502 100.159, 153.706 101.128 C 154.933 102.114, 154.761 101.432, 153.092 98.697 C 151.816 96.606, 151.006 94.660, 151.293 94.374 C 151.580 94.087, 153.248 94.594, 155 95.500 C 159.468 97.810, 159.851 96.700, 155.477 94.119 C 152.555 92.395, 151.928 91.482, 152.184 89.322 C 152.666 85.251, 154.455 85.458, 159.606 90.183 C 162.738 93.057, 163.907 93.737, 163.103 92.218 C 161.958 90.054, 162.040 89.967, 164.698 90.536 C 167.404 91.116, 167.389 91.079, 164.250 89.444 C 160.515 87.498, 159.933 85.925, 163.250 86.741 C 167.173 87.707, 164.176 85.712, 159.244 84.073 C 156.151 83.046, 154.385 81.845, 154.154 80.614 C 153.870 79.098, 154.261 78.828, 156.151 79.236 C 157.443 79.515, 159.400 80.100, 160.500 80.537 C 162.091 81.170, 161.989 80.896, 160 79.199 L 157.500 77.067 162.500 76.915 C 166.709 76.787, 167.025 76.656, 164.500 76.087 L 161.500 75.411 164.500 73.673 L 167.500 71.935 164.500 72.448 C 162.850 72.731, 159.219 73.047, 156.430 73.151 C 147.695 73.478, 146.716 71.128, 153.250 65.515 C 156.568 62.665, 156.976 62.013, 155.112 62.543 C 152.960 63.155, 152.774 62.965, 153.224 60.611 C 153.896 57.092, 153.138 57.306, 151.851 60.999 C 150.700 64.298, 149.062 64.128, 148.890 60.691 C 148.830 59.486, 148.395 60.460, 147.924 62.857 C 147.453 65.253, 146.514 67.881, 145.837 68.697 C 143.699 71.273, 142.020 67.630, 142.699 61.891 C 143.018 59.201, 142.991 57, 142.639 57 C 142.288 57, 141.993 57.788, 141.985 58.750 M 110.450 67.587 C 111.069 70.884, 110.956 71.121, 109.062 70.520 C 107.928 70.160, 107 70.178, 107 70.561 C 107 71.846, 113.138 82, 113.914 82 C 114.541 82, 119.445 74, 120.868 70.655 C 121.071 70.179, 120.216 70.114, 118.969 70.510 C 116.835 71.187, 116.736 71.016, 117.288 67.615 C 117.896 63.869, 117.263 63.137, 115.200 65.200 C 114.267 66.133, 113.733 66.133, 112.800 65.200 C 110.640 63.040, 109.764 63.930, 110.450 67.587 M 95.334 74.429 C 95.636 75.215, 96.184 77.465, 96.553 79.429 C 97.234 83.061, 96.357 83.957, 94.217 81.817 C 93.566 81.166, 92.760 80.907, 92.426 81.241 C 91.783 81.884, 98.555 94.607, 100.023 95.514 C 101.004 96.121, 109.558 82.225, 108.719 81.386 C 108.418 81.085, 107.262 81.324, 106.151 81.919 C 103.205 83.496, 103.045 83.330, 104.070 79.757 C 104.581 77.973, 105 75.712, 105 74.734 C 105 73.060, 104.849 73.053, 102.474 74.609 C 100.138 76.140, 99.814 76.141, 98.146 74.632 C 95.921 72.619, 94.603 72.524, 95.334 74.429 M 115.601 84.159 C 114.403 85.870, 113.795 86.075, 112.677 85.147 C 110.957 83.719, 110.771 83.931, 105.066 93.808 C 101.381 100.186, 100.643 100.949, 99.261 99.808 C 97.834 98.628, 97.747 99.176, 98.382 105.396 C 99.145 112.875, 100.104 115.442, 102.472 116.351 C 104.991 117.317, 106.731 116.059, 107.539 112.686 C 108.200 109.924, 108.400 110.449, 109.039 116.639 C 109.444 120.565, 110.234 124.596, 110.794 125.596 C 111.864 127.509, 111.838 127.573, 114.762 116 L 115.646 112.500 116.433 117 L 117.220 121.500 118.420 118.726 C 119.746 115.660, 121 116.089, 121 119.608 C 121 123.456, 122.740 123.199, 123.484 119.241 L 124.187 115.500 125.996 118.994 L 127.804 122.489 128.561 117.494 L 129.318 112.500 130.744 118 C 131.528 121.025, 132.532 124.400, 132.976 125.500 C 133.724 127.356, 133.863 127.297, 134.891 124.685 C 135.501 123.137, 136 119.424, 136 116.435 C 136 110.809, 137.490 109.120, 138.589 113.500 C 139.033 115.268, 139.896 116, 141.537 116 C 145.167 116, 146.645 113.672, 147.360 106.830 C 148.151 99.262, 146.047 92.214, 141.696 87.855 C 138.247 84.400, 130.532 82, 122.875 82 C 118.105 82, 116.853 82.372, 115.601 84.159 M 33.011 89.642 C 29.991 90.475, 27.198 91.679, 26.803 92.318 C 26.407 92.960, 27.130 94.604, 28.418 95.990 C 29.701 97.370, 30.978 99.175, 31.256 100 C 31.613 101.060, 32.083 100.693, 32.856 98.750 C 33.458 97.237, 34.524 95.968, 35.225 95.930 C 35.926 95.891, 35.600 95.461, 34.500 94.974 C 33.162 94.381, 33.989 94.283, 37 94.677 C 39.475 95.001, 42.248 95.915, 43.162 96.708 C 44.628 97.981, 44.872 97.935, 45.230 96.325 C 45.454 95.321, 45.984 96.854, 46.409 99.730 C 47.242 105.365, 45.958 108, 42.380 108 C 40.764 108, 40.754 107.896, 42.254 106.750 C 44.676 104.900, 45.438 100.608, 43.614 99.095 C 42.297 98.001, 42.156 98.336, 42.532 101.669 L 42.965 105.500 42.076 102.089 C 41.587 100.212, 41.418 98.075, 41.700 97.339 C 42.301 95.773, 40.184 95.599, 36.692 96.927 C 33.388 98.183, 32.424 102.351, 34.724 105.440 C 37.112 108.647, 43.754 109.696, 47.947 107.528 C 51.004 105.947, 51.758 104.586, 50.134 103.583 C 49.658 103.289, 49.480 101.939, 49.739 100.584 C 50.069 98.856, 49.450 97.360, 47.670 95.579 C 46.272 94.181, 45.510 92.803, 45.976 92.515 C 46.441 92.227, 46.708 91.217, 46.569 90.270 C 46.228 87.946, 40.176 87.666, 33.011 89.642 M 48.465 91.750 C 48.646 93.263, 49.310 94.381, 49.939 94.236 C 50.569 94.091, 51.658 95.336, 52.359 97.003 C 53.812 100.458, 55 99.965, 55 95.906 C 55 94.114, 54.075 92.417, 52.365 91.073 C 48.866 88.320, 48.072 88.458, 48.465 91.750 M 34.333 91.667 C 34.700 92.033, 35.300 92.033, 35.667 91.667 C 36.033 91.300, 35.733 91, 35 91 C 34.267 91, 33.967 91.300, 34.333 91.667 M 38.813 93.683 C 39.534 93.972, 40.397 93.936, 40.729 93.604 C 41.061 93.272, 40.471 93.036, 39.417 93.079 C 38.252 93.127, 38.015 93.364, 38.813 93.683 M 22.697 95.750 C 21.458 97.959, 21.079 102.279, 21.978 103.958 C 23.151 106.151, 27.357 106.372, 26.522 104.198 C 26.233 103.443, 25.714 101.064, 25.370 98.913 C 24.788 95.275, 23.692 93.977, 22.697 95.750 M 50.825 98.674 C 51.251 100.767, 51.503 101.019, 51.794 99.644 C 52.011 98.623, 51.751 97.351, 51.218 96.818 C 50.592 96.192, 50.452 96.849, 50.825 98.674 M 26.773 100.500 C 27.028 102.150, 27.730 104.400, 28.333 105.500 C 28.936 106.600, 29.445 107.918, 29.465 108.428 C 29.520 109.884, 34.938 110.966, 37.335 110 C 39.495 109.129, 39.494 109.127, 37.184 109.063 C 33.744 108.969, 31 107.180, 31 105.030 C 31 103.985, 30.524 101.879, 29.943 100.349 C 29.152 98.269, 28.673 97.911, 28.044 98.929 C 27.338 100.071, 27.131 100.065, 26.756 98.895 C 26.511 98.128, 26.518 98.850, 26.773 100.500 M 35.459 99.067 C 35.096 99.653, 35.014 100.348, 35.276 100.610 C 35.538 100.872, 36.019 100.392, 36.345 99.543 C 37.021 97.781, 36.445 97.471, 35.459 99.067 M 24 102 C 24 102.733, 24.300 103.033, 24.667 102.667 C 25.033 102.300, 25.033 101.700, 24.667 101.333 C 24.300 100.967, 24 101.267, 24 102 M 35.872 104.250 C 36.627 105.213, 38.202 105.948, 39.372 105.884 C 41.393 105.774, 41.400 105.743, 39.500 105.276 C 38.400 105.006, 36.825 104.271, 36 103.642 C 34.695 102.649, 34.679 102.728, 35.872 104.250 M 45 104 C 45 104.733, 45.300 105.033, 45.667 104.667 C 46.033 104.300, 46.033 103.700, 45.667 103.333 C 45.300 102.967, 45 103.267, 45 104 M 32 106 C 32 106.550, 32.477 107, 33.059 107 C 33.641 107, 33.840 106.550, 33.500 106 C 33.160 105.450, 32.684 105, 32.441 105 C 32.198 105, 32 105.450, 32 106 M 46 109.241 C 43.120 110.567, 39.286 111.346, 35.349 111.406 C 31.966 111.458, 29.441 111.896, 29.739 112.381 C 31.135 114.655, 52 110.447, 52 107.891 C 52 106.668, 51.194 106.849, 46 109.241 M 50.495 110.032 C 46.094 112.765, 36.280 115.068, 31.973 114.380 C 28.848 113.880, 28.006 114.154, 26.631 116.116 C 23.555 120.508, 24.453 122.658, 30.156 124.552 C 34.613 126.032, 36.216 126.103, 41.968 125.075 C 48.460 123.915, 59 118.918, 59 117 C 59 114.777, 55.691 108.007, 54.641 108.083 C 54.014 108.128, 52.148 109.005, 50.495 110.032 M 86 119 C 86 119.733, 86.300 120.033, 86.667 119.667 C 87.033 119.300, 87.033 118.700, 86.667 118.333 C 86.300 117.967, 86 118.267, 86 119 M 53.500 124.035 C 48.038 127.958, 36.576 129.614, 30.821 127.312 C 28.674 126.453, 26.709 125.958, 26.454 126.213 C 26.199 126.467, 26.421 127.986, 26.946 129.588 C 27.471 131.190, 29.050 136.356, 30.456 141.069 C 32.840 149.065, 33.284 149.791, 37.102 151.937 C 44.118 155.880, 55.562 153.490, 61.638 146.812 L 63.743 144.500 61.907 134 C 60.898 128.225, 60.055 122.938, 60.036 122.250 C 59.980 120.318, 57.876 120.893, 53.500 124.035 M 69.044 146.215 C 69.003 153.331, 68.767 154.196, 66 157.347 C 64.350 159.226, 63 161.096, 63 161.501 C 63 162.321, 70.080 157.208, 71.235 155.553 C 72.447 153.815, 72.066 146.768, 70.529 142.500 L 69.088 138.500 69.044 146.215 M 60.407 151.102 C 57.592 154.213, 54.169 155.664, 47.822 156.436 C 43.530 156.957, 41.395 156.738, 39.072 155.537 C 34.687 153.270, 35.261 155.366, 39.750 158.015 C 46.872 162.218, 57.562 159.064, 62.767 151.225 C 64.640 148.404, 62.930 148.315, 60.407 151.102" stroke="none" fill="#f19504" fill-rule="evenodd"/></svg>