<svg xmlns="http://www.w3.org/2000/svg" width="186" height="215" viewBox="0 0 186 215" version="1.1"><path d="M 83.500 6.860 C 79.100 9.500, 69.875 14.894, 63 18.848 C 56.125 22.802, 39.475 32.441, 26 40.268 L 1.500 54.500 1.241 107.650 L 0.983 160.799 6.241 163.792 C 9.134 165.438, 17.125 170.046, 24 174.033 C 30.875 178.020, 42.125 184.526, 49 188.491 C 55.875 192.456, 68.613 199.816, 77.306 204.847 L 93.111 213.994 121.806 197.343 C 155.404 177.847, 174.821 166.615, 180.750 163.245 L 185 160.829 184.990 107.665 L 184.980 54.500 171.740 46.892 C 164.458 42.708, 143.995 30.896, 126.268 20.642 C 108.540 10.389, 93.465 2.014, 92.768 2.031 C 92.070 2.048, 87.900 4.221, 83.500 6.860 M 49.500 31.902 L 6.500 56.777 6.241 107.370 L 5.982 157.963 9.741 160.321 C 20.559 167.108, 91.985 208, 93.020 208 C 93.686 208, 113.527 196.862, 137.110 183.250 L 179.990 158.500 179.995 107.773 L 180 57.046 177.750 55.646 C 172.030 52.087, 95.326 8.061, 94 7.576 C 93.130 7.257, 74.443 17.473, 49.500 31.902 M 55 36.620 C 34.375 48.511, 16.488 58.871, 15.250 59.643 L 13 61.046 13 107.838 L 13 154.629 16.885 156.703 C 19.021 157.843, 28.134 163.057, 37.135 168.288 C 46.136 173.520, 62.432 182.972, 73.350 189.292 L 93.199 200.784 103.850 194.582 C 109.707 191.170, 123.725 183.049, 135 176.535 C 146.275 170.020, 159.662 162.270, 164.750 159.312 L 174 153.935 174 107.708 C 174 64.761, 173.876 61.404, 172.250 60.401 C 170.607 59.386, 153.711 49.620, 111.577 25.332 C 101.719 19.649, 93.394 15, 93.077 15.001 C 92.760 15.001, 75.625 24.730, 55 36.620 M 104 48.416 C 101.906 49.791, 99.969 52.186, 99.179 54.376 C 97.902 57.911, 97.981 58.206, 101.456 62.940 C 103.435 65.636, 108.196 70.628, 112.036 74.031 L 119.016 80.220 125.739 74.481 C 132.636 68.594, 140 59.706, 140 57.270 C 140 54.610, 137.035 50.219, 133.899 48.233 C 130.795 46.267, 130.631 46.263, 126.673 48.035 C 124.445 49.032, 121.825 50.895, 120.849 52.174 L 119.075 54.500 117.472 52.237 C 116.182 50.417, 108.975 45.818, 107.790 46.059 C 107.630 46.091, 105.925 47.152, 104 48.416 M 88.155 54.003 C 79.759 57.975, 70.379 67.374, 66.202 76 C 62.897 82.827, 60.386 94.786, 61.933 96.333 C 63.368 97.768, 64.999 96.104, 65.012 93.191 C 65.029 89.230, 67.373 81.130, 69.972 76.045 C 73.415 69.312, 82.483 60.826, 90.143 57.170 C 93.797 55.427, 97.045 53.325, 97.362 52.500 C 98.258 50.164, 95.223 50.659, 88.155 54.003 M 139.477 63.038 C 139.124 63.608, 140.505 65.924, 142.546 68.183 C 144.587 70.442, 147.652 75.262, 149.357 78.895 C 152.260 85.082, 152.456 86.228, 152.456 97 C 152.456 107.834, 152.272 108.893, 149.276 115.282 C 145.238 123.896, 136.291 133.062, 128.393 136.678 C 125.259 138.112, 119.614 139.771, 115.848 140.364 C 108.706 141.489, 108.026 141.947, 110.479 143.983 C 111.655 144.959, 113.463 144.875, 119.300 143.577 C 143.532 138.185, 160.030 114.279, 156.272 90 C 154.957 81.509, 150.529 71.698, 145.495 66.127 C 141.619 61.836, 140.556 61.291, 139.477 63.038 M 93 66.016 C 91.075 67.076, 87.925 69.276, 86 70.904 C 83.153 73.313, 82.803 73.982, 84.125 74.492 C 85.125 74.877, 88.164 73.558, 92.030 71.059 C 95.484 68.827, 98.901 67, 99.624 67 C 100.380 67, 100.693 66.364, 100.362 65.500 C 99.597 63.507, 97.258 63.671, 93 66.016 M 131.438 73.100 C 131.064 73.705, 131.728 75.392, 132.912 76.850 C 137.801 82.867, 139.500 88.063, 139.500 97 C 139.500 106.844, 137.198 112.802, 131 119 C 124.741 125.259, 118.868 127.500, 108.725 127.500 C 101.466 127.500, 99.999 127.759, 100.233 129 C 100.743 131.705, 109.014 132.530, 116.695 130.642 C 132.539 126.748, 143.257 113.691, 143.428 98.077 C 143.529 88.822, 142.521 85.117, 137.999 78.120 C 134.060 72.025, 132.731 71.008, 131.438 73.100 M 103.522 73.913 C 101.589 74.668, 101.594 74.712, 103.707 75.843 C 106.185 77.169, 110 77.386, 110 76.200 C 110 75.020, 107.761 72.989, 106.550 73.070 C 105.972 73.109, 104.610 73.488, 103.522 73.913 M 78.888 77.500 C 77.451 78.280, 75.728 80.243, 75.058 81.860 C 73.970 84.486, 74.125 85.231, 76.499 88.819 C 77.962 91.030, 81.820 95.153, 85.074 97.983 L 90.989 103.128 96.020 98.886 C 98.787 96.553, 102.649 92.694, 104.602 90.310 C 107.533 86.733, 108.040 85.456, 107.500 83.002 C 106.639 79.082, 101.778 75.588, 98.373 76.443 C 96.974 76.794, 94.707 78.292, 93.335 79.773 C 91.069 82.217, 90.750 82.305, 89.870 80.732 C 88.933 79.058, 83.932 75.958, 82.300 76.040 C 81.860 76.062, 80.325 76.719, 78.888 77.500 M 123.116 79.880 C 122.008 80.603, 122.391 81.604, 125.034 84.892 C 130.632 91.859, 130.268 102.963, 124.205 110.168 C 116.679 119.112, 100.765 119.053, 93.935 110.055 C 87.836 102.019, 83.952 100.138, 87.458 106.919 C 90.437 112.679, 94.998 116.855, 100.598 118.951 C 107.445 121.512, 110.530 121.522, 117.264 119.002 C 128.719 114.716, 134.895 103.067, 132.034 91.141 C 130.611 85.211, 125.274 78.471, 123.116 79.880 M 105.694 92 C 103.641 94.750, 101.490 97, 100.914 97 C 100.338 97, 100.010 98.223, 100.184 99.718 C 100.547 102.843, 105.941 107, 109.632 107 C 113.195 107, 117.971 102.122, 118.661 97.777 C 119.186 94.473, 118.855 93.655, 115.727 90.527 C 113.787 88.587, 111.576 87, 110.813 87 C 110.051 87, 107.747 89.250, 105.694 92 M 74.690 91.643 C 74.311 92.023, 74.002 94.396, 74.005 96.917 C 74.009 100.293, 74.655 102.290, 76.460 104.500 L 78.910 107.500 78.331 100.500 C 77.785 93.891, 76.229 90.105, 74.690 91.643 M 41.791 100.708 C 40.439 102.244, 36.896 105.748, 33.917 108.495 C 29.559 112.514, 29.868 112.048, 35.500 106.112 C 41.176 100.129, 41.863 99.090, 39.135 100.617 C 37.284 101.653, 33.379 105.128, 30.457 108.340 C 26.458 112.737, 24.986 115.208, 24.500 118.340 C 24.144 120.628, 23.638 123.400, 23.375 124.500 L 22.896 126.500 24.552 124.500 C 26.187 122.524, 26.199 122.527, 25.536 124.750 C 25.141 126.075, 25.294 127, 25.910 127 C 27.384 127, 29.614 123.228, 31.061 118.286 C 32.008 115.051, 34.014 112.528, 39.694 107.424 C 43.763 103.768, 46.931 100.292, 46.734 99.701 C 46.029 97.588, 44.210 97.959, 41.791 100.708 M 48.081 107.571 C 44.551 111.105, 41.484 113.817, 41.266 113.599 C 41.048 113.381, 43.149 111.070, 45.935 108.464 C 48.721 105.858, 51 103.259, 51 102.689 C 51 102.118, 49.954 102.634, 48.676 103.835 C 47.398 105.036, 46.110 105.777, 45.814 105.481 C 45.122 104.788, 34 115.708, 34 117.080 C 34 117.651, 34.563 117.789, 35.250 117.387 C 35.938 116.985, 35.658 117.617, 34.629 118.791 C 32.803 120.874, 32.970 124, 34.907 124 C 36.651 124, 51.422 112.185, 54.708 108.162 C 57.707 104.490, 57.805 104.134, 56.208 102.690 C 54.640 101.272, 53.975 101.672, 48.081 107.571 M 52.500 113.314 C 48.100 117.816, 42.384 122.613, 39.797 123.973 C 35.710 126.123, 35.053 126.908, 34.783 129.973 C 34.230 136.247, 38.311 142.488, 53.321 158.325 C 61.148 166.582, 69.099 174.030, 71.271 175.138 C 74.784 176.931, 75.867 177.020, 82.200 176.037 C 91.925 174.528, 96.882 170.467, 100.474 161.068 C 103.058 154.306, 103.061 154.260, 101.284 149.583 C 98.836 143.139, 76.928 115.480, 69.668 109.669 C 66.461 107.101, 63.086 105.029, 62.168 105.064 C 61.251 105.099, 56.900 108.812, 52.500 113.314 M 37.872 115.750 C 36.629 117.336, 36.664 117.371, 38.250 116.128 C 39.916 114.821, 40.445 114, 39.622 114 C 39.415 114, 38.627 114.787, 37.872 115.750 M 27 118 C 27 118.733, 27.300 119.033, 27.667 118.667 C 28.033 118.300, 28.033 117.700, 27.667 117.333 C 27.300 116.967, 27 117.267, 27 118" stroke="none" fill="#f29604" fill-rule="evenodd"/></svg>