<svg xmlns="http://www.w3.org/2000/svg" width="186" height="215" viewBox="0 0 186 215" version="1.1"><path d="M 81.500 7.897 C 76 11.107, 67.450 16.108, 62.500 19.011 C 57.550 21.914, 48.550 27.135, 42.500 30.613 C 36.450 34.090, 24.750 40.888, 16.500 45.718 L 1.500 54.500 1.241 107.650 L 0.983 160.799 6.241 163.792 C 9.134 165.438, 17.125 170.060, 24 174.063 C 30.875 178.067, 42.125 184.568, 49 188.510 C 55.875 192.452, 68.609 199.797, 77.298 204.831 L 93.096 213.985 116.798 200.359 C 129.834 192.865, 143.338 184.994, 146.808 182.867 C 150.277 180.740, 153.256 179, 153.428 179 C 153.600 179, 158.862 176.002, 165.120 172.338 C 171.379 168.673, 178.412 164.585, 180.750 163.252 L 185 160.829 185 107.662 L 185 54.494 171.750 46.890 C 164.463 42.708, 146.575 32.337, 132 23.844 C 95.825 2.764, 94.447 1.996, 92.878 2.031 C 92.120 2.047, 87 4.687, 81.500 7.897 M 49.500 31.919 L 6.500 56.805 6.241 107.384 L 5.982 157.963 9.741 160.318 C 20.455 167.029, 92.042 208, 93.053 208 C 93.702 208, 110.718 198.469, 130.867 186.820 C 151.015 175.171, 170.312 164.033, 173.748 162.070 L 179.996 158.500 179.748 107.603 L 179.500 56.706 136.527 31.853 C 112.891 18.184, 93.316 7.008, 93.027 7.017 C 92.737 7.026, 73.150 18.232, 49.500 31.919 M 68 29.172 C 54.525 36.961, 36.750 47.216, 28.500 51.961 L 13.500 60.589 13.240 107.605 L 12.981 154.621 17.240 156.977 C 19.583 158.272, 28.384 163.329, 36.798 168.213 C 45.212 173.097, 53.987 178.152, 56.298 179.446 C 65.928 184.836, 90.586 199.270, 91.650 200.139 C 92.421 200.769, 96.704 198.794, 104.650 194.145 C 111.167 190.331, 129.325 179.799, 145 170.739 L 173.500 154.266 173.760 107.820 L 174.020 61.374 160.350 53.437 C 152.831 49.072, 145.064 44.597, 143.090 43.492 C 137.376 40.297, 103.977 20.990, 98.735 17.852 C 96.114 16.284, 93.639 15.002, 93.235 15.005 C 92.831 15.008, 81.475 21.384, 68 29.172 M 69.457 44.250 C 69.843 47.962, 69.899 51, 69.582 51 C 69.264 51, 66.812 49.425, 64.133 47.500 C 61.453 45.575, 58.970 44, 58.614 44 C 58.258 44, 59.099 46.235, 60.483 48.967 C 61.867 51.698, 63 54.173, 63 54.467 C 63 54.760, 60.862 55.002, 58.250 55.005 L 53.500 55.010 57.500 57.474 L 61.500 59.938 58.500 60.065 C 56.850 60.135, 53.250 60.732, 50.500 61.391 L 45.500 62.590 52.401 64.927 L 59.302 67.264 56.901 69.110 L 54.500 70.956 57.250 70.978 C 61.324 71.011, 60.624 72.160, 54.528 75.448 C 51.522 77.069, 49.225 78.558, 49.424 78.757 C 49.622 78.955, 53.483 78.416, 58.003 77.559 C 62.523 76.702, 66.408 76, 66.636 76 C 66.865 76, 66.365 77.328, 65.526 78.950 C 63.381 83.097, 63.595 83.425, 66.904 81.068 C 68.502 79.931, 70.278 79, 70.852 79 C 71.426 79, 72.031 81.362, 72.198 84.250 L 72.500 89.500 75.500 84.251 C 77.150 81.364, 78.769 79.002, 79.097 79.001 C 79.426 79, 80.183 80.013, 80.780 81.250 C 81.831 83.430, 81.867 83.435, 81.932 81.417 C 82.043 78.016, 83.194 77.812, 86.170 80.663 C 89.713 84.057, 90.466 83.359, 88.455 78.545 C 87.590 76.477, 87.092 74.574, 87.348 74.318 C 87.605 74.062, 89.248 74.594, 91 75.500 C 94.851 77.492, 95.755 76.916, 93.602 73.842 C 91.028 70.167, 91.611 69.680, 97.750 70.379 L 103.500 71.033 98.782 67.767 C 96.187 65.970, 94.050 64.249, 94.032 63.942 C 94.015 63.636, 95.912 62.518, 98.250 61.458 L 102.500 59.530 97.750 58.597 C 95.138 58.085, 93 57.242, 93 56.726 C 93 56.210, 94.404 54.015, 96.121 51.848 C 97.837 49.681, 99.074 47.751, 98.871 47.558 C 98.667 47.366, 96.279 48.287, 93.564 49.605 C 90.849 50.922, 88.428 52, 88.184 52 C 87.940 52, 87.968 49.975, 88.247 47.500 C 88.526 45.025, 88.621 43, 88.459 43 C 88.296 43, 87.142 44.652, 85.894 46.671 L 83.625 50.342 82.426 46.921 C 81.382 43.942, 81.137 43.758, 80.530 45.500 C 78.431 51.522, 78.598 51.478, 75.491 46.859 C 73.878 44.462, 71.702 41.375, 70.656 40 L 68.754 37.500 69.457 44.250 M 76.250 39.119 C 72.374 40.238, 72.310 40.626, 75.374 44.454 L 77.737 47.408 79.394 44.204 C 81.265 40.586, 83 40.007, 83 43 C 83 45.661, 83.844 45.523, 87.195 42.313 L 90 39.626 90 44.313 C 90 46.891, 90.238 49, 90.529 49 C 90.819 49, 93.690 47.671, 96.908 46.046 C 100.126 44.422, 103.011 43.345, 103.319 43.653 C 103.627 43.961, 102.263 46.647, 100.288 49.621 C 98.313 52.596, 96.985 55.318, 97.337 55.671 C 97.690 56.023, 99.623 56.579, 101.635 56.906 C 106.299 57.664, 106.269 58.954, 101.522 61.645 C 97.933 63.680, 97.845 63.847, 99.804 64.895 C 102.498 66.337, 103 66.289, 103 64.594 C 103 63.676, 103.700 63.370, 105.015 63.714 C 106.630 64.137, 106.893 63.885, 106.341 62.447 C 105.806 61.053, 106.026 60.796, 107.326 61.295 C 108.618 61.790, 109 61.363, 109 59.425 C 109 57.587, 109.470 56.991, 110.750 57.206 C 112.070 57.428, 112.577 56.702, 112.813 54.250 C 113.236 49.866, 114.447 50.160, 116.436 55.131 C 117.989 59.013, 118.175 59.148, 119.528 57.381 C 120.918 55.565, 120.989 55.578, 121.602 57.758 L 122.238 60.016 125.487 58.008 C 129.344 55.625, 131.155 55.434, 130.364 57.494 C 130.048 58.316, 129.415 58.756, 128.955 58.472 C 128.496 58.188, 126.567 59.319, 124.670 60.985 C 121.631 63.653, 121.140 63.808, 120.556 62.285 C 120.072 61.023, 119.688 60.887, 119.134 61.783 C 118.628 62.601, 117.733 61.759, 116.449 59.255 L 114.522 55.500 114.200 59.822 C 113.930 63.451, 113.647 63.952, 112.439 62.949 C 111.320 62.020, 111 62.028, 111 62.985 C 111 63.675, 110.332 63.958, 109.477 63.629 C 108.209 63.143, 108.143 63.399, 109.085 65.158 C 110.127 67.105, 110.013 67.220, 107.634 66.623 C 105.523 66.093, 105.167 66.272, 105.678 67.604 C 106.207 68.982, 105.982 69.061, 104.217 68.116 C 100.889 66.335, 100.472 66.809, 103 69.500 L 105.349 72 102.115 72 C 100.214 72, 99.137 72.412, 99.500 73 C 99.840 73.550, 100.905 74, 101.868 74 C 102.830 74, 104.464 74.619, 105.499 75.376 C 107.278 76.676, 107.192 76.854, 103.940 78.623 L 100.500 80.495 103.830 80.817 C 106.352 81.061, 107.017 81.513, 106.569 82.681 C 106.154 83.763, 106.428 84.050, 107.489 83.643 C 108.640 83.201, 109.009 83.828, 109.036 86.281 L 109.072 89.500 111.531 86.500 L 113.990 83.500 114.078 89 L 114.166 94.500 116.402 89.606 L 118.638 84.713 119.940 87.856 C 121.662 92.011, 123 91.844, 123 87.474 L 123 83.949 126 85.500 C 129.454 87.286, 129.585 87.032, 127.394 82.796 L 125.789 79.691 132.432 80.311 C 139.891 81.008, 140.243 80.128, 133.533 77.566 C 128.435 75.619, 127.999 74.788, 131.250 73.220 C 133.460 72.155, 133.451 72.134, 130.750 72.068 C 127.750 71.994, 127.316 71.127, 129.250 69.071 C 130.278 67.978, 130.011 67.857, 127.750 68.390 C 124.498 69.157, 124.441 68.751, 127.071 63.500 L 129.075 59.500 128.429 62.879 C 127.797 66.192, 127.846 66.250, 130.867 65.806 C 133.675 65.394, 133.897 65.561, 133.366 67.677 C 132.870 69.653, 133.164 70, 135.333 70 C 138.926 70, 139.596 71.772, 136.530 73.168 C 133.004 74.775, 133.698 75.901, 139.725 78.357 C 144.176 80.171, 144.947 80.902, 145.497 83.837 L 146.133 87.224 148.642 84.866 C 151.859 81.844, 151.338 78.851, 146.055 70.024 C 134.325 50.427, 111.690 37.859, 88.540 38.090 C 83.568 38.140, 78.037 38.603, 76.250 39.119 M 71.913 56.282 C 67.326 59.804, 66.918 65.072, 70.923 69.077 C 74.844 72.998, 80.064 73.113, 83.548 69.354 C 88.776 63.712, 84.960 54.968, 77.298 55.032 C 75.209 55.049, 72.786 55.612, 71.913 56.282 M 113.200 70.200 C 111.650 71.750, 111.650 77.250, 113.200 78.800 C 114.993 80.593, 119.466 80.248, 121.345 78.171 C 123.281 76.032, 123.516 71.916, 121.800 70.200 C 120.250 68.650, 114.750 68.650, 113.200 70.200 M 97 74.659 C 97 74.919, 97.492 76.050, 98.093 77.173 C 99.656 80.094, 97.963 81.212, 94.612 79.474 C 90.943 77.570, 89.635 77.607, 90.397 79.593 C 92.901 86.119, 91.654 87.902, 87.388 83.895 C 84.841 81.502, 83.010 82.088, 82.978 85.309 C 82.956 87.463, 82.924 87.458, 81.046 85.015 C 79.996 83.648, 78.938 82.748, 78.696 83.015 C 78.176 83.586, 75 89.763, 75.001 90.200 C 75.001 90.365, 80.514 90.515, 87.251 90.534 C 98.289 90.565, 100.135 90.837, 105.922 93.284 C 109.455 94.778, 112.492 96, 112.672 96 C 112.853 96, 113 94.425, 113 92.500 C 113 88.642, 112.340 88.152, 110.512 90.653 C 108.747 93.067, 106.963 91.433, 107.645 88.026 C 108.167 85.415, 108.004 85.186, 105.998 85.711 C 104.083 86.211, 103.867 85.993, 104.454 84.146 C 105.021 82.358, 104.734 82, 102.734 82 C 99.064 82, 98.680 80.831, 101.589 78.511 L 104.229 76.406 100.614 75.296 C 98.626 74.686, 97 74.400, 97 74.659 M 129.202 83.105 C 129.429 83.786, 130.489 84.432, 131.557 84.542 C 132.626 84.652, 134.333 85.091, 135.351 85.517 C 136.822 86.132, 137.129 85.902, 136.843 84.396 C 136.578 82.998, 135.473 82.417, 132.636 82.183 C 129.918 81.960, 128.910 82.230, 129.202 83.105 M 139.636 83.494 C 139.952 84.316, 140.612 84.740, 141.105 84.435 C 142.517 83.563, 142.149 82, 140.531 82 C 139.639 82, 139.288 82.587, 139.636 83.494 M 142.515 85.250 C 141.788 87.981, 140 89.090, 140 86.809 C 140 86.154, 139.394 86.447, 138.653 87.460 C 137.719 88.737, 137.087 88.949, 136.594 88.151 C 136.202 87.518, 135.218 87, 134.406 87 C 133.219 87, 133.149 87.409, 134.046 89.086 C 135.597 91.983, 135.078 92.108, 130.579 89.917 C 128.423 88.867, 126.515 88.151, 126.340 88.327 C 126.164 88.502, 127.366 89.935, 129.010 91.510 C 132.820 95.160, 132.772 95.992, 128.750 96.032 C 125.714 96.062, 125.624 96.158, 127.392 97.496 C 128.432 98.283, 129.782 99.136, 130.392 99.390 C 131.028 99.655, 130.435 100.726, 129 101.904 L 126.500 103.956 129.083 103.978 C 132.992 104.011, 133.226 104.939, 130.498 109.593 C 129.124 111.938, 128 114.168, 128 114.549 C 128 114.929, 130.025 113.582, 132.500 111.554 L 137 107.866 137.068 111.183 C 137.131 114.297, 137.202 114.362, 138.220 112.250 C 139.471 109.657, 141 109.277, 141 111.559 C 141 112.416, 141.450 112.840, 142 112.500 C 142.550 112.160, 143.013 110.896, 143.030 109.691 C 143.055 107.813, 143.627 108.142, 147.032 112 L 151.004 116.500 150.382 112.299 C 149.623 107.172, 151.344 105.003, 156.179 104.994 L 159.500 104.988 156.500 103.431 C 152.474 101.343, 151.185 100, 153.206 100 C 155.398 100, 154.336 96.011, 152.133 95.968 C 150.701 95.940, 150.722 95.768, 152.303 94.569 C 153.629 93.563, 153.762 93.086, 152.803 92.764 C 151.769 92.416, 151.808 91.953, 152.992 90.518 C 154.374 88.845, 154.308 88.767, 152.106 89.466 C 149.889 90.170, 149.776 90.027, 150.440 87.361 L 151.153 84.500 148.130 87.386 L 145.106 90.272 144.466 87.386 C 143.389 82.537, 143.271 82.408, 142.515 85.250 M 116.649 94 C 115.171 97.484, 115.180 97.514, 118.697 100.418 C 120.641 102.023, 123.499 105.086, 125.049 107.226 C 127.748 110.952, 127.914 111.029, 128.980 109.038 C 130.326 106.522, 129.557 105, 126.941 105 C 124.650 105, 124.347 103.188, 126.500 102.362 C 128.913 101.436, 128.249 100.086, 124.500 98.299 C 122.575 97.381, 121 96.124, 121 95.506 C 121 94.888, 120.355 93.509, 119.567 92.441 C 118.198 90.587, 118.068 90.656, 116.649 94 M 124 92.500 C 124 93.362, 124.902 94, 126.122 94 C 127.896 94, 128.040 93.753, 127 92.500 C 126.315 91.675, 125.360 91, 124.878 91 C 124.395 91, 124 91.675, 124 92.500 M 138.217 95.250 C 135.800 98.192, 136.850 103.500, 140.051 104.516 C 145.222 106.157, 149.433 100.837, 146.504 96.365 C 144.791 93.752, 139.981 93.105, 138.217 95.250 M 34.889 101.030 C 31.499 104.346, 29.009 107.342, 29.354 107.688 C 29.700 108.033, 29.515 108.880, 28.943 109.569 C 28.223 110.436, 28.223 111.020, 28.943 111.465 C 31.602 113.108, 47.041 98.494, 45.419 95.869 C 44.948 95.107, 44.074 95.521, 42.790 97.114 C 40.948 99.399, 40.913 99.404, 41.968 97.250 C 43.879 93.350, 41.367 94.691, 34.889 101.030 M 47.752 99.070 C 45.732 100.609, 45.150 101.751, 45.558 103.376 C 46.595 107.507, 39.249 114.178, 36.287 111.793 C 35.438 111.110, 34.302 111.650, 32.499 113.596 C 30.393 115.868, 30.057 116.934, 30.658 119.437 C 31.062 121.122, 31.324 123.723, 31.239 125.217 C 31.155 126.712, 31.524 128.206, 32.059 128.537 C 32.595 128.867, 32.774 129.557, 32.457 130.069 C 32.141 130.581, 32.886 131, 34.114 131 C 35.507 131, 37.879 129.275, 40.423 126.411 C 47.523 118.420, 54.504 111.582, 58.168 109.030 C 60.119 107.672, 62.679 105.203, 63.857 103.544 C 65.036 101.885, 66 101.047, 66 101.680 C 66 103.377, 59.129 110.190, 54.316 113.267 C 52.015 114.737, 48.865 117.595, 47.316 119.617 C 41.535 127.164, 37.675 131.043, 35.372 131.622 C 32.804 132.266, 32.571 132.774, 33.890 134.857 C 35.209 136.938, 38.088 135.502, 43.126 130.251 C 47.652 125.534, 52.460 120.823, 64.087 109.714 C 67.417 106.531, 69.970 103.409, 69.759 102.776 C 69.548 102.143, 68.053 101.224, 66.438 100.733 C 64.822 100.243, 62.825 99.575, 62 99.249 C 61.175 98.923, 59.600 98.562, 58.500 98.446 C 57.400 98.330, 55.150 97.952, 53.500 97.606 C 51.300 97.144, 49.767 97.534, 47.752 99.070 M 59.640 100.731 C 60.074 102.391, 58.724 103.865, 52.677 108.337 C 48.551 111.388, 43.838 115.823, 42.204 118.192 C 38.185 124.019, 35.413 126.372, 33.454 125.621 C 32.413 125.221, 31.982 125.446, 32.249 126.249 C 33.542 130.131, 37.750 127.306, 45.829 117.137 C 47.659 114.833, 51.409 111.430, 54.162 109.577 C 56.915 107.723, 59.859 105.218, 60.705 104.010 C 62.092 102.031, 62.088 101.660, 60.673 100.244 C 59.245 98.816, 59.151 98.861, 59.640 100.731 M 36.924 102.750 L 34.500 105.500 37.250 103.076 C 39.820 100.810, 40.459 100, 39.674 100 C 39.495 100, 38.258 101.237, 36.924 102.750 M 39.031 106.468 C 36.092 109.500, 35.890 110.021, 37.424 110.609 C 39.519 111.413, 45.638 105.841, 44.566 104.106 C 43.498 102.379, 42.639 102.746, 39.031 106.468 M 70.667 104.667 C 69.409 105.924, 70.001 106.876, 71.949 106.729 C 73.422 106.618, 73.637 106.267, 72.827 105.291 C 71.585 103.795, 71.549 103.785, 70.667 104.667 M 31.872 106.750 C 30.629 108.336, 30.664 108.371, 32.250 107.128 C 33.212 106.373, 34 105.585, 34 105.378 C 34 104.555, 33.179 105.084, 31.872 106.750 M 76 108.106 C 76 110.879, 71.115 116.955, 66.082 120.443 C 63.076 122.526, 61.393 123.065, 59.430 122.572 L 56.801 121.912 58.913 124.877 C 61.656 128.730, 66.757 133, 68.617 133 C 73.809 133, 85.980 121.953, 85.994 117.228 C 86 115.027, 78.666 106, 76.873 106 C 76.393 106, 76 106.948, 76 108.106 M 154 107 C 154 107.550, 153.346 108, 152.547 108 C 151.391 108, 151.215 109.023, 151.686 113 C 152.107 116.548, 151.931 118, 151.080 118 C 150.421 118, 150.169 118.464, 150.519 119.031 C 150.900 119.647, 152.625 119.786, 154.812 119.375 L 158.468 118.690 155.484 122.273 C 153.843 124.243, 151.912 125.888, 151.194 125.928 C 150.476 125.968, 151.151 124.889, 152.694 123.532 L 155.500 121.063 152.679 121.032 C 149.468 120.996, 147.032 118.999, 146.932 116.321 C 146.876 114.795, 146.689 114.864, 145.780 116.750 C 144.637 119.119, 143 119.783, 143 117.878 C 143 117.133, 142.460 117.203, 141.399 118.084 C 139.237 119.878, 136.731 120.147, 135.709 118.695 C 135.212 117.988, 135.128 118.420, 135.502 119.750 C 136.050 121.700, 135.759 122.001, 133.317 122.007 L 130.500 122.013 133.500 124 C 136.278 125.840, 136.334 125.987, 134.250 125.993 C 132.066 126, 131.116 127.494, 132.868 128.167 C 133.345 128.350, 134.022 129.625, 134.373 131 C 134.999 133.454, 134.989 133.459, 133.852 131.250 C 133.216 130.012, 132.414 129, 132.072 129 C 131.730 129, 130.674 133.547, 129.726 139.106 C 127.916 149.710, 124.006 159.462, 119.342 165.005 C 117.917 166.699, 116.956 168.290, 117.207 168.540 C 118.113 169.447, 127.640 162.428, 133.843 156.283 C 137.331 152.827, 140.345 150, 140.541 150 C 141.310 150, 138.534 156.710, 136.261 160.344 C 134.938 162.459, 134.034 164.368, 134.253 164.586 C 134.708 165.041, 146.877 152.837, 149.961 148.832 C 152.604 145.400, 156.978 136.017, 156.990 133.750 C 156.996 132.787, 156.289 132, 155.421 132 C 154.169 132, 153.985 132.654, 154.533 135.150 C 155.266 138.487, 155.471 138.432, 150.250 136.297 C 149.400 135.950, 148.988 136.861, 148.964 139.143 L 148.928 142.500 146.581 139.630 L 144.234 136.761 143.036 140.390 C 142.378 142.385, 141.407 143.751, 140.879 143.425 C 140.351 143.099, 140.180 142.007, 140.500 141 C 141.423 138.091, 139.503 137.836, 136.971 140.531 C 133.794 143.913, 132.851 143.626, 134.403 139.750 C 135.119 137.963, 136.007 135.648, 136.376 134.607 C 136.745 133.566, 137.298 132.965, 137.605 133.271 C 137.911 133.578, 137.639 134.806, 137 136 C 135.329 139.122, 136.599 139.705, 138.942 136.892 L 140.933 134.500 140.967 136.750 C 141.005 139.367, 142.501 139.742, 143.414 137.364 C 143.986 135.873, 144.217 135.887, 146.021 137.519 C 147.946 139.262, 148 139.237, 148 136.620 C 148 134.203, 148.212 134.043, 150.086 135.046 C 152.515 136.346, 153.908 135.508, 152.183 133.783 C 150.531 132.131, 150.709 131, 152.622 131 C 153.881 131, 153.991 130.694, 153.110 129.633 C 152.246 128.592, 152.342 127.961, 153.512 126.990 C 154.357 126.289, 155.362 126.029, 155.745 126.412 C 156.128 126.795, 155.793 127.510, 154.999 128.001 C 153.791 128.747, 153.847 129.004, 155.345 129.579 C 158.456 130.773, 159.224 128.499, 159.261 117.988 C 159.288 110.321, 158.951 107.582, 157.898 106.916 C 156.019 105.726, 154 105.769, 154 107 M 64.122 112.375 C 59.872 116.706, 58.802 120.785, 61.667 121.727 C 63.251 122.248, 75.318 110.324, 74.518 109.029 C 72.990 106.557, 68.374 108.043, 64.122 112.375 M 132.182 113.850 C 130.359 115.235, 130.008 116.186, 130.541 118.305 C 130.912 119.787, 131.873 121, 132.676 121 C 133.708 121, 133.938 120.379, 133.460 118.875 C 133.060 117.614, 133.276 116.447, 133.991 116.005 C 134.654 115.596, 135.040 114.547, 134.848 113.675 C 134.538 112.261, 134.249 112.280, 132.182 113.850 M 53.818 120.876 C 50.059 124.422, 49.782 124.953, 51.679 124.975 C 53.992 125.002, 56.324 123.132, 58.088 119.836 C 59.994 116.274, 58.243 116.700, 53.818 120.876 M 83.133 125.985 C 81.352 128.200, 78.119 130.919, 75.948 132.027 C 73.777 133.134, 72 134.413, 72 134.868 C 72 135.754, 83.487 147, 84.392 147 C 84.689 147, 86.410 146.293, 88.216 145.429 C 92.525 143.367, 97.352 136.684, 96.491 133.971 C 95.874 132.028, 88.443 122.790, 87.045 122.228 C 86.674 122.079, 84.913 123.769, 83.133 125.985 M 140.571 124.571 C 139.707 125.436, 139 126.716, 139 127.416 C 139 128.888, 142.174 132, 143.674 132 C 144.979 132, 148 128.678, 148 127.243 C 148 125.705, 145.131 123, 143.500 123 C 142.754 123, 141.436 123.707, 140.571 124.571 M 55 128 C 55 131.956, 44.324 143, 40.500 143 C 39.125 143, 38 143.359, 38 143.797 C 38 145.208, 45.422 151.759, 47.848 152.490 C 53.058 154.059, 67.025 140.805, 65.437 135.800 C 64.688 133.441, 57.213 125, 55.873 125 C 55.393 125, 55 126.350, 55 128 M 45.154 131.204 C 39.994 136.532, 39.249 138.265, 40.958 140.967 C 41.702 142.142, 43.109 141.211, 48.030 136.290 C 51.979 132.341, 54.050 129.498, 53.826 128.334 C 53.172 124.939, 50.302 125.888, 45.154 131.204 M 97.015 132.250 C 97.024 132.938, 97.440 134.148, 97.941 134.939 C 99.292 137.075, 93.624 144.415, 89.021 146.491 C 86.598 147.583, 84.364 147.938, 82.860 147.469 C 80.528 146.743, 80.522 146.759, 82.371 148.830 C 84.148 150.820, 84.425 150.847, 87.871 149.376 C 89.867 148.523, 92.423 147.460, 93.551 147.014 C 95.888 146.087, 101 138.843, 101 136.456 C 101 134.313, 99.157 131, 97.965 131 C 97.434 131, 97.007 131.563, 97.015 132.250 M 132.658 135.449 C 132.287 136.416, 132.582 136.714, 133.545 136.344 C 134.339 136.040, 134.740 135.388, 134.435 134.895 C 133.669 133.655, 133.303 133.769, 132.658 135.449 M 67 137 C 67 137.317, 69.203 139.745, 71.895 142.396 C 75.655 146.100, 77.167 147.006, 78.417 146.306 C 79.811 145.526, 79.430 144.725, 75.772 140.741 C 72.876 137.587, 70.774 136.141, 69.249 136.256 C 68.012 136.349, 67 136.684, 67 137 M 37 138 C 37 138.550, 37.450 139, 38 139 C 38.550 139, 39 138.550, 39 138 C 39 137.450, 38.550 137, 38 137 C 37.450 137, 37 137.450, 37 138 M 72.958 141.250 C 77.102 145.665, 78 146.459, 78 145.708 C 78 145.548, 75.862 143.410, 73.250 140.958 L 68.500 136.500 72.958 141.250 M 99.478 142.449 C 97.506 145.569, 95.297 147.507, 92.083 148.939 C 85.838 151.721, 83.651 153.783, 80.641 159.722 C 78.690 163.571, 76.854 165.497, 73.025 167.707 L 67.980 170.620 71.322 172.214 C 74.568 173.762, 74.798 173.724, 79.357 170.886 C 83.922 168.045, 87.989 162.957, 87.996 160.079 C 87.998 159.297, 87.246 157.824, 86.324 156.805 C 85.058 155.407, 84.930 154.670, 85.800 153.800 C 86.670 152.930, 87.439 153.087, 88.936 154.442 C 90.291 155.668, 91.725 156.035, 93.460 155.599 C 94.977 155.219, 96 155.386, 96 156.016 C 96 156.727, 96.694 156.699, 98.135 155.928 C 99.648 155.118, 99.915 154.566, 99.051 154.032 C 98.174 153.489, 98.346 153.054, 99.666 152.476 C 100.675 152.034, 101.950 151.634, 102.500 151.586 C 103.050 151.539, 103.551 150.496, 103.613 149.268 C 103.675 148.040, 104.292 146.353, 104.984 145.519 C 105.991 144.306, 105.994 143.401, 105 141.001 C 104.317 139.350, 103.427 138, 103.024 138 C 102.620 138, 101.025 140.002, 99.478 142.449 M 64.504 143.815 C 63.115 145.913, 59.929 149.075, 57.423 150.842 L 52.866 154.054 57.683 158.513 C 63.699 164.083, 66.259 164.854, 70.733 162.444 C 74.558 160.385, 78.421 153.900, 77.518 151.056 C 76.970 149.331, 68.515 140, 67.500 140 C 67.240 140, 65.892 141.717, 64.504 143.815 M 105.467 147.721 C 106.435 149.643, 103.252 154.818, 100.097 156.450 C 96.641 158.237, 91.491 157.754, 88.888 155.399 C 86.210 152.975, 85.581 154.198, 87.955 157.216 C 91.493 161.713, 89.002 169.396, 83.001 172.499 C 81.362 173.347, 79.791 174.031, 79.510 174.020 C 77.941 173.958, 79.256 175.552, 80.998 175.824 C 84.329 176.345, 89.300 172.500, 92 167.315 C 93.905 163.657, 95.687 161.891, 99.493 159.892 C 102.239 158.449, 105.274 155.971, 106.238 154.384 C 108.375 150.864, 108.376 150.846, 106.426 148.441 C 105.560 147.374, 105.128 147.049, 105.467 147.721 M 78 149.566 C 78 149.877, 78.417 150.910, 78.926 151.862 C 80.267 154.367, 75.182 162.012, 70.556 164.446 C 67.466 166.072, 66.526 166.185, 64.843 165.134 C 63.102 164.046, 62.875 164.110, 63.165 165.605 C 63.349 166.556, 64.722 167.741, 66.215 168.239 C 70.384 169.628, 77.416 164.392, 80.421 157.662 C 82.498 153.011, 82.576 152.327, 81.208 150.750 C 79.737 149.054, 78 148.413, 78 149.566 M 100.500 153 C 100.160 153.550, 100.359 154, 100.941 154 C 101.523 154, 102 153.550, 102 153 C 102 152.450, 101.802 152, 101.559 152 C 101.316 152, 100.840 152.450, 100.500 153 M 85.958 166.579 C 85.199 167.997, 83.435 169.779, 82.039 170.539 C 80.643 171.298, 80.097 171.938, 80.827 171.960 C 82.396 172.007, 88 166.630, 88 165.077 C 88 163.387, 87.449 163.792, 85.958 166.579 M 124.341 169.059 C 123.778 169.622, 119.983 171.876, 115.908 174.066 C 109.004 177.777, 108.772 178.005, 112.500 177.412 C 117.283 176.652, 124.512 172.715, 125.406 170.383 C 126.200 168.316, 125.703 167.697, 124.341 169.059" stroke="none" fill="#ea9104" fill-rule="evenodd"/></svg>