<svg xmlns="http://www.w3.org/2000/svg" width="186" height="215" viewBox="0 0 186 215" version="1.1"><path d="M 73 12.914 C 62.825 18.841, 48.523 27.151, 41.217 31.382 C 33.912 35.613, 21.987 42.549, 14.717 46.797 L 1.500 54.519 1.241 107.659 L 0.983 160.799 6.241 163.792 C 9.134 165.438, 17.125 170.046, 24 174.033 C 30.875 178.020, 42.125 184.526, 49 188.491 C 55.875 192.456, 68.614 199.817, 77.308 204.848 L 93.116 213.996 115.808 200.892 C 128.289 193.685, 141.650 185.930, 145.500 183.659 C 149.350 181.389, 153.400 179.043, 154.500 178.448 C 155.600 177.852, 161 174.738, 166.500 171.527 C 172 168.317, 178.412 164.597, 180.750 163.260 L 185 160.829 185 107.662 L 185 54.494 171.750 46.886 C 164.463 42.702, 143.995 30.891, 126.268 20.639 C 108.540 10.388, 93.465 2.031, 92.768 2.069 C 92.070 2.106, 83.175 6.986, 73 12.914 M 49.500 31.906 L 6.500 56.777 6.241 107.370 L 5.982 157.963 9.741 160.318 C 20.446 167.024, 92.041 208, 93.052 208 C 93.700 208, 113.530 196.862, 137.118 183.250 L 180.005 158.500 179.752 107.603 L 179.500 56.706 136.527 31.853 C 112.891 18.184, 93.316 7.008, 93.027 7.018 C 92.737 7.028, 73.150 18.228, 49.500 31.906 M 68 29.172 C 54.525 36.961, 36.750 47.216, 28.500 51.961 L 13.500 60.589 13.240 107.665 L 12.981 154.741 15.754 156.120 C 17.279 156.879, 26.621 162.195, 36.514 167.933 C 46.406 173.670, 62.600 183.056, 72.500 188.789 C 82.400 194.523, 91.017 199.633, 91.650 200.146 C 92.417 200.768, 96.741 198.773, 104.650 194.145 C 111.167 190.331, 129.325 179.799, 145 170.739 L 173.500 154.266 173.760 107.820 L 174.020 61.374 160.350 53.437 C 152.831 49.072, 145.064 44.597, 143.090 43.492 C 137.376 40.297, 103.977 20.990, 98.735 17.852 C 96.114 16.284, 93.639 15.002, 93.235 15.005 C 92.831 15.008, 81.475 21.384, 68 29.172 M 98.653 32.681 C 98.294 33.040, 97.997 34.496, 97.994 35.917 C 97.969 47.722, 86.049 62.358, 70 70.288 C 63.628 73.437, 63.234 73.499, 50 73.444 C 38.716 73.397, 35.546 73.033, 30.689 71.227 L 24.878 69.066 25.189 72.179 C 25.458 74.875, 26.056 75.455, 29.654 76.512 C 37.223 78.735, 45.361 85.989, 43.559 88.905 C 42.523 90.581, 36.931 90.213, 30.657 88.054 L 25 86.108 25 90.554 L 25 95 30.822 95 C 41.899 95, 50.397 99.903, 51.915 107.169 C 54.237 118.285, 45.274 129.691, 31.127 133.624 L 25 135.328 25 142.157 L 25 148.987 29.466 145.578 C 36.196 140.441, 43.924 137.915, 52.971 137.895 C 66.778 137.865, 76.497 141.548, 84.123 149.701 C 90.959 157.008, 93.213 163.870, 93.178 177.262 L 93.150 188.024 97.285 185.558 L 101.421 183.092 101.128 174.626 C 100.894 167.851, 101.240 165.245, 102.859 161.585 C 107.388 151.347, 115.233 153.726, 116.659 165.770 C 117.515 172.997, 118.048 173.494, 122.266 171.006 L 125.842 168.896 123.771 164.214 C 120.931 157.795, 120.249 147.353, 122.397 143.199 C 126.684 134.909, 140.833 138.984, 147.042 150.297 L 149.585 154.930 154.964 151.699 C 157.923 149.923, 160.490 148.026, 160.670 147.485 C 160.849 146.943, 158.976 145.224, 156.507 143.664 C 143.630 135.529, 134.961 117.800, 136.344 102.434 C 137.810 86.150, 146.754 75.294, 163.393 69.601 C 165.691 68.814, 165.779 68.904, 159.095 65.225 L 153.691 62.249 149.095 65.774 C 136.207 75.658, 125.565 76.556, 120.669 68.173 C 119.004 65.321, 118.889 64.314, 119.861 61.070 C 120.484 58.991, 122.562 55.312, 124.479 52.895 L 127.964 48.500 125.732 46.772 C 124.504 45.822, 123.187 45.034, 122.804 45.022 C 122.421 45.010, 119.496 43.496, 116.304 41.658 C 102.507 33.713, 99.268 32.065, 98.653 32.681 M 109.557 54.223 C 107.614 56.996, 107.571 59.399, 109.436 60.947 C 112.509 63.497, 117.278 57.773, 115.639 53.502 C 114.784 51.274, 111.336 51.682, 109.557 54.223 M 92.682 69.362 C 91.552 71.088, 89.917 71.862, 86.621 72.234 C 84.138 72.513, 80.389 73.638, 78.289 74.732 C 75.959 75.947, 73.287 76.549, 71.435 76.277 C 66.506 75.554, 61.513 79.201, 58.538 85.697 C 55.516 92.300, 55.440 93.570, 57.839 97.503 C 59.837 100.779, 61.339 109, 59.940 109 C 57.806 109, 56.930 113.037, 58.149 117.256 C 60.954 126.966, 67.746 136, 72.240 136 C 73.323 136, 76.182 137.331, 78.593 138.958 C 81.004 140.585, 84.756 142.396, 86.930 142.981 C 89.105 143.567, 92.726 144.871, 94.978 145.879 C 98.948 147.656, 99.272 147.656, 105.703 145.873 C 112.075 144.106, 117 140.900, 117 138.520 C 117 137.898, 118.140 135.843, 119.534 133.954 C 120.927 132.065, 123.013 127.928, 124.168 124.760 C 125.323 121.592, 126.834 119, 127.525 119 C 128.217 119, 129.534 117.122, 130.452 114.827 C 133.899 106.215, 129.283 89, 123.527 89 C 120.529 89, 118.906 86.909, 118.565 82.606 C 118.080 76.492, 116.205 73.590, 110.561 70.214 C 106.258 67.640, 104.096 67, 99.709 67 C 95.053 67, 93.997 67.355, 92.682 69.362 M 95.500 72 C 93.718 73.969, 93.753 74, 97.786 74 C 100.039 74, 102.160 74.450, 102.500 75 C 102.840 75.550, 104 76, 105.079 76 C 106.157 76, 108.786 77.102, 110.920 78.449 L 114.800 80.899 114.086 78.228 C 113.164 74.781, 105.729 70.184, 100.905 70.079 C 98.506 70.026, 96.708 70.666, 95.500 72 M 82 76.652 C 80.075 77.518, 79.059 78.437, 79.741 78.694 C 81.248 79.261, 87.747 77.218, 88.545 75.927 C 89.423 74.506, 85.905 74.896, 82 76.652 M 87 78.121 C 85.075 79.153, 82.535 79.998, 81.356 79.998 C 78.771 80, 72.653 85.454, 73.240 87.234 C 73.469 87.930, 74.634 88.644, 75.828 88.820 C 77.342 89.042, 77.965 89.800, 77.884 91.320 C 77.803 92.850, 77.637 93.008, 77.330 91.851 C 76.850 90.044, 71.030 88.538, 68.108 89.466 C 65.628 90.253, 64 94.238, 64 99.522 C 64 103.819, 64.137 104.013, 68.636 106.062 L 73.271 108.173 75.315 106.129 C 77.028 104.416, 77.179 103.687, 76.242 101.632 C 75.515 100.036, 75.439 98.189, 76.026 96.340 L 76.926 93.500 76.713 96.847 C 76.529 99.741, 77.178 100.774, 81.500 104.472 L 86.500 108.750 92.500 106.809 C 99.415 104.572, 100.508 103.476, 101.403 97.883 C 101.935 94.556, 102.371 93.929, 103.777 94.474 C 109.300 96.611, 110.725 96.299, 113.393 92.372 C 114.827 90.262, 116 87.740, 116 86.768 C 116 84.346, 108.469 77, 105.985 77 C 104.877 77, 102.290 78.543, 100.235 80.428 L 96.500 83.857 99.500 87.107 C 101.851 89.654, 101.363 89.418, 97.242 86.015 C 92.262 81.903, 92.073 81.577, 93.647 79.837 C 95.797 77.462, 96.338 77.500, 95.035 79.934 C 93.658 82.508, 93.726 83, 95.465 83 C 96.270 83, 97.401 82.119, 97.978 81.042 C 98.819 79.469, 98.642 78.879, 97.078 78.042 C 94.237 76.522, 92.318 76.763, 91.448 78.750 C 91.027 79.713, 90.743 80.805, 90.817 81.178 C 90.891 81.550, 88.600 82.622, 85.726 83.560 C 82.852 84.498, 80.050 85.599, 79.500 86.009 C 78.950 86.418, 77.600 86.390, 76.500 85.947 C 74.539 85.156, 74.541 85.139, 76.590 85.070 C 79.810 84.962, 91 79.023, 91 77.422 C 91 76.640, 90.888 76.055, 90.750 76.123 C 90.612 76.190, 88.925 77.089, 87 78.121 M 99 77 C 99 77.550, 99.423 78, 99.941 78 C 100.459 78, 101.160 77.550, 101.500 77 C 101.840 76.450, 101.416 76, 100.559 76 C 99.702 76, 99 76.450, 99 77 M 67.353 81.050 C 65.263 82.389, 63.450 84.927, 61.958 88.603 C 59.934 93.590, 59.864 94.293, 61.252 95.680 C 62.639 97.068, 62.861 96.908, 63.486 94.066 C 63.867 92.330, 65.256 89.693, 66.574 88.205 C 67.891 86.717, 69.419 84.964, 69.970 84.308 C 70.520 83.652, 71.765 82.648, 72.735 82.076 C 74.273 81.170, 74.307 80.908, 73 80.034 C 71.021 78.711, 70.998 78.715, 67.353 81.050 M 46.180 82.250 C 46.615 85.309, 52 86.164, 52 83.173 C 52 81.228, 50.201 80, 47.349 80 C 46.378 80, 45.972 80.782, 46.180 82.250 M 85 85.404 C 81.868 86.524, 81.346 87.255, 80.039 92.352 L 78.577 98.048 82.663 102.134 L 86.749 106.219 92.624 104.360 L 98.500 102.500 99.400 97.195 C 100.294 91.922, 100.277 91.868, 96.447 87.945 C 92.366 83.766, 90.646 83.385, 85 85.404 M 70 86.559 C 70 87.416, 70.450 87.840, 71 87.500 C 71.550 87.160, 72 86.459, 72 85.941 C 72 85.423, 71.550 85, 71 85 C 70.450 85, 70 85.702, 70 86.559 M 85.828 87.136 C 84.198 87.733, 82.735 89.321, 82.078 91.207 C 80.264 96.409, 80.759 98.715, 84.266 101.389 C 87.452 103.819, 87.644 103.843, 92.165 102.355 C 96.608 100.892, 96.827 100.638, 97.496 96.177 C 98.157 91.770, 98.020 91.380, 94.885 88.763 C 91.360 85.820, 90.060 85.587, 85.828 87.136 M 86.831 91.250 C 84.923 92.787, 83.961 95.372, 84.843 96.591 C 86.756 99.237, 88.828 100.016, 91.378 99.046 C 94.525 97.850, 94.923 94.145, 92.171 91.655 C 89.981 89.673, 88.891 89.590, 86.831 91.250 M 115.405 92.155 C 114.962 92.870, 115.130 93.038, 115.845 92.595 C 116.998 91.883, 117.393 91, 116.559 91 C 116.316 91, 115.797 91.520, 115.405 92.155 M 86.590 93.627 C 85.876 95.488, 87.598 98, 89.587 98 C 91.615 98, 93.155 94.555, 91.753 93.153 C 90.084 91.484, 87.314 91.738, 86.590 93.627 M 117.109 95.324 C 115.257 98.320, 115.156 99.283, 116.084 105.074 C 117.055 111.136, 119.153 116.019, 120.773 115.985 C 121.173 115.976, 122.146 115.561, 122.936 115.061 C 124.091 114.330, 124.129 113.860, 123.129 112.656 C 121.677 110.906, 121.083 96.352, 122.357 93.750 C 124.024 90.345, 119.313 91.758, 117.109 95.324 M 112.946 96.100 C 111.817 98.211, 109.028 98.368, 104.811 96.558 C 103.440 95.969, 103.006 96.554, 102.507 99.666 C 101.571 105.505, 100.945 106.121, 93.455 108.568 L 86.500 110.841 83.452 107.920 C 79.731 104.354, 79.344 104.337, 76.327 107.592 C 74.739 109.306, 73.344 109.964, 72.212 109.533 C 67.674 107.806, 73.177 111.097, 78.620 113.365 L 84.740 115.916 94.120 112.947 C 99.279 111.315, 103.965 109.646, 104.533 109.239 C 106.856 107.577, 115.798 94, 114.570 94 C 114.295 94, 113.565 94.945, 112.946 96.100 M 123.130 95.758 C 121.732 98.370, 121.667 101, 123 101 C 123.550 101, 124 100.475, 124 99.833 C 124 99.192, 124.284 98.950, 124.630 99.297 C 124.977 99.643, 125.314 101.931, 125.380 104.380 C 125.473 107.838, 125.221 108.601, 124.250 107.794 C 122.690 106.497, 122.645 107.684, 124.098 111.851 C 124.702 113.583, 125.553 115, 125.989 115 C 128.369 115, 128.002 101.010, 125.493 96.074 C 124.260 93.649, 124.258 93.649, 123.130 95.758 M 109.811 106.229 C 106.149 111.745, 106.056 111.804, 95.456 115.354 L 84.788 118.926 79.927 116.463 C 77.254 115.108, 74.784 114, 74.438 114 C 74.093 114, 74.914 115.912, 76.263 118.250 C 77.613 120.588, 79.008 123.714, 79.364 125.197 C 79.781 126.933, 81.522 128.799, 84.256 130.437 C 86.590 131.836, 88.103 132.985, 87.618 132.991 C 87.133 132.996, 85.333 132.152, 83.618 131.115 C 80.656 129.324, 80.412 129.316, 78.729 130.968 C 77.039 132.628, 77.143 132.829, 81.003 135.383 C 83.227 136.855, 86.386 138.327, 88.023 138.655 C 90.501 139.150, 91 138.927, 91 137.325 C 91 136.266, 90.438 134.794, 89.750 134.053 C 88.733 132.956, 88.808 132.813, 90.156 133.285 C 91.100 133.616, 92.519 133.084, 93.456 132.048 C 95.288 130.024, 104.867 126.303, 109.500 125.816 C 111.778 125.576, 112.921 124.658, 114.248 122 C 115.210 120.075, 115.998 119.085, 115.998 119.800 C 115.999 120.514, 115.379 122.314, 114.620 123.800 C 113.074 126.827, 114.143 131.452, 116.229 130.757 C 117.510 130.330, 121.346 123.250, 122.531 119.128 C 123.169 116.905, 122.991 116.782, 119.676 117.169 C 117.731 117.396, 116.387 117.183, 116.688 116.696 C 116.989 116.208, 116.733 114.840, 116.118 113.655 C 115.503 112.470, 114.662 109.065, 114.249 106.088 L 113.498 100.677 109.811 106.229 M 67.733 108.124 C 68.412 108.808, 69.219 109.115, 69.526 108.807 C 69.834 108.499, 69.279 107.940, 68.293 107.564 C 66.868 107.022, 66.753 107.136, 67.733 108.124 M 64.058 111.430 C 63.110 112.572, 63.271 113.075, 64.857 113.923 C 67.505 115.341, 73 125.633, 73 129.178 C 73 132.265, 73.653 132.581, 76.130 130.696 C 80.433 127.421, 71.549 110, 65.575 110 C 65.394 110, 64.711 110.644, 64.058 111.430 M 62.321 116.854 C 62.660 118.550, 63.852 120.852, 64.969 121.969 C 66.086 123.086, 67 124.822, 67 125.826 C 67 126.830, 68.125 128.708, 69.500 130 L 72 132.349 72 129.627 C 72 127.962, 70.964 125.944, 69.331 124.431 C 67.864 123.071, 66.551 120.955, 66.415 119.729 C 66.278 118.503, 66.129 117.178, 66.083 116.785 C 66.037 116.392, 65.033 115.553, 63.852 114.921 C 61.827 113.837, 61.740 113.948, 62.321 116.854 M 101.672 129.948 C 95.777 131.854, 93.090 134.106, 93.032 137.191 C 92.981 139.897, 94.757 140.243, 97.029 137.971 C 98.648 136.352, 99.861 136.013, 102.315 136.496 C 104.762 136.976, 105.152 136.868, 104 136.030 C 102.847 135.192, 103.194 135.094, 105.500 135.608 C 109.483 136.496, 110.155 136.939, 109.391 138.176 C 108.957 138.878, 108.526 138.852, 108.059 138.095 C 107.234 136.761, 101 138.589, 101 140.165 C 101 140.733, 101.933 140.815, 103.250 140.364 C 104.487 139.939, 106.688 139.662, 108.139 139.747 C 111.560 139.948, 115.164 136.355, 112.960 134.941 C 112.157 134.425, 110.150 134.247, 108.500 134.545 C 105.966 135.003, 105.783 134.911, 107.322 133.953 C 108.325 133.330, 110.237 133.094, 111.572 133.429 C 113.190 133.835, 113.995 133.615, 113.985 132.769 C 113.933 128.504, 109.372 127.459, 101.672 129.948 M 97.074 139.151 C 94.579 141.829, 95.221 143, 99.181 143 C 101.665 143, 102.029 142.740, 101.105 141.627 C 100.478 140.871, 100.246 139.521, 100.590 138.627 C 101.479 136.310, 99.437 136.615, 97.074 139.151 M 95.200 153.200 C 91.993 156.407, 95.137 164.791, 98.500 162 C 101.115 159.830, 99.940 152, 97 152 C 96.670 152, 95.860 152.540, 95.200 153.200" stroke="none" fill="#ee9304" fill-rule="evenodd"/></svg>