<svg xmlns="http://www.w3.org/2000/svg" width="186" height="215" viewBox="0 0 186 215" version="1.1"><path d="M 83.500 6.860 C 79.100 9.500, 69.875 14.894, 63 18.848 C 56.125 22.802, 39.475 32.441, 26 40.268 L 1.500 54.500 1.241 107.650 L 0.983 160.799 6.241 163.792 C 9.134 165.438, 17.125 170.046, 24 174.033 C 30.875 178.020, 42.125 184.526, 49 188.491 C 55.875 192.456, 68.613 199.816, 77.306 204.847 L 93.111 213.994 121.806 197.343 C 155.404 177.847, 174.821 166.615, 180.750 163.245 L 185 160.829 184.990 107.665 L 184.980 54.500 171.740 46.892 C 164.458 42.708, 143.995 30.896, 126.268 20.642 C 108.540 10.389, 93.465 2.014, 92.768 2.031 C 92.070 2.048, 87.900 4.221, 83.500 6.860 M 49.500 31.902 L 6.500 56.777 6.241 107.370 L 5.982 157.963 9.741 160.321 C 20.559 167.108, 91.985 208, 93.020 208 C 93.686 208, 113.527 196.862, 137.110 183.250 L 179.990 158.500 179.995 107.773 L 180 57.046 177.750 55.646 C 172.030 52.087, 95.326 8.061, 94 7.576 C 93.130 7.257, 74.443 17.473, 49.500 31.902 M 55 36.620 C 34.375 48.511, 16.488 58.871, 15.250 59.643 L 13 61.046 13 107.838 L 13 154.629 16.885 156.703 C 19.021 157.843, 28.134 163.057, 37.135 168.288 C 46.136 173.520, 62.432 182.972, 73.350 189.292 L 93.199 200.784 103.850 194.582 C 109.707 191.170, 123.725 183.049, 135 176.535 C 146.275 170.020, 159.662 162.270, 164.750 159.312 L 174 153.935 174 107.708 C 174 64.761, 173.876 61.404, 172.250 60.401 C 170.607 59.386, 153.711 49.620, 111.577 25.332 C 101.719 19.649, 93.394 15, 93.077 15.001 C 92.760 15.001, 75.625 24.730, 55 36.620 M 70.628 43.267 C 70.157 44.239, 68.073 49.864, 65.996 55.767 C 63.919 61.670, 61.868 66.500, 61.439 66.500 C 61.009 66.500, 60.143 63.920, 59.513 60.768 C 58.884 57.615, 58.103 54.769, 57.778 54.444 C 57.452 54.119, 56.177 57.051, 54.943 60.960 C 53.710 64.869, 52.339 68.291, 51.897 68.564 C 51.455 68.837, 50.541 67.134, 49.865 64.780 L 48.637 60.500 47.289 68.500 C 46.547 72.900, 45.616 78.270, 45.220 80.433 L 44.500 84.367 41.579 79.946 C 39.972 77.515, 38.536 75.970, 38.387 76.513 C 38.238 77.056, 37.629 83.099, 37.034 89.941 C 36.438 96.784, 35.806 102.527, 35.629 102.704 C 35.452 102.881, 33.663 102.339, 31.654 101.500 C 27.198 99.638, 27.181 99.768, 30.515 110.500 C 31.882 114.900, 33 118.612, 33 118.750 C 33 118.888, 31.425 119, 29.500 119 C 25.369 119, 25.213 119.793, 28.364 124.784 C 29.664 126.843, 31.902 130.847, 33.339 133.682 L 35.950 138.835 32.828 140.812 L 29.706 142.789 36.853 147.541 C 40.784 150.155, 44 152.637, 44 153.058 C 44 153.478, 42.593 155.006, 40.874 156.452 C 39.155 157.899, 37.956 159.290, 38.210 159.543 C 38.463 159.797, 42.907 160.704, 48.085 161.560 C 60.997 163.693, 60.319 163.301, 58.528 167.586 L 57.011 171.218 68.006 170.500 C 78.663 169.803, 80.406 170.194, 77.888 172.712 C 75.386 175.214, 77.953 175.498, 86 173.610 L 94.500 171.615 89.500 170.917 C 82.700 169.968, 69.275 165.366, 65 162.518 C 63.075 161.235, 58.748 157.557, 55.385 154.343 C 50.609 149.780, 48.436 146.660, 45.468 140.100 C 41.726 131.832, 41.670 131.526, 41.890 120.600 C 42.108 109.804, 42.231 109.254, 46.395 100.488 C 51.175 90.426, 56.088 85.235, 68.600 77.023 C 75.084 72.768, 76.935 72.113, 89.922 69.480 C 105.326 66.358, 105.500 65.928, 92.082 64.127 C 87.452 63.506, 83.456 62.789, 83.201 62.534 C 82.946 62.279, 83.696 58.246, 84.868 53.571 C 86.041 48.897, 87 44.803, 87 44.473 C 87 44.143, 83.737 48.204, 79.750 53.497 L 72.500 63.121 71.991 52.311 C 71.661 45.292, 71.183 42.120, 70.628 43.267 M 98.981 52.572 C 89.896 57.208, 90.142 57.567, 101.308 55.975 C 122.914 52.894, 122.983 52.854, 112.321 49.688 L 107.462 48.245 98.981 52.572 M 124.082 79.368 C 121.313 83.848, 121.338 88.575, 124.139 90.075 C 129.594 92.994, 132.276 93.083, 136.214 90.477 C 138.296 89.099, 140 87.406, 140 86.714 C 140 86.022, 141.339 83.831, 142.976 81.846 L 145.951 78.236 138.435 77.118 C 127.154 75.440, 126.440 75.552, 124.082 79.368 M 114.384 83.250 C 109.945 86.138, 106.249 88.950, 106.171 89.500 C 105.936 91.167, 112.243 92.850, 114.193 91.640 C 115.457 90.856, 117.559 91.181, 122.485 92.920 C 126.115 94.201, 129.355 94.979, 129.685 94.648 C 130.016 94.318, 129.434 93.778, 128.393 93.450 C 123.083 91.774, 121.502 90.161, 121.194 86.108 C 121.026 83.891, 121.380 81.159, 121.980 80.038 C 122.580 78.917, 122.932 78, 122.763 78 C 122.594 78, 118.824 80.362, 114.384 83.250 M 144.174 82.314 C 140.940 85.757, 141.531 86.330, 145.789 83.879 C 151.123 80.809, 156.124 81.817, 159.388 86.620 C 160.732 88.598, 162.071 89.694, 162.431 89.111 C 162.785 88.539, 161.873 86.254, 160.404 84.035 C 157.805 80.107, 157.583 80, 152.041 80 C 147.384 80, 145.953 80.421, 144.174 82.314 M 83 85 C 79.891 87.432, 78.397 87.495, 77.045 85.250 C 76.102 83.684, 75.632 83.915, 72.579 87.449 C 69.411 91.114, 68.979 91.311, 66.536 90.199 C 63.002 88.588, 63.209 88.421, 62.448 93.500 C 61.827 97.638, 61.541 98, 58.886 98 C 56.053 98, 56 98.101, 56 103.521 C 56 108.592, 55.775 109.139, 53.250 110.224 C 51.737 110.873, 50.381 111.471, 50.235 111.551 C 50.089 111.632, 50.612 113.225, 51.397 115.093 C 52.662 118.101, 52.639 118.803, 51.194 121.248 C 49.638 123.883, 49.667 124.110, 51.843 126.254 L 54.122 128.500 56.171 126.003 L 58.220 123.507 55.654 121.591 L 53.089 119.676 56.138 115.826 C 58.873 112.373, 59.076 111.656, 58.106 108.873 C 56.807 105.147, 57.064 104.630, 61.031 102.987 C 63.494 101.967, 64.045 101.203, 63.803 99.144 C 63.540 96.911, 64.023 96.426, 67.487 95.450 C 70.738 94.534, 71.648 93.722, 72.414 91.053 C 73.336 87.838, 73.439 87.788, 78.207 88.246 C 81.857 88.597, 83.272 88.337, 83.908 87.200 C 84.638 85.895, 85.166 85.982, 87.764 87.832 C 90.398 89.708, 90.930 89.790, 92.010 88.488 C 93.008 87.286, 92.963 87, 91.777 87 C 90.970 87, 89.495 86.100, 88.500 85 C 86.291 82.559, 86.121 82.559, 83 85 M 140.199 89.922 C 135.633 93.138, 131.676 95.990, 131.406 96.261 C 131.135 96.531, 132.056 99.250, 133.452 102.302 L 135.991 107.852 141.656 105.861 C 147.965 103.643, 158.534 96.042, 159.488 93.037 C 160.077 91.181, 157.778 86.385, 155.523 84.765 C 152.732 82.761, 148.202 84.286, 140.199 89.922 M 95.198 87.290 C 93.989 88.576, 93 89.937, 93 90.314 C 93 91.337, 98.273 91.113, 100 90.018 C 101.293 89.197, 101.217 88.782, 99.448 87.008 L 97.395 84.951 95.198 87.290 M 82.780 91.991 C 80.707 95.619, 80.214 95.929, 77.353 95.399 C 74.319 94.837, 74.182 94.962, 73.516 98.908 C 72.864 102.763, 72.626 103, 69.412 103 L 66 103 66 108.392 C 66 113.309, 65.780 113.838, 63.500 114.411 C 60.574 115.145, 60.475 115.810, 62.556 120.782 C 64.068 124.396, 64.042 124.559, 61.655 126.616 L 59.199 128.733 62.729 132.262 C 66.128 135.662, 66.199 135.878, 64.629 138.119 C 62.373 141.340, 62.540 141.820, 66.250 142.808 C 69.303 143.622, 69.489 143.926, 69.311 147.837 L 69.121 152 73.449 152 C 77.604 152, 77.804 152.140, 78.434 155.500 C 78.795 157.425, 79.239 159, 79.420 159 C 79.601 159, 81.601 158.346, 83.865 157.548 C 87.815 156.154, 88.027 156.184, 89.126 158.298 C 89.756 159.509, 90.393 160.646, 90.543 160.824 C 90.692 161.002, 92.318 160.357, 94.157 159.391 L 97.500 157.635 93.982 156.881 C 87.454 155.483, 80.522 151.889, 76.704 147.924 C 71.287 142.298, 67 132.249, 67 125.178 C 67 113.037, 75.796 98.395, 85.731 94.001 C 90.196 92.026, 90.255 91.940, 88.492 89.991 C 85.990 87.226, 85.380 87.440, 82.780 91.991 M 74 90.936 C 74 93.836, 78.831 94.952, 80.645 92.470 C 82.247 90.280, 82.395 90.427, 77.750 89.587 C 74.427 88.987, 74 89.140, 74 90.936 M 98 92.009 C 81.270 93.430, 69 107.323, 69 124.847 C 69 142.761, 81.026 155, 98.630 155 C 103.670 155, 105.772 154.538, 107.727 153 C 109.126 151.900, 110.788 151, 111.422 151 C 113.257 151, 121.631 141.897, 123.949 137.384 C 126.185 133.029, 127.894 122.978, 126.389 123.032 C 124.279 123.107, 121.969 126.008, 119.987 131.069 C 115.090 143.576, 102.790 149.833, 90.899 145.866 C 86.621 144.439, 81.398 139.612, 78.912 134.790 C 76.357 129.831, 76.337 119.713, 78.872 113.799 C 83.728 102.470, 98.334 96.733, 109.090 101.929 C 112.870 103.756, 113.241 103.769, 116.036 102.179 C 121.088 99.305, 119.283 96.679, 110 93.400 C 105.801 91.917, 102.962 91.588, 98 92.009 M 117.500 95.364 C 120.536 97.959, 125.365 98.836, 126.501 96.998 C 127.214 95.844, 123.094 94.058, 118 93.312 L 114.500 92.799 117.500 95.364 M 68.500 96.373 C 64.555 97.750, 64.723 97.552, 65.476 99.925 C 66.478 103.080, 70.785 102.696, 72.062 99.337 C 73.352 95.943, 72.282 95.052, 68.500 96.373 M 107.060 110.528 C 98.568 116.247, 91.268 121.557, 90.836 122.328 C 89.029 125.558, 89.647 129.691, 92.551 133.793 C 97.108 140.228, 98.612 139.808, 117.104 126.928 C 125.847 120.838, 133 115.424, 133 114.897 C 133 113.100, 127.779 101.502, 126.638 100.765 C 124.328 99.273, 122.176 100.346, 107.060 110.528 M 131.513 105.624 C 132.881 108.718, 134 111.418, 134 111.624 C 134 111.831, 134.425 112, 134.945 112 C 136.035 112, 130.874 100.083, 129.763 100.033 C 129.357 100.015, 130.145 102.531, 131.513 105.624 M 91.696 102.937 C 80.822 108.011, 75.342 120.734, 79.134 132.101 C 81.569 139.398, 90.598 145.934, 98.305 145.978 C 105.951 146.022, 116.910 138.191, 118.595 131.479 C 119.680 127.156, 118.369 127.570, 112.820 133.301 C 104.084 142.323, 98.177 144.024, 90.500 139.729 C 85.923 137.169, 82 130.499, 82 125.277 C 82 121.009, 85.547 113.502, 88.756 110.977 C 92.813 107.786, 98.435 106.491, 102.637 107.781 C 105.570 108.681, 106.686 108.596, 108.621 107.329 C 111.783 105.257, 111.638 104.675, 107.466 102.685 C 102.990 100.551, 96.591 100.653, 91.696 102.937 M 60.211 104.848 C 58.308 106.056, 59.738 114.315, 61.718 113.555 C 62.513 113.250, 63.352 113, 63.582 113 C 63.812 113, 64 110.975, 64 108.500 C 64 103.990, 63.033 103.058, 60.211 104.848 M 109.527 115.940 C 102.791 120.456, 97.199 124.933, 96.738 126.178 C 95.623 129.193, 97.707 133.888, 100.467 134.581 C 102.128 134.998, 105.610 133.089, 114.401 126.942 C 120.846 122.435, 126.853 117.627, 127.750 116.258 C 129.203 114.041, 129.220 113.482, 127.909 111.135 C 125.313 106.488, 122.547 107.211, 109.527 115.940 M 93.841 110.344 C 88.081 112.904, 84 118.982, 84 125 C 84 129.054, 86.575 134.521, 89.610 136.908 C 93.960 140.329, 94.326 139.307, 90.530 134.336 C 88.572 131.771, 87.168 128.958, 87.410 128.086 C 87.652 127.214, 88.137 125.074, 88.487 123.331 C 89.001 120.772, 90.540 119.235, 96.478 115.349 C 100.522 112.702, 103.618 110.191, 103.357 109.768 C 102.657 108.636, 96.901 108.984, 93.841 110.344 M 111.318 117.003 C 104.618 121.399, 98.856 125.879, 98.513 126.960 C 97.824 129.128, 99.482 133, 101.099 133 C 102.449 133, 124.141 118.070, 125.718 116.056 C 127.338 113.988, 127.299 113.582, 125.250 111.116 L 123.500 109.010 111.318 117.003 M 57.041 116.923 C 56.006 118.858, 56.140 119.521, 57.963 121.460 L 60.097 123.732 57.529 126.784 L 54.960 129.836 57.914 131.939 C 60.533 133.804, 60.801 134.464, 60.283 137.771 L 59.699 141.500 61.850 139.595 C 64.750 137.026, 64.592 136.191, 60.390 131.887 L 56.780 128.190 59.390 126.480 C 62.499 124.443, 62.581 123.552, 60.127 118.507 C 58.284 114.718, 58.235 114.692, 57.041 116.923 M 52.667 131.667 C 51.123 133.211, 52.149 136.106, 54.565 137.025 C 58.216 138.413, 59 138.252, 59 136.115 C 59 135.078, 57.891 133.503, 56.535 132.615 C 53.744 130.786, 53.586 130.747, 52.667 131.667 M 59 143.827 C 59 145.288, 59.601 145.565, 62 145.213 C 65.550 144.692, 65.903 143.475, 62.750 142.630 C 59.367 141.724, 59 141.841, 59 143.827 M 67 147.059 C 67 147.641, 67.450 147.840, 68 147.500 C 68.550 147.160, 69 146.684, 69 146.441 C 69 146.198, 68.550 146, 68 146 C 67.450 146, 67 146.477, 67 147.059 M 101 157.441 C 101 159.529, 103.075 160.492, 104.096 158.878 C 105.452 156.738, 105.171 156, 103 156 C 101.900 156, 101 156.648, 101 157.441" stroke="none" fill="#f09404" fill-rule="evenodd"/></svg>