<svg xmlns="http://www.w3.org/2000/svg" width="186" height="215" viewBox="0 0 186 215" version="1.1"><path d="M 83.500 6.873 C 79.100 9.519, 69.875 14.916, 63 18.868 C 56.125 22.819, 39.475 32.453, 26 40.276 L 1.500 54.500 1.241 107.650 L 0.983 160.799 6.241 163.792 C 9.134 165.438, 17.125 170.045, 24 174.030 C 46.316 186.965, 69.239 200.198, 81.335 207.128 L 93.171 213.908 121.835 197.305 C 163.887 172.948, 176.007 165.941, 180.750 163.245 L 185 160.829 184.983 107.665 L 184.966 54.500 173.733 48.082 C 167.555 44.551, 157.325 38.655, 151 34.977 C 104.959 8.211, 94 2.004, 92.830 2.031 C 92.098 2.048, 87.900 4.227, 83.500 6.873 M 49.500 31.902 L 6.500 56.777 6.241 107.370 L 5.982 157.963 9.741 160.321 C 20.538 167.094, 91.984 208, 93.016 208 C 93.680 208, 113.523 196.868, 137.112 183.262 L 180 158.523 180 107.785 L 180 57.046 177.750 55.646 C 172.030 52.087, 95.326 8.061, 94 7.576 C 93.130 7.257, 74.443 17.473, 49.500 31.902 M 82.446 20.824 C 76.976 24.028, 60.125 33.759, 45 42.449 C 29.875 51.138, 16.488 58.878, 15.250 59.647 L 13 61.046 13 107.854 L 13 154.662 15.711 156.081 C 17.201 156.861, 35.250 167.236, 55.820 179.137 L 93.218 200.773 103.859 194.576 C 109.711 191.168, 123.725 183.049, 135 176.535 C 146.275 170.020, 159.662 162.270, 164.750 159.312 L 174 153.935 174 107.667 L 174 61.399 157.750 52.012 C 148.813 46.850, 130.758 36.410, 117.629 28.813 C 104.499 21.216, 93.450 15, 93.075 15 C 92.700 15, 87.917 17.621, 82.446 20.824 M 37.542 61.232 C 38.619 62.647, 42.127 66.757, 45.338 70.364 C 50.407 76.058, 51.092 77.302, 50.542 79.807 C 49.970 82.415, 50.436 83.089, 55.412 86.845 C 58.438 89.130, 61.310 91, 61.793 91 C 62.277 91, 63.437 88.250, 64.371 84.888 L 66.071 78.776 62.029 73.537 C 56.327 66.146, 55.404 65.470, 47 62.522 C 34.456 58.121, 35.259 58.231, 37.542 61.232 M 128.887 68.482 C 124.274 71.497, 121.237 73.972, 122.138 73.982 C 124.891 74.012, 136.978 67.909, 138.020 65.962 C 140.384 61.546, 138.851 61.969, 128.887 68.482 M 139.760 65.250 C 138.951 66.487, 137.323 69.396, 136.143 71.714 C 134.103 75.718, 134.086 75.975, 135.789 76.887 C 137.243 77.665, 138.664 76.799, 143.291 72.317 C 146.431 69.276, 149 66.457, 149 66.054 C 149 65.167, 144.435 63, 142.568 63 C 141.832 63, 140.568 64.013, 139.760 65.250 M 38 65.889 C 38 68.241, 40.388 71.856, 42.610 72.868 C 43.925 73.467, 45 74.542, 45 75.256 C 45 76.899, 42.073 81.226, 40.190 82.367 C 38.988 83.096, 38.978 83.372, 40.130 84.102 C 40.884 84.579, 41.997 84.976, 42.604 84.985 C 44.183 85.007, 49 80.342, 49 78.790 C 49 78.073, 46.525 74.647, 43.500 71.179 C 40.475 67.710, 38 65.330, 38 65.889 M 149.012 68.487 C 147.296 70.313, 147.057 71, 148.135 71 C 150.674 71, 153.641 68.278, 152.437 67.054 C 151.678 66.283, 150.697 66.694, 149.012 68.487 M 152.430 70.795 C 151.708 71.284, 151.713 74.990, 152.444 82.866 L 153.500 94.233 155.850 92.326 L 158.200 90.420 156.526 81.490 C 154.673 71.597, 153.967 69.755, 152.430 70.795 M 155.995 71.250 C 155.981 74.992, 159.565 88.976, 160.458 88.662 C 161.940 88.142, 161.125 76.142, 159.379 72.766 C 157.900 69.906, 156.004 69.057, 155.995 71.250 M 122.548 75.826 L 112.597 80.564 118.864 83.282 C 122.311 84.777, 125.677 86, 126.342 86 C 127.870 86, 133 78.186, 133 75.859 C 133 74.901, 133.450 73.840, 134 73.500 C 135.411 72.628, 135.244 70.991, 133.750 71.044 C 133.063 71.068, 128.022 73.220, 122.548 75.826 M 142.040 74.620 C 138.755 77.384, 134.099 86.293, 136.817 84.613 C 137.911 83.937, 146.262 72, 145.641 72 C 145.373 72, 143.752 73.179, 142.040 74.620 M 140.959 81.557 C 137.561 86.264, 134.943 90.268, 135.141 90.455 C 135.820 91.098, 146.340 93.993, 146.698 93.635 C 147.084 93.250, 148.980 77.641, 148.992 74.750 C 149.007 71.427, 147.114 73.031, 140.959 81.557 M 38.618 77.042 C 35.725 80.480, 35.961 82.627, 39.049 80.974 C 40.902 79.982, 42.769 75.436, 41.745 74.411 C 41.472 74.139, 40.065 75.323, 38.618 77.042 M 133.082 83.177 C 133.162 88.455, 133.174 88.475, 134.481 85.500 C 136.611 80.654, 136.686 78.611, 134.750 78.213 C 133.250 77.905, 133.012 78.613, 133.082 83.177 M 149.723 81.500 C 148.579 88.025, 148.899 94.484, 150.468 96.559 C 151.811 98.334, 151.933 97.986, 151.894 92.500 C 151.871 89.200, 151.531 84.475, 151.138 82 L 150.424 77.500 149.723 81.500 M 24 79.718 C 24 80.113, 26.065 85.190, 28.590 91 L 33.179 101.564 38.613 103.782 C 41.601 105.002, 45.742 106, 47.815 106 C 51.257 106, 51.995 105.463, 56.323 99.812 L 61.062 93.624 58.281 91.338 C 56.751 90.080, 53.840 87.873, 51.812 86.432 C 48.190 83.861, 48.070 83.845, 45.147 85.572 C 42.187 87.321, 42.121 87.308, 33.489 83.165 C 24.170 78.694, 24 78.632, 24 79.718 M 65.694 86.750 C 64.622 90.526, 62.077 95.157, 58.281 100.240 C 52.872 107.481, 52.259 107.980, 48.750 107.990 C 45.430 107.999, 45 108.284, 45 110.474 C 45 112.214, 45.894 113.411, 48.008 114.504 C 50.923 116.012, 51.051 115.982, 52.168 113.530 C 53.524 110.554, 54.135 110.486, 60.376 112.612 C 62.979 113.499, 65.392 113.941, 65.739 113.594 C 66.086 113.247, 64.712 111.265, 62.685 109.189 C 58.328 104.727, 57.747 101, 61.409 101 C 63.047 101, 65.664 102.922, 69.582 107 C 72.751 110.300, 75.669 113, 76.064 113 C 76.460 113, 77.078 111.827, 77.437 110.394 C 78.239 107.200, 75.913 103.278, 72.947 102.823 C 71.373 102.581, 70.347 101.021, 68.866 96.618 C 66.671 90.094, 66.939 88, 69.969 88 C 72.555 88, 72.672 84.918, 70.171 82.655 C 69.165 81.745, 68.114 81, 67.835 81 C 67.556 81, 66.593 83.588, 65.694 86.750 M 112.043 93.250 L 112.085 103.500 117.043 107.323 C 119.769 109.426, 122.004 110.776, 122.009 110.323 C 122.015 109.870, 122.915 105.069, 124.009 99.653 C 125.104 94.238, 126 89.375, 126 88.848 C 126 87.777, 115.767 83, 113.471 83 C 112.269 83, 112.008 84.875, 112.043 93.250 M 130.011 84.487 C 128.676 86.095, 129.293 89, 130.969 89 C 131.536 89, 132 87.650, 132 86 C 132 82.593, 131.744 82.399, 130.011 84.487 M 71.162 89.783 C 68.602 90.198, 68.671 91.883, 71.525 98.713 C 72.827 101.829, 73.151 102.003, 76.707 101.479 C 78.793 101.172, 83.650 101.332, 87.500 101.834 C 91.350 102.336, 94.685 102.581, 94.911 102.379 C 95.951 101.449, 90.873 97.463, 84.651 94.327 C 76.002 89.968, 74.058 89.313, 71.162 89.783 M 125.487 98.432 C 124.552 103.620, 123.956 108.369, 124.162 108.985 C 124.367 109.601, 126.288 105.966, 128.430 100.908 C 132.158 92.104, 132.245 91.652, 130.471 90.355 C 129.452 89.610, 128.295 89, 127.901 89 C 127.507 89, 126.421 93.245, 125.487 98.432 M 158.750 92.115 C 157.458 92.842, 157 94.373, 157 97.961 C 157 102.216, 157.405 103.164, 160.250 105.565 C 163.215 108.067, 163.522 108.141, 163.746 106.404 C 163.881 105.357, 163.206 101.492, 162.246 97.815 C 160.716 91.957, 160.284 91.252, 158.750 92.115 M 133.294 93.227 C 132.750 93.927, 131.228 97.200, 129.912 100.500 C 128.596 103.800, 126.957 107.625, 126.269 109 C 125.030 111.475, 125.069 111.507, 130.259 112.213 C 133.142 112.606, 135.974 112.766, 136.553 112.570 C 137.452 112.266, 147 96.794, 147 95.642 C 147 95.419, 144.863 94.714, 142.250 94.073 C 139.637 93.433, 136.776 92.695, 135.891 92.432 C 135.006 92.170, 133.837 92.528, 133.294 93.227 M 154 98.500 C 154 100.425, 154.450 102, 155 102 C 155.550 102, 156 100.425, 156 98.500 C 156 96.575, 155.550 95, 155 95 C 154.450 95, 154 96.575, 154 98.500 M 147.287 98.225 C 144.873 101.304, 138 113.989, 138 115.365 C 138 118.932, 140.142 117.493, 145.885 110.070 C 149.248 105.722, 152 101.748, 152 101.237 C 152 100.727, 151.165 99.554, 150.143 98.630 C 148.665 97.292, 148.083 97.210, 147.287 98.225 M 61 103.885 C 61 105.358, 70.158 116, 71.425 116 C 72.075 116, 74.495 117.389, 76.803 119.087 C 79.111 120.784, 81 121.851, 81 121.458 C 81 121.064, 77.094 116.750, 72.319 111.871 C 64.471 103.851, 61 101.402, 61 103.885 M 149.722 107.250 C 144.241 114.077, 144.260 114.743, 149.800 110.072 C 152.660 107.660, 155 105.082, 155 104.343 C 155 101.929, 153.196 102.923, 149.722 107.250 M 148.937 112.698 C 141.323 119.881, 141.323 119.895, 148.633 121.301 C 151.402 121.833, 152.477 121.259, 157.883 116.368 C 161.247 113.323, 164 110.517, 164 110.132 C 164 109.257, 158.572 106, 157.114 106 C 156.522 106, 152.842 109.014, 148.937 112.698 M 114.002 108.688 C 114.003 109.685, 115.726 112.121, 117.831 114.102 C 120.970 117.055, 122.228 117.620, 124.817 117.240 C 129.752 116.516, 132.623 117.676, 133.976 120.941 C 135.002 123.418, 135.949 124.020, 139.713 124.584 C 143.010 125.079, 144.446 124.896, 145.058 123.907 C 146.064 122.278, 144.423 121.037, 141.234 121.015 C 139.652 121.005, 138.482 119.981, 137.359 117.627 C 135.826 114.413, 135.446 114.229, 129.290 113.735 C 124.124 113.321, 121.945 112.581, 118.415 110.046 C 114.653 107.345, 114 107.144, 114.002 108.688 M 111.785 117.250 C 111.277 123.798, 111.497 124.450, 114.714 125.916 C 116.778 126.856, 117.490 126.832, 118.144 125.801 C 118.965 124.506, 119.395 120.859, 119.063 118 C 118.895 116.555, 114.187 112.015, 112.847 112.005 C 112.487 112.002, 112.010 114.362, 111.785 117.250 M 122.819 119.250 C 121.959 119.938, 120.736 122.064, 120.101 123.976 C 119.054 127.129, 119.158 127.614, 121.223 129.209 C 125.474 132.491, 126.992 132.429, 130.055 128.848 C 133.280 125.078, 133.751 121.894, 131.429 119.571 C 129.544 117.686, 124.987 117.516, 122.819 119.250 M 106.665 126.256 C 105.159 127.357, 106.210 128.204, 115.224 133.155 C 120.876 136.260, 127.300 139.094, 129.500 139.453 C 131.700 139.813, 134.332 140.352, 135.349 140.652 C 136.899 141.109, 137.081 140.819, 136.474 138.849 C 135.539 135.809, 136.131 136.185, 129.606 134.486 C 126.472 133.669, 120.628 131.201, 116.619 129.001 C 108.298 124.434, 108.921 124.606, 106.665 126.256 M 132.712 127.779 C 129.290 131.350, 129.292 132.632, 132.721 133.287 C 134.712 133.668, 136.589 132.983, 139.721 130.734 C 144.750 127.122, 145.073 126, 141.082 126 C 139.477 126, 137.547 125.763, 136.794 125.474 C 136.040 125.185, 134.203 126.222, 132.712 127.779 M 49.230 129.170 C 44.245 130.286, 44.457 131.564, 49.776 132.462 C 51.847 132.812, 54.207 133.561, 55.020 134.127 C 56.166 134.924, 55.935 135.055, 54 134.707 C 52.625 134.460, 50.600 133.890, 49.500 133.441 C 47.720 132.715, 47.651 132.811, 48.872 134.313 C 49.627 135.241, 51.315 136, 52.622 136 C 54.612 136, 55 136.503, 55 139.083 C 55 141.112, 55.428 142.020, 56.250 141.738 C 56.938 141.502, 57.496 139.890, 57.490 138.155 C 57.485 136.420, 57.823 135, 58.240 135 C 58.658 135, 59 135.675, 59 136.500 C 59 137.325, 59.471 138, 60.047 138 C 60.622 138, 60.285 139.103, 59.297 140.451 C 58.055 142.144, 56.109 143.114, 53 143.589 C 44.383 144.906, 44.258 145.223, 50.666 149.486 C 56.967 153.676, 61.429 154.259, 65.714 151.452 C 68.558 149.588, 70.094 149.614, 67.625 151.484 C 65.353 153.204, 66.142 156, 68.899 156 C 70.146 156, 70.977 155.211, 71.180 153.834 C 71.394 152.385, 72.648 151.283, 74.968 150.506 C 78.204 149.421, 78.304 149.264, 76.468 148.151 C 74.789 147.134, 75.037 147.049, 78.164 147.575 C 81.190 148.083, 82.017 147.837, 82.912 146.165 C 83.753 144.593, 83.644 143.787, 82.427 142.569 C 81.563 141.706, 80.453 141, 79.960 141 C 77.474 141, 80.751 137.949, 85.316 136.013 C 89.839 134.095, 90.233 133.711, 88.407 132.998 C 85.843 131.997, 74.356 133.244, 72.921 134.679 C 72.199 135.401, 72.856 136.543, 75.065 138.401 C 76.817 139.876, 78.079 141.254, 77.869 141.464 C 77.659 141.674, 75.933 140.578, 74.034 139.028 C 71.242 136.749, 70.808 135.936, 71.767 134.781 C 72.676 133.686, 72.678 133.078, 71.776 132.176 C 69.903 130.303, 67.656 130.702, 68.547 132.750 C 68.965 133.713, 69.401 137.425, 69.516 141 C 69.630 144.575, 69.537 145.838, 69.307 143.807 C 68.921 140.379, 68.625 140.086, 65.195 139.725 L 61.500 139.336 65.250 139.168 C 69.452 138.980, 69.591 138.658, 67.560 133.798 C 65.395 128.616, 58.962 126.992, 49.230 129.170 M 105 133.279 C 105 137.700, 105.030 137.738, 111.247 141.111 C 114.683 142.975, 117.787 144.635, 118.144 144.799 C 118.502 144.963, 119.745 143.762, 120.908 142.129 L 123.023 139.160 117.261 135.934 C 114.093 134.159, 110.037 131.837, 108.250 130.772 L 105 128.837 105 133.279 M 52 139.559 C 52 141.010, 52.433 141.851, 53 141.500 C 53.550 141.160, 54 140.009, 54 138.941 C 54 137.873, 53.550 137, 53 137 C 52.450 137, 52 138.152, 52 139.559 M 122.655 141.829 C 120.017 144.743, 120.665 145.720, 126.097 147.023 C 130.701 148.128, 131.444 148.059, 133.784 146.312 C 137.763 143.341, 137.447 142.559, 131.728 141.229 C 124.903 139.642, 124.617 139.661, 122.655 141.829 M 106 142.405 C 106 144.375, 116.397 150.027, 120.498 150.285 C 125.126 150.577, 124.990 148.866, 120.276 147.474 C 118.164 146.850, 114.386 145.138, 111.880 143.670 C 106.657 140.609, 106 140.468, 106 142.405 M 72.131 144.342 C 70.963 145.749, 71.577 147.011, 73.417 146.985 C 74.013 146.976, 73.825 146.533, 73 146 C 71.667 145.138, 71.667 145.016, 73 144.897 C 73.825 144.823, 75.175 144.835, 76 144.923 C 77.333 145.066, 77.333 144.969, 76 144.057 C 74.020 142.702, 73.458 142.743, 72.131 144.342 M 78.750 145.662 C 79.438 145.940, 80.563 145.940, 81.250 145.662 C 81.938 145.385, 81.375 145.158, 80 145.158 C 78.625 145.158, 78.063 145.385, 78.750 145.662 M 102.956 145.750 C 102.932 146.162, 102.539 148.435, 102.082 150.799 C 101.274 154.975, 101.354 155.168, 104.857 157.549 C 106.841 158.897, 108.945 160, 109.533 160 C 110.121 160, 111.574 157.998, 112.763 155.552 L 114.924 151.103 109.590 148.052 C 104.002 144.854, 103.028 144.516, 102.956 145.750 M 114.076 155.850 C 111.287 161.318, 111.432 162, 115.381 162 C 118.086 162, 119.310 161.282, 121.497 158.415 C 124.514 154.460, 124.116 153.373, 119.295 152.409 C 116.392 151.828, 115.994 152.091, 114.076 155.850" stroke="none" fill="#f19504" fill-rule="evenodd"/></svg>