<svg xmlns="http://www.w3.org/2000/svg" width="186" height="215" viewBox="0 0 186 215" version="1.1"><path d="M 46 28.487 L 0.500 54.823 0.241 107.782 C 0.038 149.379, 0.253 160.965, 1.241 161.784 C 1.934 162.358, 5.200 164.366, 8.500 166.245 C 11.800 168.125, 25.075 175.753, 38 183.197 C 50.925 190.642, 68.589 200.810, 77.254 205.794 L 93.009 214.856 119.254 199.779 C 133.689 191.487, 151.350 181.336, 158.500 177.222 C 165.650 173.108, 173.525 168.618, 176 167.244 C 178.475 165.871, 181.963 163.656, 183.750 162.323 L 187 159.898 187 106.949 C 187 77.827, 186.629 54.113, 186.176 54.250 C 185.437 54.474, 158.326 39.169, 110.761 11.676 C 101.554 6.354, 93.454 2.034, 92.761 2.075 C 92.067 2.117, 71.025 14.002, 46 28.487 M 49 31.933 L 5.500 56.816 5.500 107.647 L 5.500 158.477 13.500 163.067 C 17.900 165.592, 37.322 176.734, 56.659 187.829 C 75.997 198.923, 92.377 208, 93.058 208 C 93.739 208, 105.818 201.402, 119.899 193.338 C 133.979 185.273, 153.480 174.136, 163.234 168.588 L 180.968 158.500 180.734 107.602 L 180.500 56.703 137.082 31.852 C 113.202 18.183, 93.402 7.011, 93.082 7.025 C 92.762 7.038, 72.925 18.247, 49 31.933 M 58 35.015 C 39.025 45.964, 21.133 56.317, 18.240 58.023 L 12.980 61.124 13.240 107.767 L 13.500 154.410 21 158.849 C 25.125 161.291, 43.162 171.695, 61.083 181.970 L 93.665 200.650 113.583 189.257 C 124.537 182.991, 142.837 172.441, 154.250 165.814 L 175 153.765 175 108.038 C 175 65.716, 174.870 62.200, 173.250 60.836 C 171.591 59.438, 162.881 54.256, 153 48.786 C 150.525 47.416, 136.302 39.253, 121.393 30.647 C 106.484 22.041, 93.884 15.024, 93.393 15.054 C 92.902 15.083, 76.975 24.066, 58 35.015 M 91.658 28.078 C 90.746 29.380, 90 31.470, 90 32.723 C 90 34.586, 90.545 35, 93 35 C 94.650 35, 96 35.499, 96 36.109 C 96 36.788, 94.642 37.060, 92.500 36.810 L 89 36.402 89 45.260 C 89 50.789, 89.368 53.890, 89.980 53.512 C 90.563 53.152, 90.701 50.433, 90.321 46.796 C 89.850 42.286, 89.986 40.873, 90.841 41.402 C 91.528 41.826, 92 44.771, 92 48.625 L 92 55.133 94.750 54.816 C 97.495 54.501, 97.501 54.485, 97.791 45.591 C 97.963 40.347, 97.654 36.254, 97.041 35.641 C 96.469 35.069, 96 33.426, 96 31.991 C 96 30.556, 95.396 28.556, 94.658 27.547 C 93.376 25.794, 93.241 25.818, 91.658 28.078 M 80.453 33.122 C 77.800 35.889, 77.240 36.864, 78.750 36.087 C 81.530 34.657, 81.536 34.540, 78.500 41.404 C 77.125 44.513, 76 47.280, 76 47.552 C 76 47.824, 77.216 47.249, 78.702 46.276 C 81.305 44.570, 81.378 44.573, 80.698 46.346 C 79.476 49.530, 78.689 53.527, 79.416 52.860 C 80.038 52.290, 87 32.444, 87 31.242 C 87 30.974, 86.360 31.286, 85.579 31.935 C 84.412 32.903, 84.254 32.745, 84.695 31.057 C 85.445 28.189, 84.955 28.428, 80.453 33.122 M 102.023 33.372 C 102.003 34.996, 101.781 35.064, 100.356 33.880 C 98.907 32.678, 98.787 32.755, 99.349 34.525 C 99.700 35.631, 100.884 40.577, 101.980 45.518 C 105.272 60.357, 107.017 64.402, 105.099 52.750 C 104.289 47.832, 104.844 46.902, 107.020 49.524 C 108.949 51.848, 109.277 50.601, 107.722 46.858 C 106.955 45.011, 106.014 42.239, 105.632 40.698 C 104.990 38.115, 105.095 37.981, 106.968 38.983 C 109.803 40.500, 109.526 39.804, 105.523 35.360 C 102.815 32.353, 102.041 31.914, 102.023 33.372 M 78.079 55.583 C 78.127 56.748, 78.364 56.985, 78.683 56.188 C 78.972 55.466, 78.936 54.603, 78.604 54.271 C 78.272 53.939, 78.036 54.529, 78.079 55.583 M 0.466 108 C 0.466 137.425, 0.593 149.463, 0.749 134.750 C 0.905 120.037, 0.905 95.963, 0.749 81.250 C 0.593 66.537, 0.466 78.575, 0.466 108 M 88 55.800 C 88 57.328, 90.413 59, 92.618 59 C 95.868 59, 98 57.976, 98 56.414 C 98 55.304, 97.510 55.266, 95.426 56.216 C 93.449 57.117, 92.408 57.112, 90.939 56.194 C 88.699 54.795, 88 54.701, 88 55.800 M 140.448 59.339 C 142.549 60.874, 142.250 61.121, 136 62.997 C 130.658 64.601, 128.701 66, 131.800 66 C 135.195 66, 134.415 67.509, 129.990 69.505 C 122.033 73.093, 126.957 71.954, 137.865 67.683 C 149.556 63.106, 151.586 62.010, 148.417 61.985 C 146.846 61.972, 146.765 61.802, 147.971 61.039 C 149.987 59.764, 149.292 59.386, 143.547 58.632 C 139.222 58.065, 138.829 58.155, 140.448 59.339 M 38.500 60.892 C 35.562 61.339, 34.880 61.745, 35.934 62.423 C 37.125 63.189, 37.054 63.455, 35.516 63.994 C 34.148 64.474, 35.473 65.329, 40.582 67.265 C 44.387 68.707, 49.862 70.810, 52.750 71.939 C 59.287 74.495, 59.528 73.834, 53.250 70.566 C 48.955 68.330, 48.763 68.089, 51.250 68.047 C 55.863 67.968, 54.333 66.420, 47.866 64.622 C 42.210 63.050, 41.878 62.806, 43.616 61.490 C 45.707 59.907, 45.296 59.859, 38.500 60.892 M 90.581 69.950 C 91.312 80.317, 92.907 85.660, 92.985 78 C 93.043 72.298, 94.898 68.820, 95.118 74 C 95.247 77.034, 95.371 76.835, 96.046 72.500 C 96.474 69.750, 96.864 65.903, 96.912 63.950 C 96.997 60.534, 96.866 60.400, 93.454 60.400 L 89.909 60.400 90.581 69.950 M 152.152 64.885 C 150.389 66.002, 151.019 68.992, 153.313 70.393 C 154.788 71.294, 155.485 71.061, 157.063 69.139 C 159.811 65.790, 159.527 63.997, 156.250 64.015 C 154.738 64.024, 152.893 64.415, 152.152 64.885 M 25 66.319 C 25 67.182, 26.014 69.067, 27.253 70.508 C 29.647 73.291, 32.334 73.177, 33.459 70.245 C 34.277 68.115, 32.204 66.191, 28.237 65.397 C 25.688 64.888, 25 65.083, 25 66.319 M 141.267 70.759 C 137.289 73.366, 134.026 75.976, 134.017 76.559 C 134.008 77.141, 134.600 78.438, 135.333 79.440 C 136.593 81.163, 136.955 81.064, 141.945 77.632 C 144.849 75.634, 147.711 74, 148.306 74 C 148.902 74, 147.839 75.091, 145.944 76.425 C 144.050 77.759, 141.242 79.835, 139.704 81.039 C 137.051 83.116, 136.812 83.140, 135.010 81.509 C 133.966 80.564, 132.941 78.826, 132.732 77.646 C 132.371 75.610, 132.309 75.598, 131.509 77.407 C 129.898 81.049, 135.793 87.396, 137.880 84.268 C 138.221 83.757, 141.967 81.013, 146.205 78.170 L 153.909 73 151.401 70.492 C 150.021 69.112, 149.168 67.537, 149.505 66.992 C 150.719 65.028, 148.375 66.100, 141.267 70.759 M 35 69.186 C 35 69.838, 34.023 71.411, 32.829 72.682 C 31.636 73.952, 30.848 75.136, 31.079 75.312 C 35.726 78.842, 44.412 84.029, 45.224 83.759 C 45.815 83.562, 43.982 81.913, 41.149 80.096 C 38.317 78.278, 36 76.372, 36 75.858 C 36 75.345, 38.675 76.742, 41.944 78.962 L 47.888 82.998 49.444 80.777 C 50.541 79.211, 51 79.007, 51 80.086 C 51 81.997, 48.983 84.609, 47 85.269 C 45.794 85.669, 45.874 85.921, 47.406 86.550 C 48.795 87.121, 49.811 86.716, 51.156 85.056 C 53.106 82.647, 53.675 78, 52.020 78 C 51.481 78, 47.784 75.750, 43.804 73 C 36.230 67.766, 35 67.233, 35 69.186 M 153.921 77.658 C 151.435 80.871, 147.684 85.975, 145.584 89 L 141.767 94.500 146.287 89.500 L 150.808 84.500 151.154 87.500 C 151.496 90.465, 151.535 90.440, 154.500 85.251 C 157.609 79.812, 158.989 78.741, 159.015 81.750 C 159.028 83.246, 159.172 83.282, 160 82 C 161.233 80.093, 161.306 72.693, 160.085 73.447 C 159.582 73.758, 159.006 73.518, 158.805 72.915 C 158.604 72.311, 156.406 74.446, 153.921 77.658 M 25.321 74.250 C 26.015 76.221, 24.446 76.693, 23.662 74.750 C 23.385 74.063, 23.154 75.300, 23.149 77.500 C 23.140 81.601, 24.784 87.371, 24.930 83.750 C 25.051 80.732, 26.718 81.821, 29.905 87 C 33.282 92.489, 34.556 93.353, 33.589 89.500 C 32.749 86.152, 33.328 86.333, 37.598 90.750 L 41.223 94.500 37.431 89 C 33.536 83.350, 27.415 75.275, 25.682 73.500 C 25.042 72.844, 24.918 73.102, 25.321 74.250 M 122.105 85.058 C 115.370 90.263, 115.160 90.605, 119.685 89.004 C 122.138 88.136, 121.922 88.521, 118 92.001 C 115.525 94.198, 113.787 95.996, 114.137 95.997 C 115.196 96.002, 131.937 86.911, 132.476 86.038 C 132.752 85.592, 132.308 84.671, 131.489 83.991 C 130.670 83.311, 130 82.135, 130 81.378 C 130 79.262, 129.006 79.725, 122.105 85.058 M 53.168 84.986 C 51.986 86.585, 51.352 88.083, 51.759 88.314 C 52.167 88.545, 56.550 90.846, 61.500 93.428 L 70.500 98.123 65.500 93.461 C 60.980 89.246, 60.821 88.960, 63.843 90.473 C 69.051 93.081, 68.572 91.669, 62.777 87.327 C 55.304 81.728, 55.535 81.785, 53.168 84.986 M 86.327 97.553 C 81.415 99.705, 80 102.519, 80 110.141 C 80 118.365, 80.493 119.763, 83.300 119.489 C 84.510 119.372, 84.768 119.462, 83.874 119.691 C 81.741 120.236, 77.700 124.577, 77.282 126.772 C 77.101 127.722, 77.229 132.213, 77.566 136.750 C 78.104 143.990, 78.413 145, 80.090 145 C 81.827 145, 82 144.194, 82 136.083 C 82 130.991, 81.560 126.949, 80.975 126.658 C 80.411 126.379, 80.524 126.264, 81.225 126.404 C 82.097 126.578, 82.658 129.476, 83 135.579 C 83.404 142.784, 83.789 144.449, 85 144.236 C 86.112 144.039, 86.032 144.338, 84.690 145.390 C 82.401 147.183, 83.574 147.903, 87.750 147.267 C 89.616 146.984, 91 146.183, 91 145.387 C 91 144.624, 91.436 144, 91.969 144 C 92.501 144, 92.678 144.675, 92.362 145.500 C 91.952 146.566, 92.453 147, 94.093 147 C 95.887 147, 96.133 146.733, 95.200 145.800 C 94.356 144.956, 94 139.297, 94 126.734 C 94 109.641, 94.663 105, 97.107 105 C 97.677 105, 97.436 105.707, 96.571 106.571 C 95.260 107.883, 95 111.101, 95 126.012 C 95 138.270, 95.357 144.102, 96.136 144.584 C 96.952 145.088, 97.139 143.686, 96.800 139.599 C 96.540 136.472, 96.601 134.354, 96.934 134.894 C 97.268 135.433, 98.837 136.368, 100.421 136.970 C 102.906 137.915, 103.631 137.756, 105.698 135.814 C 109.186 132.537, 108.640 126.184, 104.685 124.032 C 101.969 122.554, 101.784 122.605, 99.481 125.458 C 98.167 127.085, 96.914 129.560, 96.696 130.958 C 96.340 133.241, 96.288 133.194, 96.181 130.500 C 96.010 126.140, 100.229 121.590, 103.649 122.448 L 106.223 123.094 105.847 115.636 C 105.443 107.640, 103.369 103.640, 100.156 104.662 C 98.766 105.104, 98.735 105.022, 99.966 104.152 C 100.965 103.445, 101.825 103.440, 102.663 104.135 C 103.847 105.118, 103.887 104.637, 103.114 98.611 C 103.051 98.122, 100.784 97.984, 98.076 98.305 C 94.446 98.735, 92.837 98.508, 91.953 97.444 C 90.545 95.746, 90.447 95.748, 86.327 97.553 M 101.500 101 C 101.840 101.550, 102.343 102, 102.618 102 C 102.893 102, 102.840 101.550, 102.500 101 C 102.160 100.450, 101.657 100, 101.382 100 C 101.107 100, 101.160 100.450, 101.500 101 M 95.333 101.667 C 95.700 102.033, 96.300 102.033, 96.667 101.667 C 97.033 101.300, 96.733 101, 96 101 C 95.267 101, 94.967 101.300, 95.333 101.667 M 92 104 C 91.411 105.100, 91.155 106, 91.430 106 C 91.705 106, 92.411 105.100, 93 104 C 93.589 102.900, 93.845 102, 93.570 102 C 93.295 102, 92.589 102.900, 92 104 M 82.459 104.067 C 82.096 104.653, 82.014 105.348, 82.276 105.610 C 82.538 105.872, 83.019 105.392, 83.345 104.543 C 84.021 102.781, 83.445 102.471, 82.459 104.067 M 86.500 104 C 86.840 104.550, 87.316 105, 87.559 105 C 87.802 105, 88 104.550, 88 104 C 88 103.450, 87.523 103, 86.941 103 C 86.359 103, 86.160 103.450, 86.500 104 M 88.175 110.677 C 88.040 114.674, 87.601 115.958, 86.250 116.311 C 84.610 116.739, 84.612 116.775, 86.281 116.884 C 88.590 117.034, 89.217 115.244, 88.738 109.864 L 88.349 105.500 88.175 110.677 M 81.232 110 C 81.232 111.925, 81.438 112.713, 81.689 111.750 C 81.941 110.787, 81.941 109.213, 81.689 108.250 C 81.438 107.287, 81.232 108.075, 81.232 110 M 98.592 108.851 C 98.256 109.395, 98.834 109.595, 99.923 109.310 C 101.395 108.925, 101.954 109.421, 102.296 111.416 C 102.739 114, 102.742 113.999, 102.622 111.271 C 102.500 108.512, 99.803 106.892, 98.592 108.851 M 149 108.549 C 149 108.869, 149.449 109.970, 149.997 110.995 C 150.896 112.674, 150.722 112.777, 148.247 112.034 C 146.736 111.580, 144.600 110.870, 143.500 110.457 C 142.200 109.969, 141.850 110.045, 142.500 110.676 C 143.467 111.613, 162.245 120, 163.378 120 C 163.686 120, 163.676 119.320, 163.357 118.489 C 162.931 117.377, 163.234 117.153, 164.505 117.640 C 165.965 118.200, 166.064 118.008, 165.145 116.402 C 164.546 115.356, 163.154 113.375, 162.051 112 C 160.418 109.965, 160.040 109.826, 160.022 111.250 C 159.994 113.492, 159.874 113.477, 153.967 110.483 C 151.235 109.099, 149 108.228, 149 108.549 M 139.333 109.667 C 139.700 110.033, 140.300 110.033, 140.667 109.667 C 141.033 109.300, 140.733 109, 140 109 C 139.267 109, 138.967 109.300, 139.333 109.667 M 32.148 112.512 C 26.965 115.475, 27.007 115.469, 26.973 113.250 C 26.953 111.966, 26.161 112.432, 24 115 C 20.710 118.909, 20.261 120.221, 22.511 119.357 C 23.595 118.941, 23.847 119.236, 23.401 120.398 C 22.804 121.954, 27.857 120.085, 43.500 112.962 C 48.428 110.719, 47.692 110.492, 42 112.500 C 36.777 114.343, 35.164 114.436, 36.800 112.800 C 38.149 111.451, 38.384 109.994, 37.250 110.012 C 36.837 110.019, 34.542 111.144, 32.148 112.512 M 97.079 112.583 C 97.127 113.748, 97.364 113.985, 97.683 113.188 C 97.972 112.466, 97.936 111.603, 97.604 111.271 C 97.272 110.939, 97.036 111.529, 97.079 112.583 M 82.500 115 C 82.840 115.550, 83.343 116, 83.618 116 C 83.893 116, 83.840 115.550, 83.500 115 C 83.160 114.450, 82.657 114, 82.382 114 C 82.107 114, 82.160 114.450, 82.500 115 M 98.813 115.683 C 99.534 115.972, 100.397 115.936, 100.729 115.604 C 101.061 115.272, 100.471 115.036, 99.417 115.079 C 98.252 115.127, 98.015 115.364, 98.813 115.683 M 123.500 117.396 L 126.500 118.838 121 118.992 L 115.500 119.147 125.439 122.051 C 130.906 123.648, 135.466 124.853, 135.572 124.728 C 136.355 123.810, 136.954 118.093, 136.309 117.709 C 135.864 117.444, 132.125 116.941, 128 116.591 C 120.980 115.996, 120.692 116.047, 123.500 117.396 M 56.203 118.285 L 49.905 119.292 50.569 122.396 C 50.935 124.103, 51.408 125.689, 51.620 125.920 C 51.833 126.151, 56.618 125.026, 62.253 123.420 L 72.500 120.500 67 119.913 C 63.975 119.590, 62.261 119.253, 63.191 119.163 C 65.491 118.941, 66.584 116.964, 64.309 117.139 C 63.314 117.216, 59.666 117.732, 56.203 118.285 M 140.124 117.902 C 139.367 118.381, 138.692 120.475, 138.624 122.555 L 138.500 126.336 147.500 128.129 C 158.938 130.409, 160.012 130.419, 159.830 128.250 C 159.573 125.182, 159.975 123, 160.799 123 C 161.239 123, 161.415 124.575, 161.190 126.500 C 160.824 129.629, 161.031 129.999, 163.141 129.986 C 166.996 129.964, 170 128.856, 170 127.456 C 170 125.440, 160.170 121.250, 152.437 119.970 C 148.622 119.338, 144.719 118.411, 143.764 117.910 C 141.680 116.818, 141.835 116.819, 140.124 117.902 M 39 120.464 C 35.975 121.177, 31.790 122.065, 29.700 122.435 C 26.329 123.033, 25.984 123.357, 26.649 125.305 C 27.060 126.512, 27.355 128.512, 27.304 129.750 C 27.253 130.988, 27.276 132, 27.356 131.999 C 27.435 131.999, 30.875 131.276, 35 130.393 C 39.125 129.510, 43.736 128.805, 45.248 128.827 C 47.363 128.857, 48.140 128.289, 48.625 126.359 C 49.360 123.429, 47.609 118.963, 45.771 119.083 C 45.072 119.129, 42.025 119.750, 39 120.464 M 141.200 120.200 C 140.540 120.860, 140 122.371, 140 123.558 C 140 125.444, 140.723 125.795, 145.750 126.350 C 148.912 126.699, 152.625 127.244, 154 127.561 C 155.756 127.966, 156.054 127.867, 155 127.228 C 154.175 126.728, 150.868 125.755, 147.651 125.066 C 142.261 123.911, 141.839 123.624, 142.263 121.406 C 142.795 118.622, 142.787 118.613, 141.200 120.200 M 44.621 122.642 C 45.207 125.783, 45.205 125.784, 39.853 126.504 C 36.909 126.899, 33.825 127.651, 33 128.174 C 32.001 128.807, 33.004 128.903, 36 128.462 C 38.475 128.097, 41.850 127.691, 43.500 127.558 C 47.013 127.276, 47.921 124.594, 45.555 121.493 C 44.114 119.603, 44.066 119.662, 44.621 122.642 M 87.994 132.704 C 87.722 138.866, 87.854 143.552, 88.287 143.117 C 88.720 142.682, 88.942 137.640, 88.781 131.913 L 88.489 121.500 87.994 132.704 M 19.250 126.527 C 16.242 128.648, 16.413 129.600, 20.028 130.860 C 24.169 132.303, 26.179 131.351, 25.804 128.122 C 25.436 124.946, 22.505 124.232, 19.250 126.527 M 101.493 127.011 C 101.112 127.628, 101.070 128.403, 101.400 128.733 C 101.730 129.063, 102 128.808, 102 128.167 C 102 127.525, 102.675 127, 103.500 127 C 105.722 127, 105.514 133.601, 103.250 134.920 C 102.287 135.481, 102.007 135.953, 102.628 135.970 C 106.110 136.064, 107.257 126.849, 103.843 126.203 C 102.932 126.030, 101.874 126.394, 101.493 127.011 M 148 135 C 137.890 136.704, 137.720 136.774, 143.405 136.885 L 149.310 137 147.405 139.133 C 145.517 141.247, 145.520 141.260, 147.750 140.633 C 150.085 139.976, 151.564 139.618, 156.302 138.561 C 158.929 137.975, 159.032 138.072, 157.941 140.110 C 156.975 141.914, 157.582 141.707, 161.507 138.892 C 164.774 136.549, 165.732 135.399, 164.606 135.174 C 163.709 134.995, 163.233 134.433, 163.547 133.924 C 164.335 132.648, 160.291 132.928, 148 135 M 23.441 135.438 C 25.363 136.984, 25.363 137, 23.441 137.027 C 21.862 137.049, 22.152 137.603, 25 140 C 28.820 143.216, 31.057 143.986, 28.872 141.334 C 27.404 139.551, 28.161 139.572, 38 141.588 L 41.500 142.305 39.502 140.050 L 37.504 137.794 43.502 138.522 C 53.119 139.690, 49.083 137.954, 38.829 136.513 C 33.698 135.792, 27.700 134.903, 25.500 134.539 C 21.757 133.919, 21.625 133.976, 23.441 135.438 M 98 142.852 C 98 147.268, 98.230 147.855, 99.750 147.309 C 100.713 146.964, 101.158 147.058, 100.740 147.517 C 100.322 147.977, 96.359 148.402, 91.932 148.461 C 86.041 148.540, 83.636 148.961, 82.958 150.034 C 81.465 152.394, 81.860 155.819, 83.750 156.920 C 85.417 157.891, 85.417 157.941, 83.750 157.970 C 82.501 157.991, 82 158.813, 82 160.839 C 82 164.123, 84.786 165.870, 92 167.110 L 96.500 167.883 91.250 167.588 C 88.362 167.426, 86 167.662, 86 168.112 C 86 169.581, 89.788 171, 93.712 171 C 97.921 171, 103.009 168.242, 101.042 167.026 C 100.269 166.548, 100.737 165.747, 102.440 164.631 C 104.238 163.453, 105 162.067, 105 159.977 C 105 158.340, 104.495 157, 103.878 157 C 103.110 157, 103.155 156.518, 104.020 155.476 C 105.707 153.443, 104.664 152.574, 102.151 153.919 C 98.659 155.788, 98.348 155.085, 101.750 153.011 C 105.170 150.926, 106.150 149.345, 103.359 150.416 C 101.955 150.954, 101.910 150.814, 103.044 149.447 C 104.086 148.192, 104.106 147.683, 103.138 147.086 C 102.197 146.504, 102.271 146.020, 103.453 145.039 C 105.303 143.504, 105.524 139.006, 103.750 138.986 C 103.063 138.979, 101.487 138.701, 100.250 138.370 C 98.133 137.802, 98 138.066, 98 142.852 M 85.733 152.124 C 86.412 152.808, 87.219 153.115, 87.526 152.807 C 87.834 152.499, 87.279 151.940, 86.293 151.564 C 84.868 151.022, 84.753 151.136, 85.733 152.124 M 90.211 152.601 C 89.501 153.370, 89.362 154, 89.902 154 C 90.940 154, 92.443 152.098, 91.850 151.534 C 91.658 151.351, 90.920 151.831, 90.211 152.601 M 96.500 152 C 96.840 152.550, 97.343 153, 97.618 153 C 97.893 153, 97.840 152.550, 97.500 152 C 97.160 151.450, 96.657 151, 96.382 151 C 96.107 151, 96.160 151.450, 96.500 152 M 99.405 152.155 C 98.962 152.870, 99.130 153.038, 99.845 152.595 C 100.480 152.203, 101 151.684, 101 151.441 C 101 150.607, 100.117 151.002, 99.405 152.155 M 83.333 153.667 C 83.700 154.033, 84.300 154.033, 84.667 153.667 C 85.033 153.300, 84.733 153, 84 153 C 83.267 153, 82.967 153.300, 83.333 153.667 M 87.333 159.667 C 87.700 160.033, 88.300 160.033, 88.667 159.667 C 89.033 159.300, 88.733 159, 88 159 C 87.267 159, 86.967 159.300, 87.333 159.667 M 94.250 159.689 C 95.213 159.941, 96.787 159.941, 97.750 159.689 C 98.713 159.438, 97.925 159.232, 96 159.232 C 94.075 159.232, 93.287 159.438, 94.250 159.689 M 87.248 172.751 C 86.562 172.979, 86 173.873, 86 174.737 C 86 176.187, 92.677 189, 93.432 189 C 94.485 189, 101 176.457, 101 174.428 C 101 171.386, 99.784 171.297, 98.487 174.244 C 97.944 175.478, 96.677 176.643, 95.671 176.833 C 93.018 177.332, 89 176.143, 89 174.859 C 89 174.096, 89.445 174.124, 90.440 174.950 C 92.543 176.695, 97.413 175.869, 97.825 173.697 C 98.121 172.137, 97.513 171.923, 93.331 172.114 C 90.672 172.236, 87.934 172.522, 87.248 172.751" stroke="none" fill="#ef9404" fill-rule="evenodd"/></svg>