<svg xmlns="http://www.w3.org/2000/svg" width="256" height="256" viewBox="0 0 256 256" version="1.1"><path d="M 86.348 60.751 C 80.215 72.163, 62.311 105.468, 46.563 134.763 L 17.929 188.026 28.616 202.013 L 39.303 216 127.901 215.954 L 216.500 215.907 226 203.406 C 231.225 196.530, 236.070 190.098, 236.766 189.112 C 237.864 187.557, 234.211 179.582, 209.196 128.910 C 193.336 96.784, 177.057 63.638, 173.020 55.250 L 165.679 40 131.590 40.001 L 97.500 40.002 86.348 60.751 M 119.500 67.093 C 116.200 67.532, 110.350 68.970, 106.500 70.291 L 99.500 72.692 99.765 78.096 L 100.029 83.500 97.491 78.742 L 94.953 73.983 91.227 75.920 C 85.629 78.829, 79.894 86.718, 80.137 91.175 C 80.206 92.454, 78.165 97.100, 75.601 101.500 C 70.183 110.798, 69.365 113.317, 70.793 116.314 C 71.787 118.400, 71.867 118.352, 72.538 115.272 C 73.266 111.932, 75.560 109.227, 76.700 110.366 C 77.058 110.724, 77.290 112.701, 77.216 114.759 C 77.142 116.816, 77.055 120.787, 77.021 123.582 C 76.976 127.358, 76.323 129.530, 74.480 132.027 C 71.463 136.116, 71.397 136.536, 74.065 134.667 C 75.200 133.872, 76.888 133.402, 77.815 133.623 C 78.893 133.880, 80.536 132.610, 82.376 130.100 C 85.993 125.164, 92.351 122.502, 98.508 123.346 C 101.936 123.816, 103.346 123.516, 105.437 121.871 C 108.742 119.271, 109.711 119.989, 114.397 128.513 L 117.883 134.856 116.065 141.178 C 114.519 146.553, 114.191 147.060, 113.874 144.565 L 113.500 141.629 110.599 146.238 C 107.999 150.368, 106.983 151.076, 100.796 153.066 C 91.301 156.119, 87.532 154.985, 79.904 146.783 C 75.152 141.674, 74.020 140.920, 72.404 141.791 C 69.405 143.406, 66.378 147.198, 65.142 150.888 C 64.164 153.808, 64.297 154.744, 66.100 157.662 C 69.675 163.447, 77.243 165.764, 82.285 162.618 C 86.534 159.967, 92.426 159.813, 97.670 162.216 L 102.500 164.430 98.628 164.783 L 94.755 165.135 97.370 167.864 C 98.972 169.536, 100.340 172.495, 100.901 175.502 L 101.819 180.411 99.932 177.955 C 98.894 176.605, 98.034 175.162, 98.022 174.750 C 98 174.012, 92 173.641, 92 174.378 C 92 176.864, 95.843 182.389, 99.618 185.330 L 104.362 189.026 105.789 184.763 C 106.574 182.418, 107.375 180.330, 107.568 180.123 C 107.762 179.916, 107.649 183.596, 107.317 188.301 L 106.713 196.855 110.036 198.876 C 111.863 199.987, 113.728 200.668, 114.179 200.389 C 114.631 200.110, 115.007 197.771, 115.015 195.191 C 115.024 192.611, 115.467 189.825, 116 189 C 116.695 187.925, 116.974 188.969, 116.985 192.685 C 117.005 199.683, 118.263 202.626, 121.498 203.244 C 124.826 203.881, 125.994 201.281, 126.015 193.185 C 126.035 186.040, 127.456 183.288, 128.346 188.673 C 128.693 190.778, 128.983 194.151, 128.989 196.168 C 129.005 201.622, 129.841 203, 133.132 203 C 136.748 203, 137.987 200.264, 138.030 192.185 C 138.067 185.349, 139.449 186.989, 140.339 194.923 C 141.139 202.061, 142.126 202.828, 145.440 198.889 C 147.612 196.307, 148.037 195.013, 147.556 192.445 C 147.100 190.014, 147.351 189.079, 148.588 188.605 C 149.910 188.097, 150.109 187.068, 149.624 183.238 C 149.022 178.486, 149.366 178.806, 151.933 185.396 L 153.061 188.291 155.637 185.896 C 158.393 183.332, 159.318 181.465, 160.481 176.116 L 161.218 172.732 157.609 175.485 L 154 178.237 154 174.433 C 154 171.904, 154.729 169.853, 156.174 168.314 C 158.699 165.627, 157.026 165.198, 153 167.500 C 149.346 169.589, 148.745 169.319, 150.633 166.438 C 151.556 165.029, 154.460 162.787, 157.087 161.456 L 161.862 159.036 166.181 160.996 C 173.234 164.197, 177.547 163.688, 182.118 159.118 C 185.486 155.749, 186 154.635, 186 150.699 C 186 148.204, 185.213 144.789, 184.250 143.111 L 182.500 140.059 177 145.447 C 172.951 149.412, 170.181 151.201, 166.500 152.224 C 157.375 154.762, 149.199 151.965, 146 145.211 C 144.233 141.480, 143.041 141.111, 142.897 144.250 C 142.830 145.705, 142.426 145.108, 141.753 142.563 C 140.916 139.394, 141.065 137.590, 142.520 133.310 C 143.514 130.386, 144.061 127.728, 143.736 127.403 C 143.411 127.078, 144.634 125.504, 146.454 123.906 C 149.245 121.456, 150.622 121, 155.233 121 C 162.434 121, 166.063 122.370, 168.500 126.008 C 169.600 127.651, 171.251 128.996, 172.168 128.997 C 174.897 129.002, 177 130.122, 177 131.572 C 177 132.959, 178.872 134.241, 183.433 135.974 L 186 136.951 182.400 129.801 C 178.177 121.416, 176.026 114.808, 176.011 110.177 C 175.994 105.055, 179.033 106.399, 181.280 112.508 C 182.966 117.094, 187.017 122.745, 186.988 120.472 C 186.981 119.938, 185.881 115.546, 184.544 110.712 C 182.701 104.051, 181.011 100.458, 177.557 95.863 C 174.760 92.143, 173 88.755, 173 87.092 C 173 85.602, 172.361 83.509, 171.581 82.441 C 170.192 80.542, 170.103 80.554, 167.420 83 C 165.037 85.174, 164.781 85.239, 165.453 83.500 C 167.360 78.570, 167.243 78.165, 163.348 76.190 C 156.852 72.898, 137.836 67.274, 131.500 66.772 C 128.200 66.510, 122.800 66.655, 119.500 67.093 M 129.705 140.629 C 129.304 141.029, 129.256 142.849, 129.598 144.672 C 130.315 148.494, 129.426 153, 127.956 153 C 127.403 153, 126.680 151.650, 126.350 150 C 125.491 145.707, 124.563 146.279, 123.096 152.002 C 122.391 154.753, 121.446 156.776, 120.996 156.497 C 120.546 156.219, 119.875 157.780, 119.506 159.966 C 119.136 162.152, 118.002 164.999, 116.985 166.291 C 115.434 168.264, 115.330 169.031, 116.341 171.071 C 118.677 175.781, 127 174.154, 127 168.988 C 127 165.848, 128.797 165.797, 129.482 168.918 C 129.837 170.532, 131.261 172.596, 132.648 173.505 C 135.002 175.047, 135.296 175.042, 137.085 173.423 C 138.138 172.470, 139.014 170.747, 139.032 169.595 C 139.063 167.508, 139.070 167.508, 140.651 169.500 C 142.175 171.421, 142.211 171.385, 141.552 168.561 C 141.175 166.945, 140.003 164.409, 138.947 162.926 C 136.231 159.111, 133.054 151.405, 131.640 145.200 C 130.976 142.285, 130.105 140.228, 129.705 140.629 M 95.713 189.621 C 93.664 191.669, 96.368 200.160, 99.444 201.340 C 101.361 202.076, 102.901 196.815, 102.033 192.500 C 101.579 190.247, 100.806 189.426, 98.927 189.204 C 97.551 189.041, 96.104 189.229, 95.713 189.621 M 154.265 189.873 C 152.555 190.994, 151.994 195.685, 153.167 199.050 L 154.313 202.337 156.657 199.613 C 159.623 196.164, 159.885 190.465, 157.111 189.739 C 156.072 189.467, 154.791 189.527, 154.265 189.873" stroke="none" fill="#040404" fill-rule="evenodd"/><path d="M 56.411 86.750 C 38.377 120.163, 18.532 156.926, 12.311 168.447 C 6.090 179.968, 1 189.749, 1 190.182 C 1 190.616, 8.274 199.752, 17.165 210.485 L 33.331 230 127.915 229.948 L 222.500 229.896 238.478 210.513 C 247.266 199.853, 254.600 190.699, 254.776 190.173 C 254.951 189.647, 236.743 152.493, 214.312 107.608 L 173.530 26 131.365 26 L 89.199 26 56.411 86.750 M 86.348 60.751 C 80.215 72.163, 62.311 105.468, 46.563 134.763 L 17.929 188.026 28.616 202.013 L 39.303 216 127.901 215.954 L 216.500 215.907 226 203.406 C 231.225 196.530, 236.070 190.098, 236.766 189.112 C 237.864 187.557, 234.211 179.582, 209.196 128.910 C 193.336 96.784, 177.057 63.638, 173.020 55.250 L 165.679 40 131.590 40.001 L 97.500 40.002 86.348 60.751 M 119.500 67.093 C 116.200 67.532, 110.350 68.970, 106.500 70.291 L 99.500 72.692 99.765 78.096 L 100.029 83.500 97.491 78.742 L 94.953 73.983 91.227 75.920 C 85.629 78.829, 79.894 86.718, 80.137 91.175 C 80.206 92.454, 78.165 97.100, 75.601 101.500 C 70.183 110.798, 69.365 113.317, 70.793 116.314 C 71.787 118.400, 71.867 118.352, 72.538 115.272 C 73.266 111.932, 75.560 109.227, 76.700 110.366 C 77.058 110.724, 77.290 112.701, 77.216 114.759 C 77.142 116.816, 77.055 120.787, 77.021 123.582 C 76.976 127.358, 76.323 129.530, 74.480 132.027 C 71.463 136.116, 71.397 136.536, 74.065 134.667 C 75.200 133.872, 76.888 133.402, 77.815 133.623 C 78.893 133.880, 80.536 132.610, 82.376 130.100 C 85.993 125.164, 92.351 122.502, 98.508 123.346 C 101.936 123.816, 103.346 123.516, 105.437 121.871 C 108.742 119.271, 109.711 119.989, 114.397 128.513 L 117.883 134.856 116.065 141.178 C 114.519 146.553, 114.191 147.060, 113.874 144.565 L 113.500 141.629 110.599 146.238 C 107.999 150.368, 106.983 151.076, 100.796 153.066 C 91.301 156.119, 87.532 154.985, 79.904 146.783 C 75.152 141.674, 74.020 140.920, 72.404 141.791 C 69.405 143.406, 66.378 147.198, 65.142 150.888 C 64.164 153.808, 64.297 154.744, 66.100 157.662 C 69.675 163.447, 77.243 165.764, 82.285 162.618 C 86.534 159.967, 92.426 159.813, 97.670 162.216 L 102.500 164.430 98.628 164.783 L 94.755 165.135 97.370 167.864 C 98.972 169.536, 100.340 172.495, 100.901 175.502 L 101.819 180.411 99.932 177.955 C 98.894 176.605, 98.034 175.162, 98.022 174.750 C 98 174.012, 92 173.641, 92 174.378 C 92 176.864, 95.843 182.389, 99.618 185.330 L 104.362 189.026 105.789 184.763 C 106.574 182.418, 107.375 180.330, 107.568 180.123 C 107.762 179.916, 107.649 183.596, 107.317 188.301 L 106.713 196.855 110.036 198.876 C 111.863 199.987, 113.728 200.668, 114.179 200.389 C 114.631 200.110, 115.007 197.771, 115.015 195.191 C 115.024 192.611, 115.467 189.825, 116 189 C 116.695 187.925, 116.974 188.969, 116.985 192.685 C 117.005 199.683, 118.263 202.626, 121.498 203.244 C 124.826 203.881, 125.994 201.281, 126.015 193.185 C 126.035 186.040, 127.456 183.288, 128.346 188.673 C 128.693 190.778, 128.983 194.151, 128.989 196.168 C 129.005 201.622, 129.841 203, 133.132 203 C 136.748 203, 137.987 200.264, 138.030 192.185 C 138.067 185.349, 139.449 186.989, 140.339 194.923 C 141.139 202.061, 142.126 202.828, 145.440 198.889 C 147.612 196.307, 148.037 195.013, 147.556 192.445 C 147.100 190.014, 147.351 189.079, 148.588 188.605 C 149.910 188.097, 150.109 187.068, 149.624 183.238 C 149.022 178.486, 149.366 178.806, 151.933 185.396 L 153.061 188.291 155.637 185.896 C 158.393 183.332, 159.318 181.465, 160.481 176.116 L 161.218 172.732 157.609 175.485 L 154 178.237 154 174.433 C 154 171.904, 154.729 169.853, 156.174 168.314 C 158.699 165.627, 157.026 165.198, 153 167.500 C 149.346 169.589, 148.745 169.319, 150.633 166.438 C 151.556 165.029, 154.460 162.787, 157.087 161.456 L 161.862 159.036 166.181 160.996 C 173.234 164.197, 177.547 163.688, 182.118 159.118 C 185.486 155.749, 186 154.635, 186 150.699 C 186 148.204, 185.213 144.789, 184.250 143.111 L 182.500 140.059 177 145.447 C 172.951 149.412, 170.181 151.201, 166.500 152.224 C 157.375 154.762, 149.199 151.965, 146 145.211 C 144.233 141.480, 143.041 141.111, 142.897 144.250 C 142.830 145.705, 142.426 145.108, 141.753 142.563 C 140.916 139.394, 141.065 137.590, 142.520 133.310 C 143.514 130.386, 144.061 127.728, 143.736 127.403 C 143.411 127.078, 144.634 125.504, 146.454 123.906 C 149.245 121.456, 150.622 121, 155.233 121 C 162.434 121, 166.063 122.370, 168.500 126.008 C 169.600 127.651, 171.251 128.996, 172.168 128.997 C 174.897 129.002, 177 130.122, 177 131.572 C 177 132.959, 178.872 134.241, 183.433 135.974 L 186 136.951 182.400 129.801 C 178.177 121.416, 176.026 114.808, 176.011 110.177 C 175.994 105.055, 179.033 106.399, 181.280 112.508 C 182.966 117.094, 187.017 122.745, 186.988 120.472 C 186.981 119.938, 185.881 115.546, 184.544 110.712 C 182.701 104.051, 181.011 100.458, 177.557 95.863 C 174.760 92.143, 173 88.755, 173 87.092 C 173 85.602, 172.361 83.509, 171.581 82.441 C 170.192 80.542, 170.103 80.554, 167.420 83 C 165.037 85.174, 164.781 85.239, 165.453 83.500 C 167.360 78.570, 167.243 78.165, 163.348 76.190 C 156.852 72.898, 137.836 67.274, 131.500 66.772 C 128.200 66.510, 122.800 66.655, 119.500 67.093 M 129.705 140.629 C 129.304 141.029, 129.256 142.849, 129.598 144.672 C 130.315 148.494, 129.426 153, 127.956 153 C 127.403 153, 126.680 151.650, 126.350 150 C 125.491 145.707, 124.563 146.279, 123.096 152.002 C 122.391 154.753, 121.446 156.776, 120.996 156.497 C 120.546 156.219, 119.875 157.780, 119.506 159.966 C 119.136 162.152, 118.002 164.999, 116.985 166.291 C 115.434 168.264, 115.330 169.031, 116.341 171.071 C 118.677 175.781, 127 174.154, 127 168.988 C 127 165.848, 128.797 165.797, 129.482 168.918 C 129.837 170.532, 131.261 172.596, 132.648 173.505 C 135.002 175.047, 135.296 175.042, 137.085 173.423 C 138.138 172.470, 139.014 170.747, 139.032 169.595 C 139.063 167.508, 139.070 167.508, 140.651 169.500 C 142.175 171.421, 142.211 171.385, 141.552 168.561 C 141.175 166.945, 140.003 164.409, 138.947 162.926 C 136.231 159.111, 133.054 151.405, 131.640 145.200 C 130.976 142.285, 130.105 140.228, 129.705 140.629 M 95.713 189.621 C 93.664 191.669, 96.368 200.160, 99.444 201.340 C 101.361 202.076, 102.901 196.815, 102.033 192.500 C 101.579 190.247, 100.806 189.426, 98.927 189.204 C 97.551 189.041, 96.104 189.229, 95.713 189.621 M 154.265 189.873 C 152.555 190.994, 151.994 195.685, 153.167 199.050 L 154.313 202.337 156.657 199.613 C 159.623 196.164, 159.885 190.465, 157.111 189.739 C 156.072 189.467, 154.791 189.527, 154.265 189.873" stroke="none" fill="#ffffff" fill-rule="evenodd"/></svg>