<svg xmlns="http://www.w3.org/2000/svg" width="256" height="256" viewBox="0 0 256 256" version="1.1"><path d="M 133.853 12.242 C 131.398 16.234, 120.380 34.125, 109.369 52 C 93.725 77.398, 88.508 86.746, 85.496 94.778 L 81.643 105.055 76.847 96.778 C 74.209 92.225, 70.762 84.900, 69.187 80.500 C 67.611 76.100, 64.839 68.323, 63.027 63.218 C 61.214 58.112, 59.540 54.127, 59.306 54.361 C 59.071 54.595, 56.927 68.222, 54.540 84.643 L 50.200 114.500 54.477 137 C 56.830 149.375, 58.609 159.664, 58.429 159.865 C 58.250 160.066, 47.869 154.339, 35.361 147.139 C 22.853 139.939, 12.430 134.236, 12.200 134.467 C 11.969 134.697, 15.393 144.699, 19.808 156.693 C 24.222 168.687, 29.937 184.225, 32.507 191.222 L 37.181 203.944 53.511 214.218 C 62.493 219.869, 69.741 224.593, 69.617 224.716 C 69.494 224.839, 62.723 223.810, 54.571 222.429 C 46.419 221.047, 39.290 220.070, 38.729 220.257 C 38.168 220.444, 44.325 225.361, 52.411 231.183 L 67.114 241.770 86.307 245.408 C 96.863 247.409, 106.850 249.289, 108.500 249.585 C 111.012 250.036, 108.613 247.309, 93.750 232.812 L 76 215.500 72.060 204.250 C 69.893 198.063, 68.252 193, 68.413 193 C 68.574 193, 73.953 195.475, 80.366 198.500 C 86.779 201.525, 92.223 204, 92.464 204 C 92.704 204, 90.738 199.145, 88.094 193.211 C 83.777 183.523, 83.065 180.843, 81.113 166.961 C 79.918 158.457, 78.671 150.166, 78.343 148.535 C 77.777 145.721, 78.116 145.900, 84.969 152.035 C 88.941 155.591, 94.241 160.281, 96.748 162.458 L 101.305 166.416 100.580 156.542 L 99.855 146.667 106.659 119.334 C 110.401 104.300, 113.716 92, 114.024 92 C 114.332 92, 115.837 103.362, 117.367 117.250 C 119.750 138.872, 120.801 144.871, 124.683 159 C 127.177 168.075, 129.555 176.119, 129.968 176.875 C 130.497 177.842, 133.700 174.553, 140.778 165.775 C 148.979 155.605, 152.320 150.363, 158.866 137.400 C 163.282 128.655, 166.933 121.950, 166.979 122.500 C 167.026 123.050, 168.328 133.171, 169.874 144.992 L 172.685 166.483 166.736 184.302 C 163.464 194.102, 161.033 202.366, 161.333 202.666 C 161.633 202.967, 166.824 200.915, 172.867 198.106 C 178.911 195.298, 184.025 193, 184.232 193 C 184.440 193, 182.982 199.372, 180.993 207.161 L 177.376 221.321 162.438 235.559 C 154.222 243.391, 147.725 250.027, 148 250.308 C 148.275 250.588, 158.774 248.857, 171.330 246.461 L 194.161 242.103 200.731 236.302 C 204.345 233.111, 209.146 228.927, 211.401 227.005 C 219.890 219.767, 219.709 219.996, 216.939 220.032 C 215.597 220.049, 208.200 221.126, 200.500 222.426 C 192.800 223.726, 186.423 224.722, 186.329 224.640 C 186.235 224.559, 193.507 219.869, 202.489 214.218 L 218.819 203.944 223.493 191.222 C 226.063 184.225, 231.778 168.687, 236.192 156.693 C 240.607 144.699, 244.029 134.696, 243.797 134.464 C 243.565 134.232, 234.002 139.444, 222.545 146.045 C 211.089 152.647, 201.489 157.822, 201.211 157.545 C 200.934 157.267, 199.653 145.589, 198.365 131.594 L 196.023 106.147 186.434 78.824 C 181.159 63.796, 174.748 45.650, 172.186 38.500 L 167.529 25.500 166.721 31.500 C 166.277 34.800, 164.515 45.822, 162.806 55.992 L 159.700 74.485 147.688 99.748 C 141.082 113.642, 135.566 124.895, 135.430 124.755 C 135.295 124.615, 134.693 113.420, 134.093 99.877 C 133.037 76.046, 133.098 74.137, 136.003 40.463 C 137.654 21.328, 138.850 5.517, 138.661 5.328 C 138.472 5.139, 136.309 8.250, 133.853 12.242" stroke="none" fill="#ffffff" fill-rule="evenodd"/></svg>