<svg xmlns="http://www.w3.org/2000/svg" width="256" height="256" viewBox="0 0 256 256" version="1.1"><path d="M 86.348 60.751 C 80.215 72.163, 62.311 105.468, 46.563 134.763 L 17.929 188.026 28.616 202.013 L 39.303 216 127.901 215.954 L 216.500 215.907 226 203.406 C 231.225 196.530, 236.070 190.098, 236.766 189.112 C 237.864 187.557, 234.211 179.582, 209.196 128.910 C 193.336 96.784, 177.057 63.638, 173.020 55.250 L 165.679 40 131.590 40.001 L 97.500 40.002 86.348 60.751 M 105.576 76.697 C 104.159 78.114, 103 79.713, 103 80.251 C 103 80.790, 104.133 80.488, 105.517 79.581 C 107.869 78.040, 108.194 78.049, 110.490 79.716 C 111.841 80.697, 112.733 82.099, 112.473 82.832 C 112.213 83.564, 112 85.219, 112 86.508 C 112 87.930, 111.311 89.004, 110.250 89.235 C 109.224 89.459, 107.450 88.402, 105.963 86.682 C 103.843 84.230, 102.939 83.858, 100.463 84.419 C 98.833 84.789, 96.006 86.443, 94.179 88.095 C 91.962 90.100, 90.671 92.329, 90.296 94.799 L 89.734 98.500 93.117 95.409 C 94.978 93.708, 97.959 91.317, 99.743 90.095 C 101.527 88.873, 103.443 88.156, 104 88.500 C 104.558 88.845, 105.701 90.454, 106.540 92.077 C 107.773 94.462, 108.563 94.937, 110.666 94.556 C 112.096 94.296, 114.735 94.698, 116.531 95.448 C 118.327 96.199, 120.180 97.498, 120.649 98.337 C 121.164 99.258, 123.280 99.987, 126.001 100.180 L 130.500 100.500 130.170 105.500 C 129.989 108.250, 129.468 112.215, 129.013 114.310 C 128.201 118.048, 128.227 118.094, 130.343 116.708 C 131.529 115.931, 133.109 114.059, 133.853 112.548 C 134.596 111.036, 135.271 107.559, 135.353 104.821 C 135.468 100.937, 135.073 99.530, 133.559 98.421 C 132.491 97.640, 130.388 97, 128.886 97 L 126.153 97 127.731 93.750 C 128.598 91.963, 129.449 90.327, 129.622 90.115 C 129.795 89.904, 131.300 90.296, 132.968 90.987 C 134.990 91.824, 136.005 92.952, 136.015 94.371 C 136.024 95.542, 136.467 97.175, 137 98 C 137.745 99.153, 138.012 98.747, 138.151 96.250 C 138.251 94.463, 138.371 92.213, 138.417 91.251 C 138.463 90.290, 137.825 89.458, 137 89.404 C 136.175 89.349, 134.956 89.236, 134.290 89.152 C 133.625 89.069, 132.536 87.088, 131.870 84.750 C 131.205 82.412, 129.799 79.530, 128.745 78.345 C 127.692 77.160, 125.263 75.897, 123.347 75.537 C 120.756 75.051, 118.963 75.414, 116.354 76.953 C 114.425 78.092, 112.431 78.766, 111.923 78.453 C 111.415 78.139, 111 77.282, 111 76.548 C 111 75.814, 110.359 74.968, 109.576 74.667 C 108.793 74.367, 106.993 75.280, 105.576 76.697 M 106.454 97.285 C 105.206 98.026, 104.547 99.280, 104.763 100.500 C 104.958 101.600, 105.361 103.175, 105.659 104 C 106.071 105.143, 106.407 104.965, 107.068 103.250 C 107.545 102.013, 108.645 101, 109.512 101 C 110.458 101, 110.970 101.699, 110.794 102.750 C 110.630 103.728, 111.052 104.390, 111.750 104.250 C 112.438 104.112, 113.014 104.787, 113.032 105.750 C 113.062 107.389, 113.151 107.385, 114.436 105.690 C 115.312 104.534, 116.047 104.266, 116.469 104.949 C 116.832 105.537, 116.815 107.009, 116.430 108.220 C 115.758 110.338, 115.822 110.362, 118.116 108.847 C 119.734 107.778, 120.598 106.138, 120.804 103.743 C 121.058 100.797, 120.619 99.865, 118.150 98.107 C 116.514 96.942, 113.695 96.016, 111.846 96.035 C 110.006 96.055, 107.579 96.617, 106.454 97.285 M 170.917 96.750 C 170.871 97.162, 170.718 98.554, 170.577 99.842 C 170.436 101.130, 169.733 102.547, 169.015 102.991 C 168.223 103.480, 167.987 104.524, 168.416 105.643 C 169.069 107.342, 169.274 107.291, 171.040 104.993 C 172.093 103.622, 172.966 102.009, 172.978 101.408 C 172.990 100.808, 174.912 99.723, 177.250 98.998 C 181.241 97.759, 181.348 97.634, 179 96.939 C 177.625 96.532, 175.262 96.155, 173.750 96.100 C 172.238 96.045, 170.963 96.338, 170.917 96.750 M 148.868 103.340 C 146.898 105.253, 144.999 108.253, 144.649 110.007 C 144.298 111.760, 144.274 114.244, 144.596 115.525 C 144.917 116.807, 145.815 118.099, 146.590 118.396 C 147.604 118.785, 148 118.121, 148 116.034 C 148 114.437, 148.417 112.033, 148.927 110.692 C 149.437 109.351, 151.476 107.251, 153.458 106.026 C 155.806 104.575, 157.890 104.007, 159.438 104.395 C 160.745 104.723, 162.583 105.287, 163.523 105.647 C 164.988 106.210, 165.073 106.005, 164.117 104.219 C 163.504 103.073, 162.214 101.904, 161.251 101.621 C 160.288 101.338, 157.914 100.827, 155.975 100.484 C 152.890 99.939, 152.002 100.296, 148.868 103.340 M 179.231 103.344 C 176.918 104.021, 175.786 105.060, 175.357 106.900 C 175.024 108.330, 173.652 110.558, 172.310 111.851 C 170.967 113.144, 169.786 114.044, 169.685 113.851 C 169.583 113.658, 168.825 112.192, 168 110.594 C 167.040 108.734, 165.109 107.209, 162.636 106.357 C 159.101 105.139, 158.506 105.208, 155.636 107.168 C 153.911 108.346, 151.938 110.001, 151.250 110.846 C 150.563 111.691, 150 114.500, 150 117.088 C 150 121.195, 150.436 122.176, 153.430 124.805 C 156.592 127.580, 156.729 127.931, 155.180 129.280 C 154.256 130.085, 152.485 131.268, 151.244 131.910 C 149.275 132.928, 149.064 133.612, 149.583 137.288 C 149.910 139.605, 150.827 143.572, 151.620 146.104 C 152.604 149.241, 153.865 151.073, 155.579 151.854 C 156.962 152.484, 158.761 153, 159.577 153 C 160.775 153, 160.685 152.471, 159.111 150.250 C 158.039 148.738, 156.499 144.478, 155.688 140.784 C 154.589 135.780, 154.505 133.837, 155.357 133.164 C 155.986 132.667, 158.188 131.717, 160.250 131.053 C 162.406 130.358, 164 129.200, 164 128.327 C 164 127.492, 164.923 125.513, 166.050 123.929 C 167.218 122.290, 169.738 120.559, 171.904 119.911 C 175.376 118.870, 175.786 118.367, 176.604 114.136 L 177.500 109.500 184.254 109.204 C 187.969 109.042, 192.578 109.342, 194.495 109.871 C 197.750 110.770, 197.913 110.706, 196.955 108.917 C 196.391 107.863, 194.902 106.327, 193.646 105.504 C 192.390 104.681, 189.368 103.643, 186.931 103.197 C 184.390 102.733, 181.106 102.795, 179.231 103.344 M 111.394 116.905 C 108.186 117.297, 104.756 118.590, 102.167 120.385 C 99.900 121.955, 97.621 123.752, 97.103 124.376 C 96.585 125, 95.851 126.746, 95.472 128.256 C 95.093 129.765, 95.075 131, 95.431 131 C 95.787 131, 98.418 129.425, 101.276 127.500 C 105.532 124.634, 107.399 124, 111.587 124 C 115.676 124, 117.526 124.598, 120.823 126.987 C 123.090 128.629, 125.803 131.667, 126.851 133.737 C 127.899 135.806, 129.072 138.963, 129.457 140.750 C 129.843 142.537, 130.543 144, 131.012 144 C 131.481 144, 132.087 143.213, 132.358 142.250 C 132.629 141.287, 133.143 139.048, 133.500 137.272 C 133.994 134.817, 133.506 132.863, 131.461 129.106 C 129.777 126.012, 126.715 122.643, 123.261 120.084 C 120.229 117.838, 117.468 116.063, 117.124 116.141 C 116.781 116.218, 114.202 116.562, 111.394 116.905 M 71.560 121.022 C 68.844 122.083, 66.047 123.524, 65.347 124.225 C 64.314 125.258, 65.352 125.510, 70.814 125.554 C 77.485 125.606, 77.603 125.655, 82.251 130.304 C 84.834 132.887, 87.409 135, 87.974 135 C 88.538 135, 89 133.650, 89 132 C 89 129.702, 88.548 129, 87.068 129 C 86.006 129, 84.219 127.712, 83.098 126.137 C 81.976 124.563, 81.383 122.951, 81.778 122.555 C 82.173 122.160, 81.624 121.198, 80.557 120.418 C 79.491 119.638, 78.141 119.021, 77.559 119.047 C 76.976 119.073, 74.277 119.961, 71.560 121.022 M 172.500 120.930 C 171.400 121.398, 169.385 122.981, 168.023 124.447 C 166.235 126.371, 165.545 128.237, 165.545 131.154 C 165.545 133.983, 166.121 135.615, 167.464 136.597 C 168.519 137.369, 170.491 138, 171.846 138 C 174.170 138, 174.216 137.896, 172.655 136.171 C 171.745 135.165, 171 133.580, 171 132.648 C 171 131.066, 171.176 131.069, 173.649 132.690 C 176.297 134.425, 176.298 134.425, 175.063 132.118 C 173.922 129.986, 173.994 129.863, 176 130.500 C 177.935 131.114, 178.054 130.969, 177.086 129.160 C 176.489 128.044, 176 126.877, 176 126.566 C 176 126.255, 176.878 126, 177.950 126 C 179.023 126, 180.377 126.787, 180.959 127.750 C 181.790 129.123, 181.962 128.530, 181.759 125 C 181.507 120.619, 181.408 120.494, 178 120.289 C 176.075 120.174, 173.600 120.462, 172.500 120.930 M 146 125.456 C 146 126.998, 145.152 128.383, 143.750 129.134 C 142.512 129.796, 141.275 130.238, 141 130.116 C 140.725 129.994, 140.372 130.501, 140.216 131.243 C 140.060 131.985, 140.732 134.372, 141.709 136.546 L 143.486 140.500 143.810 136.047 C 144.029 133.048, 144.763 131.154, 146.060 130.246 C 147.118 129.504, 148.406 128.109, 148.922 127.145 C 149.625 125.832, 149.377 125.092, 147.930 124.188 C 146.219 123.120, 146 123.263, 146 125.456 M 98.739 131.521 C 92.234 135.885, 91.998 136.189, 91.930 140.271 C 91.891 142.597, 91.519 145.370, 91.102 146.434 C 90.582 147.763, 90.116 147.997, 89.613 147.184 C 89.211 146.533, 88.009 146, 86.941 146 C 85.598 146, 84.996 146.694, 84.988 148.250 C 84.979 149.900, 84.113 149.002, 81.738 144.882 C 79.957 141.792, 77.738 138.241, 76.807 136.991 C 75.545 135.296, 73.794 134.591, 69.932 134.219 C 65.423 133.786, 63.760 134.204, 57.125 137.441 C 51.841 140.018, 48.703 142.287, 46.905 144.830 C 45.478 146.849, 43.814 149.963, 43.207 151.750 C 42.600 153.537, 42.379 155, 42.714 155 C 43.050 155, 45.389 153.679, 47.912 152.065 C 50.772 150.236, 57.147 147.934, 64.838 145.954 C 73.891 143.622, 77.472 143.072, 78.288 143.888 C 79.104 144.704, 79.083 145, 78.209 145 C 77.492 145, 78.265 147.527, 80.151 151.353 L 83.284 157.706 88.453 157.688 C 91.933 157.676, 95.213 158.459, 98.496 160.085 C 101.421 161.534, 104.533 164.143, 106.278 166.609 C 109.183 170.714, 109.195 170.719, 117.240 171.339 C 121.669 171.681, 125.562 172.228, 125.889 172.556 C 126.217 172.884, 126.994 178.823, 127.617 185.755 C 128.508 195.676, 128.481 199.011, 127.494 201.429 C 126.804 203.118, 125.918 205.551, 125.525 206.836 C 124.867 208.988, 124.983 209.080, 126.994 208.003 C 128.195 207.361, 130.937 205.245, 133.088 203.301 L 137 199.767 136.904 189.634 C 136.851 184.060, 136.286 177.250, 135.648 174.500 C 134.623 170.081, 134.081 169.361, 130.994 168.306 C 129.072 167.650, 125.362 167.087, 122.750 167.056 C 120.138 167.025, 118 166.550, 118 166 C 118 165.450, 118.343 165, 118.763 165 C 119.182 165, 119.970 164.119, 120.513 163.042 C 121.056 161.965, 122.928 158.163, 124.673 154.594 C 127.716 148.371, 127.794 147.906, 126.576 143.302 C 125.877 140.661, 124.379 136.700, 123.248 134.500 C 122.116 132.300, 119.841 129.713, 118.191 128.750 C 116.452 127.735, 113.151 127, 110.335 127 C 106.236 127, 104.427 127.705, 98.739 131.521 M 129.034 153.250 C 128.288 155.112, 128.673 155.972, 131.270 158.243 C 132.996 159.752, 135.849 161.256, 137.612 161.587 C 139.374 161.918, 141.061 162.933, 141.361 163.844 C 141.660 164.755, 142.795 167.974, 143.883 170.998 C 145.860 176.493, 145.861 176.495, 146.930 173.683 C 147.519 172.136, 148 168.185, 148 164.903 C 148 159.634, 147.737 158.836, 145.750 158.083 C 144.512 157.614, 143.050 157.562, 142.500 157.968 C 141.950 158.374, 140.150 158.333, 138.500 157.877 C 136.850 157.421, 134.600 155.689, 133.500 154.027 C 132.400 152.365, 131.148 151.004, 130.718 151.003 C 130.288 151.001, 129.530 152.012, 129.034 153.250 M 80.831 162.687 L 75.163 164.176 75.726 169.838 C 76.035 172.952, 76.755 176.625, 77.325 178 C 78.313 180.385, 78.405 180.291, 79.309 175.957 C 80.226 171.564, 80.384 171.410, 84.083 171.262 C 87.774 171.115, 87.875 171.198, 86.954 173.620 C 86.429 175.001, 86 177.226, 86 178.565 C 86 179.904, 86.412 181, 86.917 181 C 87.421 181, 88.740 179.762, 89.848 178.250 L 91.862 175.500 91.365 180 L 90.869 184.500 94.420 180.500 L 97.970 176.500 97.985 179.357 C 97.996 181.474, 98.386 182.066, 99.490 181.642 C 100.502 181.254, 100.181 182.337, 98.490 185.015 C 97.121 187.185, 96 189.414, 96 189.969 C 96 190.524, 98.475 189.764, 101.500 188.281 L 107 185.583 107 179.427 C 107 174.573, 106.525 172.659, 104.759 170.385 C 103.526 168.798, 101.613 166.688, 100.509 165.696 C 99.404 164.703, 97.052 163.241, 95.282 162.446 C 93.512 161.651, 90.812 161.045, 89.282 161.099 C 87.752 161.154, 83.949 161.868, 80.831 162.687" stroke="none" fill="#040404" fill-rule="evenodd"/><path d="M 56.411 86.750 C 38.377 120.163, 18.532 156.926, 12.311 168.447 C 6.090 179.968, 1 189.749, 1 190.182 C 1 190.616, 8.274 199.752, 17.165 210.485 L 33.331 230 127.915 229.948 L 222.500 229.896 238.478 210.513 C 247.266 199.853, 254.600 190.699, 254.776 190.173 C 254.951 189.647, 236.743 152.493, 214.312 107.608 L 173.530 26 131.365 26 L 89.199 26 56.411 86.750 M 86.348 60.751 C 80.215 72.163, 62.311 105.468, 46.563 134.763 L 17.929 188.026 28.616 202.013 L 39.303 216 127.901 215.954 L 216.500 215.907 226 203.406 C 231.225 196.530, 236.070 190.098, 236.766 189.112 C 237.864 187.557, 234.211 179.582, 209.196 128.910 C 193.336 96.784, 177.057 63.638, 173.020 55.250 L 165.679 40 131.590 40.001 L 97.500 40.002 86.348 60.751 M 105.576 76.697 C 104.159 78.114, 103 79.713, 103 80.251 C 103 80.790, 104.133 80.488, 105.517 79.581 C 107.869 78.040, 108.194 78.049, 110.490 79.716 C 111.841 80.697, 112.733 82.099, 112.473 82.832 C 112.213 83.564, 112 85.219, 112 86.508 C 112 87.930, 111.311 89.004, 110.250 89.235 C 109.224 89.459, 107.450 88.402, 105.963 86.682 C 103.843 84.230, 102.939 83.858, 100.463 84.419 C 98.833 84.789, 96.006 86.443, 94.179 88.095 C 91.962 90.100, 90.671 92.329, 90.296 94.799 L 89.734 98.500 93.117 95.409 C 94.978 93.708, 97.959 91.317, 99.743 90.095 C 101.527 88.873, 103.443 88.156, 104 88.500 C 104.558 88.845, 105.701 90.454, 106.540 92.077 C 107.773 94.462, 108.563 94.937, 110.666 94.556 C 112.096 94.296, 114.735 94.698, 116.531 95.448 C 118.327 96.199, 120.180 97.498, 120.649 98.337 C 121.164 99.258, 123.280 99.987, 126.001 100.180 L 130.500 100.500 130.170 105.500 C 129.989 108.250, 129.468 112.215, 129.013 114.310 C 128.201 118.048, 128.227 118.094, 130.343 116.708 C 131.529 115.931, 133.109 114.059, 133.853 112.548 C 134.596 111.036, 135.271 107.559, 135.353 104.821 C 135.468 100.937, 135.073 99.530, 133.559 98.421 C 132.491 97.640, 130.388 97, 128.886 97 L 126.153 97 127.731 93.750 C 128.598 91.963, 129.449 90.327, 129.622 90.115 C 129.795 89.904, 131.300 90.296, 132.968 90.987 C 134.990 91.824, 136.005 92.952, 136.015 94.371 C 136.024 95.542, 136.467 97.175, 137 98 C 137.745 99.153, 138.012 98.747, 138.151 96.250 C 138.251 94.463, 138.371 92.213, 138.417 91.251 C 138.463 90.290, 137.825 89.458, 137 89.404 C 136.175 89.349, 134.956 89.236, 134.290 89.152 C 133.625 89.069, 132.536 87.088, 131.870 84.750 C 131.205 82.412, 129.799 79.530, 128.745 78.345 C 127.692 77.160, 125.263 75.897, 123.347 75.537 C 120.756 75.051, 118.963 75.414, 116.354 76.953 C 114.425 78.092, 112.431 78.766, 111.923 78.453 C 111.415 78.139, 111 77.282, 111 76.548 C 111 75.814, 110.359 74.968, 109.576 74.667 C 108.793 74.367, 106.993 75.280, 105.576 76.697 M 106.454 97.285 C 105.206 98.026, 104.547 99.280, 104.763 100.500 C 104.958 101.600, 105.361 103.175, 105.659 104 C 106.071 105.143, 106.407 104.965, 107.068 103.250 C 107.545 102.013, 108.645 101, 109.512 101 C 110.458 101, 110.970 101.699, 110.794 102.750 C 110.630 103.728, 111.052 104.390, 111.750 104.250 C 112.438 104.112, 113.014 104.787, 113.032 105.750 C 113.062 107.389, 113.151 107.385, 114.436 105.690 C 115.312 104.534, 116.047 104.266, 116.469 104.949 C 116.832 105.537, 116.815 107.009, 116.430 108.220 C 115.758 110.338, 115.822 110.362, 118.116 108.847 C 119.734 107.778, 120.598 106.138, 120.804 103.743 C 121.058 100.797, 120.619 99.865, 118.150 98.107 C 116.514 96.942, 113.695 96.016, 111.846 96.035 C 110.006 96.055, 107.579 96.617, 106.454 97.285 M 170.917 96.750 C 170.871 97.162, 170.718 98.554, 170.577 99.842 C 170.436 101.130, 169.733 102.547, 169.015 102.991 C 168.223 103.480, 167.987 104.524, 168.416 105.643 C 169.069 107.342, 169.274 107.291, 171.040 104.993 C 172.093 103.622, 172.966 102.009, 172.978 101.408 C 172.990 100.808, 174.912 99.723, 177.250 98.998 C 181.241 97.759, 181.348 97.634, 179 96.939 C 177.625 96.532, 175.262 96.155, 173.750 96.100 C 172.238 96.045, 170.963 96.338, 170.917 96.750 M 148.868 103.340 C 146.898 105.253, 144.999 108.253, 144.649 110.007 C 144.298 111.760, 144.274 114.244, 144.596 115.525 C 144.917 116.807, 145.815 118.099, 146.590 118.396 C 147.604 118.785, 148 118.121, 148 116.034 C 148 114.437, 148.417 112.033, 148.927 110.692 C 149.437 109.351, 151.476 107.251, 153.458 106.026 C 155.806 104.575, 157.890 104.007, 159.438 104.395 C 160.745 104.723, 162.583 105.287, 163.523 105.647 C 164.988 106.210, 165.073 106.005, 164.117 104.219 C 163.504 103.073, 162.214 101.904, 161.251 101.621 C 160.288 101.338, 157.914 100.827, 155.975 100.484 C 152.890 99.939, 152.002 100.296, 148.868 103.340 M 179.231 103.344 C 176.918 104.021, 175.786 105.060, 175.357 106.900 C 175.024 108.330, 173.652 110.558, 172.310 111.851 C 170.967 113.144, 169.786 114.044, 169.685 113.851 C 169.583 113.658, 168.825 112.192, 168 110.594 C 167.040 108.734, 165.109 107.209, 162.636 106.357 C 159.101 105.139, 158.506 105.208, 155.636 107.168 C 153.911 108.346, 151.938 110.001, 151.250 110.846 C 150.563 111.691, 150 114.500, 150 117.088 C 150 121.195, 150.436 122.176, 153.430 124.805 C 156.592 127.580, 156.729 127.931, 155.180 129.280 C 154.256 130.085, 152.485 131.268, 151.244 131.910 C 149.275 132.928, 149.064 133.612, 149.583 137.288 C 149.910 139.605, 150.827 143.572, 151.620 146.104 C 152.604 149.241, 153.865 151.073, 155.579 151.854 C 156.962 152.484, 158.761 153, 159.577 153 C 160.775 153, 160.685 152.471, 159.111 150.250 C 158.039 148.738, 156.499 144.478, 155.688 140.784 C 154.589 135.780, 154.505 133.837, 155.357 133.164 C 155.986 132.667, 158.188 131.717, 160.250 131.053 C 162.406 130.358, 164 129.200, 164 128.327 C 164 127.492, 164.923 125.513, 166.050 123.929 C 167.218 122.290, 169.738 120.559, 171.904 119.911 C 175.376 118.870, 175.786 118.367, 176.604 114.136 L 177.500 109.500 184.254 109.204 C 187.969 109.042, 192.578 109.342, 194.495 109.871 C 197.750 110.770, 197.913 110.706, 196.955 108.917 C 196.391 107.863, 194.902 106.327, 193.646 105.504 C 192.390 104.681, 189.368 103.643, 186.931 103.197 C 184.390 102.733, 181.106 102.795, 179.231 103.344 M 111.394 116.905 C 108.186 117.297, 104.756 118.590, 102.167 120.385 C 99.900 121.955, 97.621 123.752, 97.103 124.376 C 96.585 125, 95.851 126.746, 95.472 128.256 C 95.093 129.765, 95.075 131, 95.431 131 C 95.787 131, 98.418 129.425, 101.276 127.500 C 105.532 124.634, 107.399 124, 111.587 124 C 115.676 124, 117.526 124.598, 120.823 126.987 C 123.090 128.629, 125.803 131.667, 126.851 133.737 C 127.899 135.806, 129.072 138.963, 129.457 140.750 C 129.843 142.537, 130.543 144, 131.012 144 C 131.481 144, 132.087 143.213, 132.358 142.250 C 132.629 141.287, 133.143 139.048, 133.500 137.272 C 133.994 134.817, 133.506 132.863, 131.461 129.106 C 129.777 126.012, 126.715 122.643, 123.261 120.084 C 120.229 117.838, 117.468 116.063, 117.124 116.141 C 116.781 116.218, 114.202 116.562, 111.394 116.905 M 71.560 121.022 C 68.844 122.083, 66.047 123.524, 65.347 124.225 C 64.314 125.258, 65.352 125.510, 70.814 125.554 C 77.485 125.606, 77.603 125.655, 82.251 130.304 C 84.834 132.887, 87.409 135, 87.974 135 C 88.538 135, 89 133.650, 89 132 C 89 129.702, 88.548 129, 87.068 129 C 86.006 129, 84.219 127.712, 83.098 126.137 C 81.976 124.563, 81.383 122.951, 81.778 122.555 C 82.173 122.160, 81.624 121.198, 80.557 120.418 C 79.491 119.638, 78.141 119.021, 77.559 119.047 C 76.976 119.073, 74.277 119.961, 71.560 121.022 M 172.500 120.930 C 171.400 121.398, 169.385 122.981, 168.023 124.447 C 166.235 126.371, 165.545 128.237, 165.545 131.154 C 165.545 133.983, 166.121 135.615, 167.464 136.597 C 168.519 137.369, 170.491 138, 171.846 138 C 174.170 138, 174.216 137.896, 172.655 136.171 C 171.745 135.165, 171 133.580, 171 132.648 C 171 131.066, 171.176 131.069, 173.649 132.690 C 176.297 134.425, 176.298 134.425, 175.063 132.118 C 173.922 129.986, 173.994 129.863, 176 130.500 C 177.935 131.114, 178.054 130.969, 177.086 129.160 C 176.489 128.044, 176 126.877, 176 126.566 C 176 126.255, 176.878 126, 177.950 126 C 179.023 126, 180.377 126.787, 180.959 127.750 C 181.790 129.123, 181.962 128.530, 181.759 125 C 181.507 120.619, 181.408 120.494, 178 120.289 C 176.075 120.174, 173.600 120.462, 172.500 120.930 M 146 125.456 C 146 126.998, 145.152 128.383, 143.750 129.134 C 142.512 129.796, 141.275 130.238, 141 130.116 C 140.725 129.994, 140.372 130.501, 140.216 131.243 C 140.060 131.985, 140.732 134.372, 141.709 136.546 L 143.486 140.500 143.810 136.047 C 144.029 133.048, 144.763 131.154, 146.060 130.246 C 147.118 129.504, 148.406 128.109, 148.922 127.145 C 149.625 125.832, 149.377 125.092, 147.930 124.188 C 146.219 123.120, 146 123.263, 146 125.456 M 98.739 131.521 C 92.234 135.885, 91.998 136.189, 91.930 140.271 C 91.891 142.597, 91.519 145.370, 91.102 146.434 C 90.582 147.763, 90.116 147.997, 89.613 147.184 C 89.211 146.533, 88.009 146, 86.941 146 C 85.598 146, 84.996 146.694, 84.988 148.250 C 84.979 149.900, 84.113 149.002, 81.738 144.882 C 79.957 141.792, 77.738 138.241, 76.807 136.991 C 75.545 135.296, 73.794 134.591, 69.932 134.219 C 65.423 133.786, 63.760 134.204, 57.125 137.441 C 51.841 140.018, 48.703 142.287, 46.905 144.830 C 45.478 146.849, 43.814 149.963, 43.207 151.750 C 42.600 153.537, 42.379 155, 42.714 155 C 43.050 155, 45.389 153.679, 47.912 152.065 C 50.772 150.236, 57.147 147.934, 64.838 145.954 C 73.891 143.622, 77.472 143.072, 78.288 143.888 C 79.104 144.704, 79.083 145, 78.209 145 C 77.492 145, 78.265 147.527, 80.151 151.353 L 83.284 157.706 88.453 157.688 C 91.933 157.676, 95.213 158.459, 98.496 160.085 C 101.421 161.534, 104.533 164.143, 106.278 166.609 C 109.183 170.714, 109.195 170.719, 117.240 171.339 C 121.669 171.681, 125.562 172.228, 125.889 172.556 C 126.217 172.884, 126.994 178.823, 127.617 185.755 C 128.508 195.676, 128.481 199.011, 127.494 201.429 C 126.804 203.118, 125.918 205.551, 125.525 206.836 C 124.867 208.988, 124.983 209.080, 126.994 208.003 C 128.195 207.361, 130.937 205.245, 133.088 203.301 L 137 199.767 136.904 189.634 C 136.851 184.060, 136.286 177.250, 135.648 174.500 C 134.623 170.081, 134.081 169.361, 130.994 168.306 C 129.072 167.650, 125.362 167.087, 122.750 167.056 C 120.138 167.025, 118 166.550, 118 166 C 118 165.450, 118.343 165, 118.763 165 C 119.182 165, 119.970 164.119, 120.513 163.042 C 121.056 161.965, 122.928 158.163, 124.673 154.594 C 127.716 148.371, 127.794 147.906, 126.576 143.302 C 125.877 140.661, 124.379 136.700, 123.248 134.500 C 122.116 132.300, 119.841 129.713, 118.191 128.750 C 116.452 127.735, 113.151 127, 110.335 127 C 106.236 127, 104.427 127.705, 98.739 131.521 M 129.034 153.250 C 128.288 155.112, 128.673 155.972, 131.270 158.243 C 132.996 159.752, 135.849 161.256, 137.612 161.587 C 139.374 161.918, 141.061 162.933, 141.361 163.844 C 141.660 164.755, 142.795 167.974, 143.883 170.998 C 145.860 176.493, 145.861 176.495, 146.930 173.683 C 147.519 172.136, 148 168.185, 148 164.903 C 148 159.634, 147.737 158.836, 145.750 158.083 C 144.512 157.614, 143.050 157.562, 142.500 157.968 C 141.950 158.374, 140.150 158.333, 138.500 157.877 C 136.850 157.421, 134.600 155.689, 133.500 154.027 C 132.400 152.365, 131.148 151.004, 130.718 151.003 C 130.288 151.001, 129.530 152.012, 129.034 153.250 M 80.831 162.687 L 75.163 164.176 75.726 169.838 C 76.035 172.952, 76.755 176.625, 77.325 178 C 78.313 180.385, 78.405 180.291, 79.309 175.957 C 80.226 171.564, 80.384 171.410, 84.083 171.262 C 87.774 171.115, 87.875 171.198, 86.954 173.620 C 86.429 175.001, 86 177.226, 86 178.565 C 86 179.904, 86.412 181, 86.917 181 C 87.421 181, 88.740 179.762, 89.848 178.250 L 91.862 175.500 91.365 180 L 90.869 184.500 94.420 180.500 L 97.970 176.500 97.985 179.357 C 97.996 181.474, 98.386 182.066, 99.490 181.642 C 100.502 181.254, 100.181 182.337, 98.490 185.015 C 97.121 187.185, 96 189.414, 96 189.969 C 96 190.524, 98.475 189.764, 101.500 188.281 L 107 185.583 107 179.427 C 107 174.573, 106.525 172.659, 104.759 170.385 C 103.526 168.798, 101.613 166.688, 100.509 165.696 C 99.404 164.703, 97.052 163.241, 95.282 162.446 C 93.512 161.651, 90.812 161.045, 89.282 161.099 C 87.752 161.154, 83.949 161.868, 80.831 162.687" stroke="none" fill="#ffffff" fill-rule="evenodd"/></svg>