<svg xmlns="http://www.w3.org/2000/svg" width="256" height="256" viewBox="0 0 256 256" version="1.1"><path d="M 95.651 42.250 C 94.884 43.487, 78.169 74.425, 58.508 111 C 38.846 147.575, 21.464 179.803, 19.881 182.619 L 17.004 187.737 27.752 201.868 L 38.500 216 127.500 215.993 L 216.500 215.987 227.250 202.020 C 233.162 194.339, 238 187.612, 238 187.073 C 238 186.533, 230.427 170.884, 221.172 152.296 C 211.917 133.708, 195.637 100.838, 184.995 79.250 L 165.647 40 131.347 40 L 97.046 40 95.651 42.250 M 104.395 73.750 C 104.699 75.263, 107.442 93.375, 110.490 114 C 113.538 134.625, 116.258 152.512, 116.535 153.750 C 117.024 155.936, 117.394 156, 129.460 156 C 136.292 156, 142.128 155.603, 142.428 155.117 C 142.728 154.631, 145.679 136.131, 148.987 114.006 C 152.294 91.881, 155 73.153, 155 72.389 C 155 71.240, 150.584 71, 129.421 71 L 103.841 71 104.395 73.750 M 117 178 L 117 190 129.500 190 L 142 190 142 178 L 142 166 129.500 166 L 117 166 117 178" stroke="none" fill="#040404" fill-rule="evenodd"/><path d="M 81.769 38.250 C 78.113 44.987, 58.220 81.726, 37.561 119.892 C 16.903 158.057, -0 189.677, -0 190.157 C -0 190.637, 7.309 199.798, 16.242 210.515 L 32.483 230 127.509 230 L 222.535 230 239.143 210.042 C 248.277 199.065, 256.032 190.365, 256.376 190.709 C 256.719 191.052, 256.993 190.246, 256.985 188.917 C 256.975 187.421, 256.679 186.957, 256.207 187.700 C 255.748 188.422, 239.238 156.485, 214.723 107.450 L 174.002 26 131.209 26 L 88.416 26 81.769 38.250 M 95.651 42.250 C 94.884 43.487, 78.169 74.425, 58.508 111 C 38.846 147.575, 21.464 179.803, 19.881 182.619 L 17.004 187.737 27.752 201.868 L 38.500 216 127.500 215.993 L 216.500 215.987 227.250 202.020 C 233.162 194.339, 238 187.612, 238 187.073 C 238 186.533, 230.427 170.884, 221.172 152.296 C 211.917 133.708, 195.637 100.838, 184.995 79.250 L 165.647 40 131.347 40 L 97.046 40 95.651 42.250 M 104.395 73.750 C 104.699 75.263, 107.442 93.375, 110.490 114 C 113.538 134.625, 116.258 152.512, 116.535 153.750 C 117.024 155.936, 117.394 156, 129.460 156 C 136.292 156, 142.128 155.603, 142.428 155.117 C 142.728 154.631, 145.679 136.131, 148.987 114.006 C 152.294 91.881, 155 73.153, 155 72.389 C 155 71.240, 150.584 71, 129.421 71 L 103.841 71 104.395 73.750 M 117 178 L 117 190 129.500 190 L 142 190 142 178 L 142 166 129.500 166 L 117 166 117 178 M 0.158 190 C 0.158 191.375, 0.385 191.938, 0.662 191.250 C 0.940 190.563, 0.940 189.438, 0.662 188.750 C 0.385 188.063, 0.158 188.625, 0.158 190" stroke="none" fill="#ffffff" fill-rule="evenodd"/></svg>